<svg width="268" height="74" viewBox="0 0 268 74" fill="none" xmlns="http://www.w3.org/2000/svg">
<path d="M104.841 7.02372H102.04L97.8744 18.0194L93.6742 7.02372H90.8399V20H92.5473V8.90186L96.8158 20H98.8647L103.133 8.90186V20H104.841V7.02372ZM108.665 8.25305H110.578V6.34075H108.665V8.25305ZM108.768 20H110.475V9.75557H108.768V20ZM121.232 9.75557V13.9899H115.768V9.75557H114.061V20H115.768V15.5607H121.232V20H122.939V9.75557H121.232ZM126.422 8.25305H128.335V6.34075H126.422V8.25305ZM126.525 20H128.232V9.75557H126.525V20ZM136.086 20.1707C138.203 20.1707 139.979 19.0439 140.56 17.0974L138.989 16.5852C138.511 17.8828 137.452 18.6682 136.086 18.6682C134.037 18.6682 132.774 17.1657 132.774 14.8778C132.774 12.5899 134.037 11.0873 136.086 11.0873C137.452 11.0873 138.477 11.8727 138.955 13.1704L140.56 12.6582C140.013 10.7117 138.237 9.58482 136.086 9.58482C133.115 9.58482 131.032 11.7362 131.032 14.8778C131.032 18.0194 133.115 20.1707 136.086 20.1707ZM150.599 9.75557H141.379V11.2581H145.135V20H146.843V11.2581H150.599V9.75557ZM153.092 15.4242H161.185C161.219 15.2534 161.219 15.0827 161.219 14.8778C161.219 11.6679 159.307 9.58482 156.37 9.58482C153.433 9.58482 151.35 11.7362 151.35 14.8778C151.35 17.917 153.229 20.1707 156.541 20.1707C158.761 20.1707 160.161 19.317 160.912 18.3267L159.683 17.2682C159.136 18.0536 158.18 18.6682 156.507 18.6682C154.56 18.6682 153.297 17.4047 153.092 15.4242ZM156.37 11.0532C158.043 11.0532 159.204 12.2142 159.443 14.0582H153.126C153.399 12.2142 154.594 11.0532 156.37 11.0532ZM168.971 9.58482C167.468 9.58482 166.171 10.2678 165.351 11.463L165.214 9.75557H163.78V23.4148H165.488V18.5316C166.273 19.5902 167.502 20.1707 168.971 20.1707C171.6 20.1707 173.512 18.0194 173.512 14.8778C173.512 11.6679 171.703 9.58482 168.971 9.58482ZM168.561 18.6682C166.615 18.6682 165.351 17.1657 165.351 14.8778C165.351 12.5899 166.615 11.0873 168.561 11.0873C170.507 11.0873 171.771 12.5899 171.771 14.8778C171.771 17.1657 170.507 18.6682 168.561 18.6682ZM180.41 20.1707C182.528 20.1707 184.303 19.0439 184.884 17.0974L183.313 16.5852C182.835 17.8828 181.776 18.6682 180.41 18.6682C178.362 18.6682 177.098 17.1657 177.098 14.8778C177.098 12.5899 178.362 11.0873 180.41 11.0873C181.776 11.0873 182.801 11.8727 183.279 13.1704L184.884 12.6582C184.337 10.7117 182.562 9.58482 180.41 9.58482C177.44 9.58482 175.356 11.7362 175.356 14.8778C175.356 18.0194 177.44 20.1707 180.41 20.1707ZM194.923 9.75557H185.703V11.2581H189.46V20H191.167V11.2581H194.923V9.75557ZM203.563 14.7412C204.451 14.3314 204.997 13.546 204.997 12.4191C204.997 10.5751 203.597 9.75557 201.446 9.75557H196.972V20H201.821C203.973 20 205.27 19.0439 205.27 17.234C205.27 15.9705 204.656 15.151 203.563 14.7412ZM198.646 11.1898H201.582C202.641 11.1898 203.255 11.6679 203.255 12.5899C203.255 13.6485 202.743 14.0582 201.446 14.0582H198.646V11.1898ZM201.685 18.5658H198.646V15.4242H201.514C202.777 15.4242 203.529 16.0388 203.529 17.0291C203.529 17.9853 202.846 18.5658 201.685 18.5658ZM212.271 20.1707C215.276 20.1707 217.393 18.0194 217.393 14.8778C217.393 11.6679 215.378 9.58482 212.271 9.58482C209.266 9.58482 207.148 11.7362 207.148 14.8778C207.148 18.0877 209.163 20.1707 212.271 20.1707ZM212.271 18.6682C210.222 18.6682 208.89 17.1657 208.89 14.8778C208.89 12.5899 210.222 11.0873 212.271 11.0873C214.319 11.0873 215.651 12.5899 215.651 14.8778C215.651 17.1657 214.319 18.6682 212.271 18.6682ZM90.8399 45H92.6156V32.0237H90.8399V45ZM103.543 34.7556V38.9899H98.0793V34.7556H96.3719V45H98.0793V40.5607H103.543V45H105.25V34.7556H103.543ZM119.558 34.6531C118.329 34.6531 117.305 35.1653 116.588 36.1898V31.3408H114.88V36.0873C114.197 35.1312 113.173 34.6531 111.909 34.6531C109.587 34.6531 107.88 36.7703 107.88 39.8778C107.88 43.0536 109.485 45.1024 111.909 45.1024C113.139 45.1024 114.163 44.5561 114.88 43.5658V48.4148H116.588V43.6341C117.271 44.6244 118.295 45.1024 119.558 45.1024C121.881 45.1024 123.588 42.9853 123.588 39.8778C123.588 36.702 121.983 34.6531 119.558 34.6531ZM112.319 43.6682C110.68 43.6682 109.621 42.1657 109.621 39.8778C109.621 37.5899 110.68 36.0873 112.319 36.0873C113.924 36.0873 114.983 37.5899 114.983 39.8778C114.983 42.1657 113.924 43.6682 112.319 43.6682ZM119.183 43.6682C117.544 43.6682 116.485 42.1657 116.485 39.8778C116.485 37.5899 117.544 36.0873 119.183 36.0873C120.788 36.0873 121.846 37.5899 121.846 39.8778C121.846 42.1657 120.788 43.6682 119.183 43.6682ZM131.408 34.5848C129.905 34.5848 128.608 35.2678 127.788 36.463L127.652 34.7556H126.217V48.4148H127.925V43.5316C128.71 44.5902 129.939 45.1707 131.408 45.1707C134.037 45.1707 135.95 43.0194 135.95 39.8778C135.95 36.6679 134.14 34.5848 131.408 34.5848ZM130.998 43.6682C129.052 43.6682 127.788 42.1657 127.788 39.8778C127.788 37.5899 129.052 36.0873 130.998 36.0873C132.945 36.0873 134.208 37.5899 134.208 39.8778C134.208 42.1657 132.945 43.6682 130.998 43.6682ZM146.399 43.4975C145.921 43.4975 145.716 43.2926 145.716 42.8145V37.9313C145.716 35.8483 144.248 34.5848 141.891 34.5848C140.15 34.5848 138.681 35.2336 137.555 36.3605L138.613 37.4533C139.467 36.5654 140.628 36.0532 141.823 36.0532C143.189 36.0532 144.111 36.6337 144.111 37.5557C144.111 38.4094 143.462 38.5119 141.721 38.785C139.706 39.0924 137.315 39.6729 137.315 42.1316C137.315 43.9414 138.681 45.1707 140.662 45.1707C142.199 45.1707 143.565 44.4536 144.316 43.395C144.418 44.6244 144.931 45.0683 146.194 45.0683C146.433 45.0683 146.706 45.0341 146.775 45V43.4975H146.399ZM140.867 43.7365C139.706 43.7365 139.023 43.156 139.023 42.0974C139.023 40.5949 140.525 40.3559 141.96 40.1168C143.087 39.9461 143.701 39.8436 144.077 39.5704V41.1413C144.077 42.5413 142.574 43.7365 140.867 43.7365ZM153.263 45.1707C155.38 45.1707 157.156 44.0439 157.736 42.0974L156.165 41.5852C155.687 42.8828 154.629 43.6682 153.263 43.6682C151.214 43.6682 149.95 42.1657 149.95 39.8778C149.95 37.5899 151.214 36.0873 153.263 36.0873C154.629 36.0873 155.653 36.8727 156.131 38.1704L157.736 37.6582C157.19 35.7117 155.414 34.5848 153.263 34.5848C150.292 34.5848 148.209 36.7362 148.209 39.8778C148.209 43.0194 150.292 45.1707 153.263 45.1707ZM167.776 34.7556H158.556V36.2581H162.312V45H164.019V36.2581H167.776V34.7556ZM175.015 34.5848C173.512 34.5848 172.215 35.2678 171.395 36.463L171.259 34.7556H169.824V48.4148H171.532V43.5316C172.317 44.5902 173.547 45.1707 175.015 45.1707C177.644 45.1707 179.557 43.0194 179.557 39.8778C179.557 36.6679 177.747 34.5848 175.015 34.5848ZM174.605 43.6682C172.659 43.6682 171.395 42.1657 171.395 39.8778C171.395 37.5899 172.659 36.0873 174.605 36.0873C176.552 36.0873 177.815 37.5899 177.815 39.8778C177.815 42.1657 176.552 43.6682 174.605 43.6682ZM189.186 34.7556L186.113 43.7365L182.357 34.7556H180.479L185.294 45.7513C184.884 46.5708 184.44 47.0147 183.791 47.0147C182.801 47.0147 182.596 46.2293 182.63 45.4439L181.093 45.7171C181.059 47.2879 181.947 48.5856 183.791 48.5856C185.43 48.5856 186.455 47.1513 187.035 45.5464L190.962 34.7556H189.186ZM199.841 45H201.958L197.348 38.8875L201.753 34.7556H199.568L194.582 39.5022V34.7556H192.874V45H194.582V41.4827L196.119 40.0485L199.841 45ZM211.519 34.7556H202.299V36.2581H206.056V45H207.763V36.2581H211.519V34.7556ZM220.842 34.7556L217.768 43.7365L214.012 34.7556H212.134L216.949 45.7513C216.539 46.5708 216.095 47.0147 215.446 47.0147C214.456 47.0147 214.251 46.2293 214.285 45.4439L212.749 45.7171C212.715 47.2879 213.602 48.5856 215.446 48.5856C217.085 48.5856 218.11 47.1513 218.69 45.5464L222.617 34.7556H220.842ZM229.72 34.5848C228.218 34.5848 226.92 35.2678 226.101 36.463L225.964 34.7556H224.53V48.4148H226.237V43.5316C227.023 44.5902 228.252 45.1707 229.72 45.1707C232.35 45.1707 234.262 43.0194 234.262 39.8778C234.262 36.6679 232.452 34.5848 229.72 34.5848ZM229.311 43.6682C227.364 43.6682 226.101 42.1657 226.101 39.8778C226.101 37.5899 227.364 36.0873 229.311 36.0873C231.257 36.0873 232.52 37.5899 232.52 39.8778C232.52 42.1657 231.257 43.6682 229.311 43.6682ZM243.96 34.7556L238.565 42.7121V34.7556H236.891V45H238.701L244.097 37.0435V45H245.77V34.7556H243.96ZM99.4794 57.0237L95.9621 65.9705L91.2838 57.0237H89.2349L95.1767 67.7804C94.9035 68.4633 94.4255 68.6341 93.9132 68.6341C93.162 68.6341 92.8205 68.0877 92.7522 67.0291L91.1814 67.4047C91.2497 69.078 92.2741 70.1707 93.8791 70.1707C95.3816 70.1707 96.3377 69.1463 96.9183 67.7121L101.392 57.0237H99.4794ZM109.553 70H111.67L107.06 63.8875L111.465 59.7556H109.28L104.294 64.5022V59.7556H102.587V70H104.294V66.4827L105.831 65.0485L109.553 70ZM118.568 59.5848C117.066 59.5848 115.768 60.2678 114.948 61.463L114.812 59.7556H113.378V73.4148H115.085V68.5316C115.87 69.5902 117.1 70.1707 118.568 70.1707C121.198 70.1707 123.11 68.0194 123.11 64.8778C123.11 61.6679 121.3 59.5848 118.568 59.5848ZM118.158 68.6682C116.212 68.6682 114.948 67.1657 114.948 64.8778C114.948 62.5899 116.212 61.0873 118.158 61.0873C120.105 61.0873 121.368 62.5899 121.368 64.8778C121.368 67.1657 120.105 68.6682 118.158 68.6682ZM133.559 68.4975C133.081 68.4975 132.876 68.2926 132.876 67.8145V62.9313C132.876 60.8483 131.408 59.5848 129.052 59.5848C127.31 59.5848 125.842 60.2336 124.715 61.3605L125.773 62.4533C126.627 61.5654 127.788 61.0532 128.983 61.0532C130.349 61.0532 131.271 61.6337 131.271 62.5557C131.271 63.4094 130.622 63.5119 128.881 63.785C126.866 64.0924 124.476 64.6729 124.476 67.1316C124.476 68.9414 125.842 70.1707 127.822 70.1707C129.359 70.1707 130.725 69.4536 131.476 68.395C131.579 69.6244 132.091 70.0683 133.354 70.0683C133.593 70.0683 133.867 70.0341 133.935 70V68.4975H133.559ZM128.027 68.7365C126.866 68.7365 126.183 68.156 126.183 67.0974C126.183 65.5949 127.686 65.3559 129.12 65.1168C130.247 64.9461 130.861 64.8436 131.237 64.5704V66.1413C131.237 67.5413 129.735 68.7365 128.027 68.7365ZM134.754 58.253H136.667V56.3408H134.754V58.253ZM138.033 58.253H139.945V56.3408H138.033V58.253ZM136.496 70H138.203V59.7556H136.496V70ZM148.96 59.7556V63.9899H143.496V59.7556H141.789V70H143.496V65.5607H148.96V70H150.667V59.7556H148.96ZM161.151 59.7556L155.755 67.7121V59.7556H154.082V70H155.892L161.287 62.0435V70H162.961V59.7556H161.151Z" fill="black"/>
<rect y="5.27307" width="7.09633" height="67.0209" fill="#009EE0"/>
<rect x="13.4062" y="5.27295" width="7.09633" height="67.0209" fill="#22BBEA"/>
<rect x="26.5469" y="5.27295" width="7.09633" height="67.0209" fill="#A2DAF3"/>
<rect x="40.2109" y="5.27295" width="7.09633" height="67.0209" fill="#FFDD00"/>
<rect x="67.0215" y="5.27295" width="7.09633" height="67.0209" fill="#FFBB01"/>
<rect x="53.6172" y="5.27295" width="7.09633" height="33.5104" fill="#FFCC01"/>
</svg>
