<svg width="26" height="65" viewBox="0 0 26 65" fill="none" xmlns="http://www.w3.org/2000/svg">
    <path d="M19.3659 15.2419C20.3488 15.2419 21.2534 15.4321 22.0799 15.8125C24.5331 17.0495 25.9816 19.4003 26 22.0218V40.079C25.5398 42.9496 22.2599 42.169 22.1804 40.079V23.0287C21.8881 22.0564 20.0139 22.4595 19.9691 23.0287V62.1639C19.4925 66.1601 14.3377 64.9871 14.2062 62.0968V38.1323C13.8766 36.5866 11.7073 37.289 11.6598 38.1995C11.7518 46.165 11.7268 54.131 11.7268 62.0968C11.2127 66.0724 6.08298 65.0552 5.96393 62.1639L5.89696 23.0287C5.59652 22.0773 3.85982 22.4423 3.81957 23.0287V40.079C3.35936 42.9496 0.0794347 42.169 0 40.079V22.0218C0.0463724 19.5121 0.964555 16.9979 3.14949 15.8125C3.86429 15.4321 4.73541 15.2419 5.7629 15.2419L19.3659 15.2419ZM19.2984 7.04151C19.2984 10.5254 16.479 13.3497 13.0012 13.3497C9.52343 13.3497 6.70408 10.5254 6.70408 7.04151C6.70403 3.55767 9.52338 0.733398 13.0011 0.733398C16.479 0.733398 19.2984 3.55767 19.2984 7.04151Z" fill="#3398FF"/>
</svg>
