<!-- Generated by IcoMoon.io -->
<svg version="1.1" xmlns="http://www.w3.org/2000/svg" width="32" height="32" viewBox="0 0 32 32">
<title>calendar</title>
<path fill="#3398ff" d="M29.5 6h-5.5v-3.5h-2v3.5h-12v-3.5h-2v3.5h-5.5c-0.398 0.001-0.779 0.159-1.060 0.44s-0.439 0.662-0.44 1.060v21c0.001 0.398 0.159 0.779 0.44 1.060s0.662 0.439 1.060 0.44h27c0.398-0.001 0.779-0.159 1.060-0.44s0.439-0.662 0.44-1.060v-21c-0.001-0.398-0.159-0.779-0.44-1.060s-0.662-0.439-1.060-0.44zM29 28h-26v-20h5v2.5h2v-2.5h12v2.5h2v-2.5h5v20z"></path>
<path fill="#3398ff" d="M7 14h2v2h-2v-2z"></path>
<path fill="#3398ff" d="M12.5 14h2v2h-2v-2z"></path>
<path fill="#3398ff" d="M17.5 14h2v2h-2v-2z"></path>
<path fill="#3398ff" d="M23 14h2v2h-2v-2z"></path>
<path fill="#3398ff" d="M7 18.5h2v2h-2v-2z"></path>
<path fill="#3398ff" d="M12.5 18.5h2v2h-2v-2z"></path>
<path fill="#3398ff" d="M17.5 18.5h2v2h-2v-2z"></path>
<path fill="#3398ff" d="M23 18.5h2v2h-2v-2z"></path>
<path fill="#3398ff" d="M7 23h2v2h-2v-2z"></path>
<path fill="#3398ff" d="M12.5 23h2v2h-2v-2z"></path>
<path fill="#3398ff" d="M17.5 23h2v2h-2v-2z"></path>
<path fill="#3398ff" d="M23 23h2v2h-2v-2z"></path>
</svg>
