<!-- Generated by IcoMoon.io -->
<svg version="1.1" xmlns="http://www.w3.org/2000/svg" width="32" height="32" viewBox="0 0 32 32">
<title>call</title>
<path d="M1.196 5.151l4.228-4.224c0.516-0.516 1.207-0.806 1.937-0.806s1.421 0.286 1.937 0.806l4.553 4.545c0.516 0.516 0.806 1.211 0.806 1.941 0 0.734-0.286 1.421-0.806 1.941l-3.557 3.561c0.81 1.888 1.974 3.603 3.43 5.053 1.457 1.465 3.16 2.62 5.049 3.438l3.557-3.561c0.516-0.516 1.207-0.806 1.937-0.806 0.36-0.001 0.717 0.069 1.050 0.208s0.634 0.342 0.887 0.598l4.557 4.545c0.516 0.516 0.806 1.211 0.806 1.941 0 0.734-0.286 1.421-0.806 1.941l-4.224 4.224c-0.881 0.881-2.096 1.385-3.342 1.385-0.258 0-0.508-0.020-0.762-0.063-5.256-0.865-10.472-3.664-14.684-7.872-4.208-4.216-7.002-9.432-7.876-14.691-0.25-1.493 0.25-3.029 1.322-4.105zM2.689 8.783c0.774 4.68 3.291 9.348 7.082 13.139s8.455 6.308 13.135 7.082c0.587 0.099 1.191-0.099 1.62-0.524l4.148-4.148-4.398-4.402-4.791 4.799-0.857-0.318c-2.6-0.956-4.961-2.466-6.919-4.425s-3.467-4.32-4.422-6.921l-0.318-0.857 4.795-4.791-4.398-4.402-4.148 4.148c-0.429 0.429-0.627 1.032-0.528 1.62z"></path>
</svg>
