<?xml version="1.0" encoding="utf-8"?>
<!-- Generator: Adobe Illustrator 19.2.1, SVG Export Plug-In . SVG Version: 6.00 Build 0)  -->
<svg version="1.1" id="Layer_1" xmlns="http://www.w3.org/2000/svg" xmlns:xlink="http://www.w3.org/1999/xlink" x="0px" y="0px"
	 viewBox="0 0 958 108" style="enable-background:new 0 0 958 108;" xml:space="preserve">
<style type="text/css">
	.st0{display:none;fill:#F9FBFD;}
	.st1{fill:#2B6A8C;}
	.st2{font-family:'Roboto-Bold';}
	.st3{font-size:12px;}
</style>
<path class="st0" d="M19,3h920c8.8,0,16,7.2,16,16v70c0,8.8-7.2,16-16,16H19c-8.8,0-16-7.2-16-16V19C3,10.2,10.2,3,19,3z"/>
<path class="st1" d="M939,0H19C8.5,0,0,8.5,0,19v70c0,10.5,8.5,19,19,19h920c10.5,0,19-8.5,19-19V19C958,8.5,949.5,0,939,0z M844,6
	v96H726V6H844z M724,6v96H606V6H724z M604,6v96H486V6H604z M484,6v96H366V6H484z M364,6v96H246V6H364z M244,6v96H126V6H244z M6,89
	V19c0-7.2,5.8-13,13-13h105v96H19C11.8,102,6,96.2,6,89z M952,89c0,7.2-5.8,13-13,13h-93V6h93c7.2,0,13,5.8,13,13V89z"/>
<g id="_1">
	<text transform="matrix(1 0 0 1 63 83)" class="st1 st2 st3">1</text>
	<path class="st1" d="M83,52.7L83,52.7L83,52.7c0-0.7-0.2-1.4-0.4-2c0-0.2-0.1-0.3-0.1-0.5l-3.1-7.8l0-0.1C78.2,39,76.6,36,72.7,36
		H57.6c-4,0-5.5,3.1-6.6,6.3l-3.3,7.8c-0.5,0.8-0.7,1.6-0.7,2.6v2.4c0,0.4,0,0.7,0.1,1.1C47,56.4,47,56.6,47,56.9v7.2
		c0,1.1,0.9,1.9,1.9,1.9h4c1.1,0,1.9-0.9,1.9-1.9v-3.6h20.7v3.6c0,1.1,0.9,1.9,1.9,1.9h3.7c1.1,0,1.9-0.9,1.9-1.9v-7.2
		c0-0.2,0-0.5-0.1-0.7c0.1-0.4,0.1-0.7,0.1-1.1V52.7z M53.3,43.1c1.2-3.5,2.2-4.6,4.3-4.6h15.1c2,0,3.1,1.2,4.3,4.6l2.3,4.7
		c-0.7-0.3-1.6-0.4-2.4-0.4H53.2c-0.8,0-1.5,0.1-2.2,0.4L53.3,43.1z M55.3,56h-4.2c-0.8,0-1.4-0.6-1.4-1.4c0-0.8,0.6-1.4,1.4-1.4
		h4.2c0.8,0,1.4,0.6,1.4,1.4C56.7,55.4,56,56,55.3,56z M70,55.7h-9.7c-0.5,0-0.9-0.4-0.9-0.9c0-0.5,0.4-0.9,0.9-0.9H70
		c0.5,0,0.9,0.4,0.9,0.9C70.9,55.3,70.5,55.7,70,55.7z M78.8,56h-4.2c-0.8,0-1.4-0.6-1.4-1.4c0-0.8,0.6-1.4,1.4-1.4h4.2
		c0.8,0,1.4,0.6,1.4,1.4C80.1,55.4,79.5,56,78.8,56z"/>
</g>
<g id="_2">
	<path class="st1" d="M200,52.7c0-0.7-0.2-1.4-0.4-2c0-0.2-0.1-0.3-0.1-0.5l-3.1-7.8l0-0.1c-1.1-3.3-2.7-6.3-6.6-6.3h-15.1
		c-4,0-5.5,3.1-6.6,6.3l-3.3,7.8c-0.5,0.8-0.7,1.6-0.7,2.6v2.4c0,0.4,0,0.7,0.1,1.1c-0.1,0.2-0.1,0.4-0.1,0.7v7.2
		c0,1.1,0.9,1.9,1.9,1.9h4c1.1,0,1.9-0.9,1.9-1.9v-3.6h20.7v3.6c0,1.1,0.9,1.9,1.9,1.9h3.7c1.1,0,1.9-0.9,1.9-1.9v-7.2
		c0-0.2,0-0.5-0.1-0.7c0.1-0.4,0.1-0.7,0.1-1.1L200,52.7L200,52.7L200,52.7z M170.3,43.1c1.2-3.5,2.2-4.6,4.3-4.6h15.1
		c2,0,3.1,1.2,4.3,4.6l2.3,4.7c-0.7-0.3-1.6-0.4-2.4-0.4h-23.6c-0.8,0-1.5,0.1-2.2,0.4L170.3,43.1z M172.3,56h-4.2
		c-0.8,0-1.4-0.6-1.4-1.4c0-0.8,0.6-1.4,1.4-1.4h4.2c0.8,0,1.4,0.6,1.4,1.4C173.7,55.4,173,56,172.3,56z M187,55.7h-9.7
		c-0.5,0-0.9-0.4-0.9-0.9c0-0.5,0.4-0.9,0.9-0.9h9.7c0.5,0,0.9,0.4,0.9,0.9C187.9,55.3,187.5,55.7,187,55.7z M195.8,56h-4.2
		c-0.8,0-1.4-0.6-1.4-1.4c0-0.8,0.6-1.4,1.4-1.4h4.2c0.8,0,1.4,0.6,1.4,1.4C197.1,55.4,196.5,56,195.8,56z"/>
	<text transform="matrix(1 0 0 1 179 83)" class="st1 st2 st3">2</text>
</g>
<g id="_3">
	<text transform="matrix(1 0 0 1 302 83)" class="st1 st2 st3">3</text>
	<path class="st1" d="M323,52.7L323,52.7L323,52.7c0-0.7-0.2-1.4-0.4-2c0-0.2-0.1-0.3-0.1-0.5l-3.1-7.8l0-0.1
		c-1.1-3.3-2.7-6.3-6.6-6.3h-15.1c-4,0-5.5,3.1-6.6,6.3l-3.3,7.8c-0.5,0.8-0.7,1.6-0.7,2.6v2.4c0,0.4,0,0.7,0.1,1.1
		c-0.1,0.2-0.1,0.4-0.1,0.7v7.2c0,1.1,0.9,1.9,1.9,1.9h4c1.1,0,1.9-0.9,1.9-1.9v-3.6h20.7v3.6c0,1.1,0.9,1.9,1.9,1.9h3.7
		c1.1,0,1.9-0.9,1.9-1.9v-7.2c0-0.2,0-0.5-0.1-0.7c0.1-0.4,0.1-0.7,0.1-1.1V52.7z M293.3,43.1c1.2-3.5,2.2-4.6,4.3-4.6h15.1
		c2,0,3.1,1.2,4.3,4.6l2.3,4.7c-0.7-0.3-1.6-0.4-2.4-0.4h-23.6c-0.8,0-1.5,0.1-2.2,0.4L293.3,43.1z M295.3,56h-4.2
		c-0.8,0-1.4-0.6-1.4-1.4c0-0.8,0.6-1.4,1.4-1.4h4.2c0.8,0,1.4,0.6,1.4,1.4C296.7,55.4,296,56,295.3,56z M310,55.7h-9.7
		c-0.5,0-0.9-0.4-0.9-0.9c0-0.5,0.4-0.9,0.9-0.9h9.7c0.5,0,0.9,0.4,0.9,0.9C310.9,55.3,310.5,55.7,310,55.7z M318.8,56h-4.2
		c-0.8,0-1.4-0.6-1.4-1.4c0-0.8,0.6-1.4,1.4-1.4h4.2c0.8,0,1.4,0.6,1.4,1.4C320.1,55.4,319.5,56,318.8,56z"/>
</g>
<g id="_4">
	<path class="st1" d="M443,52.7c0-0.7-0.2-1.4-0.4-2c0-0.2-0.1-0.3-0.1-0.5l-3.1-7.8l0-0.1c-1.1-3.3-2.7-6.3-6.6-6.3h-15.1
		c-4,0-5.5,3.1-6.6,6.3l-3.3,7.8c-0.5,0.8-0.7,1.6-0.7,2.6v2.4c0,0.4,0,0.7,0.1,1.1c-0.1,0.2-0.1,0.4-0.1,0.7v7.2
		c0,1.1,0.9,1.9,1.9,1.9h4c1.1,0,1.9-0.9,1.9-1.9v-3.6h20.7v3.6c0,1.1,0.9,1.9,1.9,1.9h3.7c1.1,0,1.9-0.9,1.9-1.9v-7.2
		c0-0.2,0-0.5-0.1-0.7c0.1-0.4,0.1-0.7,0.1-1.1L443,52.7L443,52.7L443,52.7z M413.3,43.1c1.2-3.5,2.2-4.6,4.3-4.6h15.1
		c2,0,3.1,1.2,4.3,4.6l2.3,4.7c-0.7-0.3-1.6-0.4-2.4-0.4h-23.6c-0.8,0-1.5,0.1-2.2,0.4L413.3,43.1z M415.3,56h-4.2
		c-0.8,0-1.4-0.6-1.4-1.4c0-0.8,0.6-1.4,1.4-1.4h4.2c0.8,0,1.4,0.6,1.4,1.4C416.7,55.4,416,56,415.3,56z M430,55.7h-9.7
		c-0.5,0-0.9-0.4-0.9-0.9c0-0.5,0.4-0.9,0.9-0.9h9.7c0.5,0,0.9,0.4,0.9,0.9C430.9,55.3,430.5,55.7,430,55.7z M438.8,56h-4.2
		c-0.8,0-1.4-0.6-1.4-1.4c0-0.8,0.6-1.4,1.4-1.4h4.2c0.8,0,1.4,0.6,1.4,1.4C440.1,55.4,439.5,56,438.8,56z"/>
	<text transform="matrix(1 0 0 1 422 83)" class="st1 st2 st3">4</text>
</g>
<g id="_5">
	<text transform="matrix(1 0 0 1 542 83)" class="st1 st2 st3">5</text>
	<path class="st1" d="M565,52.7L565,52.7L565,52.7c0-0.7-0.2-1.4-0.4-2c0-0.2-0.1-0.3-0.1-0.5l-3.1-7.8l0-0.1
		c-1.1-3.3-2.7-6.3-6.6-6.3h-15.1c-4,0-5.5,3.1-6.6,6.3l-3.3,7.8c-0.5,0.8-0.7,1.6-0.7,2.6v2.4c0,0.4,0,0.7,0.1,1.1
		c-0.1,0.2-0.1,0.4-0.1,0.7v7.2c0,1.1,0.9,1.9,1.9,1.9h4c1.1,0,1.9-0.9,1.9-1.9v-3.6h20.7v3.6c0,1.1,0.9,1.9,1.9,1.9h3.7
		c1.1,0,1.9-0.9,1.9-1.9v-7.2c0-0.2,0-0.5-0.1-0.7c0.1-0.4,0.1-0.7,0.1-1.1V52.7z M535.3,43.1c1.2-3.5,2.2-4.6,4.3-4.6h15.1
		c2,0,3.1,1.2,4.3,4.6l2.3,4.7c-0.7-0.3-1.6-0.4-2.4-0.4h-23.6c-0.8,0-1.5,0.1-2.2,0.4L535.3,43.1z M537.3,56h-4.2
		c-0.8,0-1.4-0.6-1.4-1.4c0-0.8,0.6-1.4,1.4-1.4h4.2c0.8,0,1.4,0.6,1.4,1.4C538.7,55.4,538,56,537.3,56z M552,55.7h-9.7
		c-0.5,0-0.9-0.4-0.9-0.9c0-0.5,0.4-0.9,0.9-0.9h9.7c0.5,0,0.9,0.4,0.9,0.9C552.9,55.3,552.5,55.7,552,55.7z M560.8,56h-4.2
		c-0.8,0-1.4-0.6-1.4-1.4c0-0.8,0.6-1.4,1.4-1.4h4.2c0.8,0,1.4,0.6,1.4,1.4C562.1,55.4,561.5,56,560.8,56z"/>
</g>
<g id="_6">
	<text transform="matrix(1 0 0 1 662 83)" class="st1 st2 st3">6</text>
	<path class="st1" d="M682,52.7L682,52.7L682,52.7c0-0.7-0.2-1.4-0.4-2c0-0.2-0.1-0.3-0.1-0.5l-3.1-7.8l0-0.1
		c-1.1-3.3-2.7-6.3-6.6-6.3h-15.1c-4,0-5.5,3.1-6.6,6.3l-3.3,7.8c-0.5,0.8-0.7,1.6-0.7,2.6v2.4c0,0.4,0,0.7,0.1,1.1
		c-0.1,0.2-0.1,0.4-0.1,0.7v7.2c0,1.1,0.9,1.9,1.9,1.9h4c1.1,0,1.9-0.9,1.9-1.9v-3.6h20.7v3.6c0,1.1,0.9,1.9,1.9,1.9h3.7
		c1.1,0,1.9-0.9,1.9-1.9v-7.2c0-0.2,0-0.5-0.1-0.7c0.1-0.4,0.1-0.7,0.1-1.1V52.7z M652.3,43.1c1.2-3.5,2.2-4.6,4.3-4.6h15.1
		c2,0,3.1,1.2,4.3,4.6l2.3,4.7c-0.7-0.3-1.6-0.4-2.4-0.4h-23.6c-0.8,0-1.5,0.1-2.2,0.4L652.3,43.1z M654.3,56h-4.2
		c-0.8,0-1.4-0.6-1.4-1.4c0-0.8,0.6-1.4,1.4-1.4h4.2c0.8,0,1.4,0.6,1.4,1.4C655.7,55.4,655,56,654.3,56z M669,55.7h-9.7
		c-0.5,0-0.9-0.4-0.9-0.9c0-0.5,0.4-0.9,0.9-0.9h9.7c0.5,0,0.9,0.4,0.9,0.9C669.9,55.3,669.5,55.7,669,55.7z M677.8,56h-4.2
		c-0.8,0-1.4-0.6-1.4-1.4c0-0.8,0.6-1.4,1.4-1.4h4.2c0.8,0,1.4,0.6,1.4,1.4C679.1,55.4,678.5,56,677.8,56z"/>
</g>
<g id="_7">
	<text transform="matrix(1 0 0 1 781 83)" class="st1 st2 st3">7</text>
	<path class="st1" d="M802,52.7L802,52.7L802,52.7c0-0.7-0.2-1.4-0.4-2c0-0.2-0.1-0.3-0.1-0.5l-3.1-7.8l0-0.1
		c-1.1-3.3-2.7-6.3-6.6-6.3h-15.1c-4,0-5.5,3.1-6.6,6.3l-3.3,7.8c-0.5,0.8-0.7,1.6-0.7,2.6v2.4c0,0.4,0,0.7,0.1,1.1
		c-0.1,0.2-0.1,0.4-0.1,0.7v7.2c0,1.1,0.9,1.9,1.9,1.9h4c1.1,0,1.9-0.9,1.9-1.9v-3.6h20.7v3.6c0,1.1,0.9,1.9,1.9,1.9h3.7
		c1.1,0,1.9-0.9,1.9-1.9v-7.2c0-0.2,0-0.5-0.1-0.7c0.1-0.4,0.1-0.7,0.1-1.1V52.7z M772.3,43.1c1.2-3.5,2.2-4.6,4.3-4.6h15.1
		c2,0,3.1,1.2,4.3,4.6l2.3,4.7c-0.7-0.3-1.6-0.4-2.4-0.4h-23.6c-0.8,0-1.5,0.1-2.2,0.4L772.3,43.1z M774.3,56h-4.2
		c-0.8,0-1.4-0.6-1.4-1.4c0-0.8,0.6-1.4,1.4-1.4h4.2c0.8,0,1.4,0.6,1.4,1.4C775.7,55.4,775,56,774.3,56z M789,55.7h-9.7
		c-0.5,0-0.9-0.4-0.9-0.9c0-0.5,0.4-0.9,0.9-0.9h9.7c0.5,0,0.9,0.4,0.9,0.9C789.9,55.3,789.5,55.7,789,55.7z M797.8,56h-4.2
		c-0.8,0-1.4-0.6-1.4-1.4c0-0.8,0.6-1.4,1.4-1.4h4.2c0.8,0,1.4,0.6,1.4,1.4C799.1,55.4,798.5,56,797.8,56z"/>
</g>
<g id="_8">
	<path class="st1" d="M918,52.7c0-0.7-0.2-1.4-0.4-2c0-0.2-0.1-0.3-0.1-0.5l-3.1-7.8l0-0.1c-1.1-3.3-2.7-6.3-6.6-6.3h-15.1
		c-4,0-5.5,3.1-6.6,6.3l-3.3,7.8c-0.5,0.8-0.7,1.6-0.7,2.6v2.4c0,0.4,0,0.7,0.1,1.1c-0.1,0.2-0.1,0.4-0.1,0.7v7.2
		c0,1.1,0.9,1.9,1.9,1.9h4c1.1,0,1.9-0.9,1.9-1.9v-3.6h20.7v3.6c0,1.1,0.9,1.9,1.9,1.9h3.7c1.1,0,1.9-0.9,1.9-1.9v-7.2
		c0-0.2,0-0.5-0.1-0.7c0.1-0.4,0.1-0.7,0.1-1.1L918,52.7L918,52.7L918,52.7z M888.3,43.1c1.2-3.5,2.2-4.6,4.3-4.6h15.1
		c2,0,3.1,1.2,4.3,4.6l2.3,4.7c-0.7-0.3-1.6-0.4-2.4-0.4h-23.6c-0.8,0-1.5,0.1-2.2,0.4L888.3,43.1z M890.3,56h-4.2
		c-0.8,0-1.4-0.6-1.4-1.4c0-0.8,0.6-1.4,1.4-1.4h4.2c0.8,0,1.4,0.6,1.4,1.4C891.7,55.4,891,56,890.3,56z M905,55.7h-9.7
		c-0.5,0-0.9-0.4-0.9-0.9c0-0.5,0.4-0.9,0.9-0.9h9.7c0.5,0,0.9,0.4,0.9,0.9C905.9,55.3,905.5,55.7,905,55.7z M913.8,56h-4.2
		c-0.8,0-1.4-0.6-1.4-1.4c0-0.8,0.6-1.4,1.4-1.4h4.2c0.8,0,1.4,0.6,1.4,1.4C915.1,55.4,914.5,56,913.8,56z"/>
	<text transform="matrix(1 0 0 1 897 83)" class="st1 st2 st3">8</text>
</g>
</svg>
