<svg width="42" height="37" viewBox="0 0 42 37" fill="none" xmlns="http://www.w3.org/2000/svg">
<g clip-path="url(#clip0)">
<path d="M33.4775 36.0702C25.1588 36.0702 16.891 36.0702 8.57231 36.0702C8.55537 35.9177 8.53843 35.7821 8.53843 35.6297C8.53843 26.6163 8.53843 17.62 8.52148 8.60666C8.52148 8.21698 8.62314 8.09839 9.01281 8.09839C17.0096 8.11533 25.0233 8.11533 33.0201 8.09839C33.4436 8.09839 33.4606 8.28475 33.4606 8.60666C33.4606 16.9423 33.4606 25.261 33.4606 33.5966C33.4775 34.4098 33.4775 35.223 33.4775 36.0702ZM31.0886 16.7051C29.6147 16.7051 28.1746 16.7051 26.7345 16.7051C26.7345 20.3307 26.7345 23.9225 26.7345 27.5312C28.2085 27.5312 29.6316 27.5312 31.0886 27.5312C31.0886 23.9056 31.0886 20.3138 31.0886 16.7051ZM12.5707 14.1807C12.5876 14.367 12.5876 14.4687 12.6215 14.5365C13.0959 15.5022 13.4178 16.5695 14.2141 17.3489C15.3154 18.4332 16.3997 19.5175 17.484 20.6018C17.9075 21.0254 18.1617 21.0254 18.5852 20.6018C19.6018 19.6022 20.6014 18.5857 21.601 17.5691C22.0076 17.1625 22.0076 16.8745 21.584 16.451C20.7708 15.6377 19.9067 14.8584 19.1443 13.9774C18.1955 12.8931 16.9926 12.2154 15.705 11.6563C15.2984 11.4869 14.9426 11.5207 14.6207 11.8426C14.0277 12.4356 13.4348 13.0117 12.8587 13.6216C12.7062 13.8079 12.6385 14.0621 12.5707 14.1807ZM12.6046 32.6309C14.3327 32.6309 16.01 32.6309 17.6873 32.6309C17.9753 32.6309 17.9245 32.4106 17.9245 32.2412C17.9245 30.7164 17.9245 29.1916 17.9245 27.6668C17.9245 27.5482 17.9075 27.4296 17.8906 27.294C16.0947 27.294 14.3496 27.294 12.5876 27.294C12.6046 29.0899 12.6046 30.835 12.6046 32.6309Z" fill="#C4C4C4"/>
<path d="M36.1882 36.0871C36.1712 35.9177 36.1543 35.7991 36.1543 35.6805C36.1543 26.6842 36.1543 17.6708 36.1543 8.67448C36.1543 8.13232 36.1543 8.13232 36.7303 8.13232C37.7638 8.13232 38.7973 8.13232 39.8138 8.13232C41.1523 8.13232 41.9994 8.9625 41.9994 10.3348C41.9994 14.6721 41.9994 18.9923 41.9994 23.3296C41.9994 26.8705 41.9994 30.4115 41.9994 33.9524C41.9994 34.9859 41.4234 35.7822 40.5424 36.0533C40.4576 36.0702 40.3729 36.1041 40.2882 36.1041C38.9498 36.0871 37.5944 36.0871 36.1882 36.0871Z" fill="#C4C4C4"/>
<path d="M5.86204 36.0701C4.42194 36.0701 3.04962 36.121 1.67729 36.0532C0.72852 36.0024 0.0169423 35.0366 0 33.9693C0 31.4618 0 28.9374 0 26.4299C0 21.0931 0 15.7563 0 10.4195C0 10.1823 0.0169423 9.94508 0.0677693 9.70788C0.304962 8.69134 1.01654 8.11531 2.06696 8.09836C3.18516 8.08142 4.30335 8.09836 5.4046 8.08142C5.76039 8.08142 5.86204 8.18307 5.86204 8.53886C5.8451 11.9612 5.86204 15.3666 5.86204 18.789C5.86204 24.3122 5.86204 29.8184 5.86204 35.3416C5.86204 35.5788 5.86204 35.816 5.86204 36.0701Z" fill="#C4C4C4"/>
<path d="M15.2658 6.74308C14.3678 6.74308 13.5207 6.74308 12.6228 6.74308C12.6228 6.35341 12.6228 5.96373 12.6228 5.591C12.6228 4.64223 12.6058 3.69346 12.6228 2.76163C12.6397 1.25377 13.8426 0.0339215 15.3505 0.0169792C19.1117 3.68821e-05 22.8898 3.68821e-05 26.651 0.0169792C28.1589 0.0169792 29.3618 1.25377 29.3787 2.74469C29.3957 3.96454 29.3787 5.20133 29.3787 6.42117C29.3787 6.52283 29.3618 6.60754 29.3448 6.72614C28.4808 6.72614 27.6506 6.72614 26.7357 6.72614C26.7357 6.16704 26.7527 5.62489 26.7357 5.08273C26.7188 4.04925 26.1258 3.28685 25.177 3.08354C25.0076 3.04965 24.8212 3.03271 24.6349 3.03271C22.1952 3.03271 19.7555 3.03271 17.3158 3.03271C16.0959 3.03271 15.2827 3.84594 15.2488 5.08273C15.2488 5.62489 15.2658 6.16704 15.2658 6.74308Z" fill="#C4C4C4"/>
<path d="M4.54122 7.336C4.50733 7.30211 4.50733 7.28517 4.50733 7.26823C4.42262 6.16698 4.42262 5.82813 5.74412 5.86202C6.87926 5.8959 8.03134 5.86202 9.16647 5.86202C10.0305 5.86202 10.1661 6.0145 10.1661 6.87856C10.1661 7.01409 10.1661 7.14963 10.1661 7.31906C8.26853 7.336 6.40487 7.336 4.54122 7.336Z" fill="#C4C4C4"/>
<path d="M31.8684 7.33607C31.7329 6.03151 31.8684 5.87903 33.1052 5.87903C34.2403 5.87903 35.3924 5.87903 36.5275 5.87903C37.3577 5.87903 37.5102 6.03151 37.5102 6.86168C37.5102 6.99722 37.5102 7.1497 37.5102 7.31913C35.6296 7.33607 33.7659 7.33607 31.8684 7.33607Z" fill="#C4C4C4"/>
<path d="M15.1797 13.4183C15.6033 13.4183 15.976 13.7911 15.9591 14.1977C15.9591 14.6212 15.5864 14.977 15.1628 14.977C14.7562 14.9601 14.4173 14.6212 14.4004 14.2146C14.4004 13.7911 14.7562 13.4183 15.1797 13.4183Z" fill="#C4C4C4"/>
</g>
<defs>
<clipPath id="clip0">
<rect width="42" height="36.0871" fill="white"/>
</clipPath>
</defs>
</svg>
