<svg width="33" height="36" viewBox="0 0 33 36" fill="none" xmlns="http://www.w3.org/2000/svg">
<g clip-path="url(#clip0)">
<path d="M17.9064 14.6987C18.1083 16.2937 18.3102 17.808 18.5122 19.3627C18.7544 19.3627 18.9563 19.3627 19.1583 19.3627C22.1667 19.3425 25.1751 19.3223 28.1835 19.3021C29.2536 19.3021 29.5161 19.5242 29.6978 20.554C30.4852 25.0565 31.2929 29.559 32.0803 34.0413C32.262 35.0105 31.9188 35.4951 30.9496 35.6566C30.6871 35.697 30.4247 35.7576 30.1622 35.7979C29.294 35.9595 28.7892 35.6162 28.6277 34.748C28.1431 32.103 27.6787 29.4581 27.2143 26.8131C27.0528 25.8641 26.8711 24.9353 26.7096 23.9864C26.1644 23.9864 25.6395 23.9662 25.1347 23.9864C20.9754 24.1277 16.7959 24.2892 12.6367 24.4306C11.6675 24.471 11.3041 24.1681 11.1829 23.2191C10.8599 20.7559 10.557 18.2926 10.2542 15.8092C10.1128 14.5573 9.91092 13.3055 9.87054 12.0537C9.85035 11.2663 10.0523 10.4586 10.2542 9.69138C10.4964 8.70203 11.4858 7.8944 12.6367 7.99536C13.0203 8.01555 13.4039 7.99536 13.7875 7.99536C15.5037 7.99536 16.6344 8.64146 17.1392 10.2567C17.442 11.2259 18.0478 11.5893 18.8958 11.9124C21.2177 12.8007 23.5194 13.7497 25.8212 14.6583C26.6894 15.0015 26.8711 15.4457 26.5279 16.3139C25.9625 17.7273 25.7404 17.8282 24.3675 17.2629C22.3888 16.4754 20.4101 15.688 18.4314 14.9006C18.2699 14.8198 18.1285 14.7794 17.9064 14.6987Z" fill="#C4C4C4"/>
<path d="M26.7902 26.7123C25.2759 31.5581 20.2888 36.2222 13.4442 36.0001C6.82163 35.778 1.28938 30.8716 0.360609 24.4712C-0.547972 18.1717 2.52101 12.8413 7.16487 10.4185C7.24563 11.2059 7.34659 11.953 7.40716 12.7202C7.40716 12.8615 7.28601 13.0634 7.16487 13.1442C3.55074 16.0113 2.03644 19.7466 2.92483 24.2491C3.83341 28.8122 6.70049 31.7398 11.203 32.9513C16.0892 34.2637 21.3185 31.9014 23.7212 27.3786C23.9231 26.995 24.1452 26.8537 24.5692 26.8537C25.2961 26.8335 26.023 26.7729 26.7902 26.7123Z" fill="#C4C4C4"/>
<path d="M12.7384 6.80426C10.8607 6.80426 9.32617 5.26977 9.32617 3.41223C9.34636 1.5143 10.8607 0 12.7384 0C14.6161 0 16.1506 1.49411 16.1708 3.37185C16.1708 5.26977 14.6565 6.80426 12.7384 6.80426Z" fill="#C4C4C4"/>
</g>
<defs>
<clipPath id="clip0">
<rect width="31.9215" height="36" fill="white" transform="translate(0.199219)"/>
</clipPath>
</defs>
</svg>
