<svg width="39" height="37" viewBox="0 0 39 37" fill="none" xmlns="http://www.w3.org/2000/svg">
<g clip-path="url(#clip0)">
<path d="M7.88844 16.1196C15.3378 16.1196 22.7409 16.1196 30.1903 16.1196C30.1903 16.6429 30.1903 17.1662 30.1903 17.7357C31.083 17.5818 31.9141 17.4433 32.7606 17.2894C33.4532 17.1662 34.1458 17.0431 34.8538 17.197C36.4083 17.5356 37.4395 18.9516 37.0701 20.5369C36.593 22.5839 35.8696 24.5694 34.5152 26.2316C33.7918 27.1397 32.8991 27.8631 31.7294 28.1094C31.2061 28.2171 30.6674 28.2017 30.1287 28.2017C29.8825 28.2017 29.7439 28.2787 29.6362 28.5095C28.7743 30.418 27.3737 31.6801 25.2959 32.1111C24.9419 32.188 24.5571 32.2188 24.1877 32.2188C20.8786 32.2342 17.5695 32.2342 14.2604 32.2188C10.6281 32.2034 7.87305 29.4022 7.87305 25.7853C7.87305 22.6763 7.87305 19.5826 7.87305 16.4736C7.88844 16.3967 7.88844 16.2735 7.88844 16.1196ZM30.2365 20.4753C30.2365 22.1838 30.2365 23.846 30.2365 25.4929C31.0522 25.6776 31.6986 25.4005 32.1757 24.8157C32.6067 24.277 33.0223 23.6921 33.3301 23.0611C33.6995 22.3377 33.9457 21.5681 34.2382 20.8293C34.3151 20.6446 34.3767 20.4599 34.4075 20.2753C34.4844 19.9213 34.3767 19.7673 34.0073 19.8289C32.7606 20.029 31.4985 20.2599 30.2365 20.4753Z" fill="#C4C4C4"/>
<path d="M0.931641 33.8042C13.5524 33.8042 26.0809 33.8042 38.6862 33.8042C38.5477 34.0197 38.4708 34.2198 38.3322 34.3737C37.9321 34.82 37.5165 35.2664 37.0856 35.6819C36.1929 36.5438 35.1617 36.9132 33.8688 36.8978C24.2185 36.8517 14.5836 36.867 4.93335 36.8824C4.47162 36.8824 4.05605 36.7747 3.65588 36.5284C2.76319 35.959 1.97824 35.2664 1.31642 34.4352C1.19329 34.2659 1.08555 34.0658 0.931641 33.8042Z" fill="#C4C4C4"/>
<path d="M16.5391 14.3496C15.4925 13.3646 14.5998 12.2564 14.1534 10.8712C13.7379 9.60911 13.9841 8.50095 14.9999 7.59286C16.0312 6.68478 16.4313 5.53044 16.2928 4.17602C16.1851 3.14481 15.8003 2.19056 15.3078 1.29787C15.2462 1.19013 15.2 1.09778 15.1385 0.990042C15.1385 0.990042 15.1385 0.974651 15.1692 0.913086C15.3539 1.067 15.5232 1.20552 15.6925 1.34404C16.5698 2.1136 17.401 2.94472 18.0012 3.94515C18.1859 4.25298 18.3552 4.57619 18.4784 4.9148C18.8939 6.05375 18.6477 6.93104 17.6626 7.79295C16.5852 8.73181 15.9234 9.87076 15.8618 11.3175C15.8157 12.2564 16.0312 13.1491 16.4005 14.011C16.4313 14.1341 16.4929 14.2419 16.5391 14.3496Z" fill="#C4C4C4"/>
<path d="M21.418 0.913086C22.5877 1.89812 23.6651 2.94472 24.3577 4.31454C24.5424 4.66854 24.6655 5.05332 24.7579 5.4381C24.9426 6.23844 24.7117 6.93104 24.1422 7.51591C24.0653 7.59286 24.0037 7.66982 23.9267 7.73138C21.9259 9.4552 21.6796 11.7793 22.6185 14.0264C22.6647 14.1341 22.7108 14.2573 22.7416 14.3804C21.6796 13.2876 20.7562 12.1025 20.3868 10.5941C20.0943 9.43981 20.3868 8.43938 21.2795 7.62365C22.2645 6.71557 22.6647 5.59201 22.5415 4.26837C22.4492 3.20637 22.0644 2.22134 21.5719 1.29787C21.5103 1.19013 21.4642 1.09778 21.4026 0.990042C21.3872 0.990042 21.4026 0.974651 21.418 0.913086Z" fill="#C4C4C4"/>
</g>
<defs>
<clipPath id="clip0">
<rect width="37.7546" height="36" fill="white" transform="translate(0.931641 0.913086)"/>
</clipPath>
</defs>
</svg>
