<?xml version="1.0" encoding="utf-8"?>
<!-- Generator: Adobe Illustrator 23.1.0, SVG Export Plug-In . SVG Version: 6.00 Build 0)  -->
<svg version="1.1" id="Layer_1" xmlns="http://www.w3.org/2000/svg" xmlns:xlink="http://www.w3.org/1999/xlink" x="0px" y="0px"
	 viewBox="0 0 27 8" style="enable-background:new 0 0 27 8;" xml:space="preserve">
<style type="text/css">
	.st0{fill:#FFFFFF;}
</style>
<path class="st0" d="M24.7,6.3c0,0.6,0.5,1.1,1.1,1.1s1.1-0.5,1.1-1.1H24.7z M1.2,6.3c0,0.6,0.5,1.1,1.1,1.1s1.1-0.5,1.1-1.1H1.2z
	 M26.8,6.3V3.6h-2.1v2.7H26.8z M23.6,0.4H4.4v2.1h19.2V0.4z M1.2,3.6v2.7h2.1V3.6H1.2z M4.4,0.4c-1.8,0-3.2,1.5-3.2,3.2h2.1
	c0-0.6,0.5-1.1,1.1-1.1V0.4z M26.8,3.6c0-1.8-1.4-3.2-3.2-3.2v2.1c0.6,0,1.1,0.5,1.1,1.1L26.8,3.6z"/>
</svg>
