<svg width="8" height="27" viewBox="0 0 8 27" fill="none" xmlns="http://www.w3.org/2000/svg">
<path d="M5.99922 2.93337C6.58832 2.93337 7.06589 2.4558 7.06589 1.8667C7.06589 1.2776 6.58832 0.800032 5.99922 0.800032V2.93337ZM5.99922 26.4C6.58832 26.4 7.06589 25.9225 7.06589 25.3334C7.06589 24.7443 6.58832 24.2667 5.99922 24.2667V26.4ZM5.99922 0.800032H3.33255V2.93337H5.99922V0.800032ZM0.132552 4.00003V23.2H2.26589V4.00003H0.132552ZM3.33255 26.4H5.99922V24.2667H3.33255V26.4ZM0.132552 23.2C0.132552 24.9673 1.56524 26.4 3.33255 26.4V24.2667C2.74345 24.2667 2.26589 23.7891 2.26589 23.2H0.132552ZM3.33255 0.800032C1.56524 0.800032 0.132552 2.23272 0.132552 4.00003H2.26589C2.26589 3.41093 2.74345 2.93337 3.33255 2.93337V0.800032Z" fill="white"/>
</svg>
