<svg width="8" height="27" viewBox="0 0 8 27" fill="none" xmlns="http://www.w3.org/2000/svg">
<path d="M1.99883 2.93337C1.40972 2.93337 0.932161 2.4558 0.932161 1.8667C0.932161 1.2776 1.40972 0.800032 1.99883 0.800032V2.93337ZM1.99883 26.4C1.40972 26.4 0.932161 25.9225 0.932161 25.3334C0.932161 24.7443 1.40972 24.2667 1.99883 24.2667V26.4ZM1.99883 0.800032H4.6655V2.93337H1.99883V0.800032ZM7.86549 4.00003V23.2H5.73216V4.00003H7.86549ZM4.66549 26.4H1.99883V24.2667H4.66549V26.4ZM7.86549 23.2C7.86549 24.9673 6.43281 26.4 4.66549 26.4V24.2667C5.2546 24.2667 5.73216 23.7891 5.73216 23.2H7.86549ZM4.6655 0.800032C6.43281 0.800032 7.86549 2.23272 7.86549 4.00003H5.73216C5.73216 3.41093 5.2546 2.93337 4.6655 2.93337V0.800032Z" fill="white"/>
</svg>
