<?xml version="1.0" encoding="utf-8"?>
<!-- Generator: Adobe Illustrator 23.1.0, SVG Export Plug-In . SVG Version: 6.00 Build 0)  -->
<svg version="1.1" id="Layer_1" xmlns="http://www.w3.org/2000/svg" xmlns:xlink="http://www.w3.org/1999/xlink" x="0px" y="0px"
	 viewBox="0 0 27 8" style="enable-background:new 0 0 27 8;" xml:space="preserve">
<style type="text/css">
	.st0{fill:#FFFFFF;}
</style>
<path class="st0" d="M3.2,1.6c0-0.6-0.5-1.1-1.1-1.1s-1,0.5-1,1.1H3.2z M26.7,1.6c0-0.6-0.5-1.1-1.1-1.1s-1,0.5-1,1.1H26.7z
	 M1.1,1.6v2.7h2.1V1.6H1.1z M4.3,7.5h19.2V5.3H4.3V7.5z M26.7,4.3V1.6h-2.1v2.7H26.7z M23.5,7.5c1.8,0,3.2-1.4,3.2-3.2h-2.1
	c0,0.6-0.5,1.1-1.1,1.1V7.5z M1.1,4.3c0,1.8,1.4,3.2,3.2,3.2V5.3c-0.6,0-1.1-0.5-1.1-1.1L1.1,4.3L1.1,4.3z"/>
</svg>
