<?xml version="1.0" encoding="utf-8"?>
<!-- Generator: Adobe Illustrator 23.1.0, SVG Export Plug-In . SVG Version: 6.00 Build 0)  -->
<svg version="1.1" id="Layer_1" xmlns="http://www.w3.org/2000/svg" xmlns:xlink="http://www.w3.org/1999/xlink" x="0px" y="0px"
	 viewBox="0 0 84 99" style="enable-background:new 0 0 84 99;" xml:space="preserve">
<style type="text/css">
	.st0{fill:#C4C4C4;}
</style>
<rect x="2" class="st0" width="20" height="8"/>
<rect x="-1" class="st0" width="3" height="99"/>
<rect x="82" class="st0" width="3" height="99"/>
<rect x="62" class="st0" width="20" height="8"/>
<rect x="2" y="91" class="st0" width="30" height="8"/>
<rect x="52" y="91" class="st0" width="30" height="8"/>
<g>
	<g id="lux_20">
		<path id="Shape_42_copy_3" d="M35.5,26.9c0,1.7,0,3.5-0.2,5.2h13.2c0-1.7,0-3.5-0.2-5.2H35.5z M35.3,33.6c0,3.8,2.2,7.7,6.7,7.7
			s6.7-3.8,6.7-7.7H35.3z M34.5,43.4c-2.8,0-5,2.2-5,5c0,0.1,0,0.1,0,0.2V58c0,1,2,3.8,3.2,3.8H36l12.5-18.4h-3.7L42,46.9l-3-3.7
			L34.5,43.4z M50.7,43.6L38.3,62H51c2.5,0,3.5-3.2,3.5-4.3v-9.2c0-2-0.5-4.5-2.2-4.8C52.2,43.4,51.2,43.6,50.7,43.6L50.7,43.6z"/>
	</g>
</g>
</svg>
