<?xml version="1.0" encoding="utf-8"?>
<!-- Generator: Adobe Illustrator 23.1.0, SVG Export Plug-In . SVG Version: 6.00 Build 0)  -->
<svg version="1.1" id="Layer_1" xmlns="http://www.w3.org/2000/svg" xmlns:xlink="http://www.w3.org/1999/xlink" x="0px" y="0px"
	 viewBox="0 0 131 99" style="enable-background:new 0 0 131 99;" xml:space="preserve">
<style type="text/css">
	.st0{fill:#C4C4C4;}
</style>
<rect x="3" class="st0" width="20" height="8"/>
<rect class="st0" width="3" height="99"/>
<rect x="128" class="st0" width="3" height="99"/>
<rect x="108" class="st0" width="20" height="8"/>
<rect x="3" y="91" class="st0" width="30" height="8"/>
<rect x="98" y="91" class="st0" width="30" height="8"/>
<path d="M81.2,58l0.9,1.9c0.3,0.5,0,1.1-0.5,1.4l-4.3,2.1c-1,0.5-2.3,0.1-2.8-1l-4.1-8.7h-9.1c-1,0-1.9-0.8-2.1-1.8
	c-2.2-15.5-2.1-14.5-2.1-14.9c0-2.4,2-4.3,4.4-4.2c2.2,0.1,3.9,1.9,4,4.1c0.1,2.2-1.5,3.9-3.6,4.3l0.3,2.1h8.5c0.6,0,1,0.5,1,1v2.1
	c0,0.6-0.5,1-1,1h-7.9l0.3,2.1h8.6c0.8,0,1.5,0.5,1.9,1.2l3.8,8l2.4-1.2C80.3,57.2,80.9,57.5,81.2,58L81.2,58z M69.1,55.8h-1.6
	c-0.5,3.5-3.6,6.3-7.2,6.3c-4,0-7.3-3.3-7.3-7.3c0-2.7,1.5-5.1,3.7-6.4c-0.2-1.7-0.4-3.1-0.6-4.3c-4.2,1.7-7.2,5.8-7.2,10.7
	c0,6.3,5.2,11.5,11.5,11.5c4.7,0,8.7-2.8,10.5-6.9L69.1,55.8z"/>
</svg>
