<!-- Generated by IcoMoon.io -->
<svg version="1.1" xmlns="http://www.w3.org/2000/svg" width="11" height="32" viewBox="0 0 11 32">
<title>direction-arrow-down</title>
<path fill="#3398ff" d="M5.073 31.796c0.272 0.272 0.712 0.272 0.984 0l4.427-4.427c0.272-0.272 0.272-0.712 0-0.984s-0.712-0.272-0.984 0l-3.935 3.935-3.935-3.935c-0.272-0.272-0.712-0.272-0.984 0s-0.272 0.712 0 0.984l4.427 4.427zM4.87 1.391v29.913h1.391v-29.913h-1.391z"></path>
<path fill="#3398ff" d="M5.565 0c1.537 0 2.783 1.246 2.783 2.783s-1.246 2.783-2.783 2.783c-1.537 0-2.783-1.246-2.783-2.783s1.246-2.783 2.783-2.783z"></path>
</svg>
