<!-- Generated by IcoMoon.io -->
<svg version="1.1" xmlns="http://www.w3.org/2000/svg" width="32" height="32" viewBox="0 0 32 32">
<title>facebook</title>
<path fill="none" stroke="#000" stroke-linejoin="miter" stroke-linecap="butt" stroke-miterlimit="4" stroke-width="2.1333" d="M3.301 3.302l0.002-0.002c1.051-1.053 2.41-1.628 4.447-1.927 2.073-0.304 4.71-0.307 8.248-0.307s6.175 0.003 8.249 0.306c2.038 0.298 3.399 0.872 4.453 1.923 1.054 1.054 1.628 2.415 1.927 4.453 0.305 2.074 0.307 4.71 0.307 8.248s-0.003 6.174-0.307 8.248c-0.299 2.038-0.873 3.399-1.928 4.453s-2.417 1.628-4.455 1.928c-2.075 0.305-4.711 0.307-8.246 0.307s-6.172-0.003-8.245-0.307c-2.038-0.299-3.399-0.874-4.449-1.927l-0.001-0.001c-1.054-1.054-1.629-2.417-1.928-4.455-0.304-2.075-0.307-4.711-0.307-8.246s0.003-6.172 0.307-8.245c0.299-2.038 0.874-3.399 1.927-4.449z"></path>
<path d="M14.138 24.889v-7.554h-2.582v-3.002h2.582v-2.365c0-2.57 1.603-3.968 3.943-3.968 1.121 0 2.084 0.082 2.364 0.119v2.685h-1.623c-1.273 0-1.518 0.594-1.518 1.461v2.068h2.872l-0.394 3.002h-2.478v7.554z"></path>
</svg>
