<!-- Generated by IcoMoon.io -->
<svg version="1.1" xmlns="http://www.w3.org/2000/svg" width="32" height="32" viewBox="0 0 32 32">
<title>facebook-white</title>
<path fill="none" stroke="#fff" stroke-linejoin="miter" stroke-linecap="butt" stroke-miterlimit="4" stroke-width="1.7778" d="M3.175 3.176l0.001-0.001c1.088-1.090 2.489-1.675 4.547-1.977 2.089-0.307 4.74-0.309 8.273-0.309s6.185 0.002 8.274 0.308c2.059 0.302 3.462 0.885 4.553 1.973 1.091 1.091 1.675 2.494 1.978 4.553 0.307 2.090 0.309 4.741 0.309 8.274s-0.002 6.185-0.309 8.274c-0.302 2.059-0.887 3.462-1.978 4.553s-2.495 1.675-4.555 1.978c-2.090 0.307-4.742 0.309-8.272 0.309s-6.182-0.002-8.271-0.309c-2.060-0.302-3.462-0.887-4.549-1.977l-0.001-0.001c-1.091-1.091-1.675-2.495-1.978-4.555-0.307-2.090-0.309-4.742-0.309-8.272s0.002-6.182 0.309-8.271c0.302-2.060 0.887-3.462 1.977-4.549z"></path>
<path fill="#fff" d="M14.138 24.889v-7.554h-2.582v-3.002h2.582v-2.365c0-2.57 1.603-3.968 3.943-3.968 1.121 0 2.084 0.082 2.364 0.119v2.685h-1.623c-1.273 0-1.518 0.594-1.518 1.461v2.068h2.872l-0.394 3.002h-2.478v7.554z"></path>
</svg>
