<svg width="42" height="32" viewBox="0 0 42 32" fill="none" xmlns="http://www.w3.org/2000/svg">
<g clip-path="url(#clip0)">
<path d="M20.6704 31.281C14.961 31.281 9.2516 31.281 3.56411 31.281C1.79223 31.281 0.260981 30.1216 0.0422307 28.5247C-0.154644 26.9716 0.501606 25.7466 1.79223 24.8935C3.71723 23.6029 5.66411 22.356 7.61098 21.1091C11.4829 18.5935 15.3547 16.0779 19.2485 13.5622C19.5766 13.3435 19.7297 13.1247 19.7079 12.731C19.6641 12.2497 19.7079 11.7466 19.7079 11.2654C19.7079 10.6091 20.0141 10.2154 20.5829 9.88724C21.5891 9.27474 22.6391 8.68411 23.4922 7.89661C24.6735 6.84661 24.7172 5.64349 23.886 4.30911C22.8579 2.66849 20.7141 2.03411 18.986 2.88724C17.7172 3.52161 17.1704 4.61536 17.1704 5.99349C17.1704 7.02161 16.2954 7.67786 15.4204 7.28411C14.8735 7.04349 14.6766 6.58411 14.6329 6.01536C14.5454 3.30286 16.4704 0.809115 19.2047 0.17474C23.1641 -0.765886 26.9704 2.25286 26.9047 6.27786C26.8829 7.59036 26.3797 8.72786 25.4391 9.58099C24.586 10.3466 23.6016 11.0029 22.6391 11.6372C22.3766 11.8122 22.2454 11.9654 22.2235 12.2935C22.136 13.0372 22.4204 13.4529 23.0547 13.8466C28.6985 17.3685 34.3204 20.9341 39.9422 24.4779C41.0579 25.1779 41.8235 26.1622 41.9985 27.4966C42.2391 29.2685 40.9704 30.7997 38.936 31.1716C38.4547 31.2591 37.9516 31.281 37.4704 31.281C31.8485 31.281 26.2485 31.281 20.6704 31.281ZM20.736 28.7654C26.3579 28.7654 31.9579 28.7654 37.5797 28.7654C37.9735 28.7654 38.3891 28.7435 38.761 28.6341C39.4391 28.481 39.6579 27.9779 39.3079 27.4091C39.0891 27.0591 38.761 26.7747 38.4329 26.556C32.7672 22.9466 27.0797 19.3591 21.4141 15.7497C21.1079 15.5529 20.8891 15.5091 20.5391 15.7279C14.7641 19.4685 8.9891 23.1872 3.21411 26.9279C3.03911 27.0372 2.82036 27.1904 2.75473 27.3872C2.64536 27.7154 2.53598 28.1091 2.64536 28.4154C2.71098 28.6122 3.14848 28.6779 3.41098 28.7654C3.54223 28.8091 3.69536 28.7872 3.84848 28.7872C9.49223 28.7654 15.1141 28.7654 20.736 28.7654Z" fill="#C4C4C4"/>
</g>
<defs>
<clipPath id="clip0">
<rect width="42" height="31.2813" fill="white"/>
</clipPath>
</defs>
</svg>
