<svg width="77" height="77" viewBox="0 0 77 77" fill="none" xmlns="http://www.w3.org/2000/svg">
<g opacity="0.4">
<path d="M44.4014 56.2261C44.3822 56.2325 42.608 56.8228 41.068 56.8228C40.2178 56.8228 39.8745 56.6464 39.7654 56.5694C39.2264 56.194 38.2254 55.4914 39.9386 52.0777L43.147 45.6803C45.0495 41.8816 45.3318 38.2081 43.933 35.3334C42.7908 32.9817 40.5996 31.3679 37.773 30.7904C36.7616 30.5834 35.7318 30.4791 34.6994 30.4792C28.7672 30.4792 24.7729 33.9442 24.606 34.0918C24.3275 34.3373 24.1427 34.6718 24.0832 35.0383C24.0237 35.4048 24.0932 35.7805 24.2798 36.1015C24.4664 36.4225 24.7586 36.6688 25.1065 36.7985C25.4545 36.9281 25.8366 36.933 26.1877 36.8124C26.2038 36.806 27.9812 36.2125 29.5212 36.2125C30.365 36.2125 30.7051 36.3889 30.8109 36.4627C31.3531 36.8413 32.3573 37.5536 30.6473 40.9608L27.439 47.3614C25.5332 51.1633 25.2541 54.8369 26.6529 57.7083C27.7951 60.06 29.9832 61.6738 32.8161 62.2513C33.8236 62.4534 34.8566 62.5625 35.8769 62.5625C41.8123 62.5625 45.8099 59.0975 45.9767 58.9499C46.2555 58.705 46.4408 58.371 46.5009 58.0048C46.5611 57.6386 46.4924 57.2629 46.3066 56.9417C46.1208 56.6205 45.8294 56.3736 45.482 56.2431C45.1346 56.1126 44.7528 56.1066 44.4014 56.2261Z" fill="black"/>
<path d="M41.7083 27.274C46.1381 27.274 49.7292 23.6829 49.7292 19.2531C49.7292 14.8233 46.1381 11.2323 41.7083 11.2323C37.2785 11.2323 33.6875 14.8233 33.6875 19.2531C33.6875 23.6829 37.2785 27.274 41.7083 27.274Z" fill="black"/>
</g>
</svg>
