<!-- Generated by IcoMoon.io -->
<svg version="1.1" xmlns="http://www.w3.org/2000/svg" width="33" height="32" viewBox="0 0 33 32">
<title>instagram</title>
<path fill="none" stroke="#000" stroke-linejoin="miter" stroke-linecap="butt" stroke-miterlimit="4" stroke-width="2.1333" d="M3.861 3.302l0.002-0.002c1.051-1.053 2.41-1.628 4.447-1.927 2.073-0.304 4.71-0.307 8.248-0.307s6.175 0.003 8.249 0.306c2.038 0.298 3.399 0.872 4.453 1.923 1.054 1.054 1.628 2.415 1.927 4.453 0.304 2.074 0.307 4.71 0.307 8.248s-0.003 6.174-0.307 8.248c-0.299 2.038-0.874 3.399-1.928 4.453s-2.417 1.628-4.455 1.928c-2.075 0.305-4.711 0.307-8.246 0.307s-6.172-0.003-8.245-0.307c-2.038-0.299-3.399-0.874-4.449-1.927l-0.001-0.001c-1.054-1.054-1.629-2.417-1.928-4.455-0.304-2.075-0.307-4.711-0.307-8.246s0.003-6.172 0.307-8.245c0.299-2.038 0.874-3.399 1.927-4.449z"></path>
<path d="M23.588 6.434c-0.564 0-1.117 0.228-1.515 0.627-0.401 0.398-0.63 0.952-0.63 1.518 0 0.563 0.23 1.117 0.63 1.517 0.397 0.398 0.951 0.628 1.515 0.628 0.565 0 1.117-0.23 1.516-0.628 0.4-0.4 0.628-0.954 0.628-1.517 0-0.566-0.228-1.12-0.628-1.518-0.398-0.4-0.951-0.627-1.516-0.627z"></path>
<path fill="none" stroke="#000" stroke-linejoin="miter" stroke-linecap="butt" stroke-miterlimit="4" stroke-width="2.1333" d="M22.521 16.621c0 3.26-2.643 5.903-5.903 5.903s-5.903-2.643-5.903-5.903c0-3.26 2.643-5.903 5.903-5.903s5.903 2.643 5.903 5.903z"></path>
</svg>
