<!-- Generated by IcoMoon.io -->
<svg version="1.1" xmlns="http://www.w3.org/2000/svg" width="32" height="32" viewBox="0 0 32 32">
<title>instagram-white</title>
<path fill="none" stroke="#fff" stroke-linejoin="miter" stroke-linecap="butt" stroke-miterlimit="4" stroke-width="1.7778" d="M3.175 3.176l0.001-0.001c1.088-1.090 2.489-1.675 4.547-1.977 2.089-0.307 4.74-0.309 8.273-0.309s6.185 0.002 8.274 0.308c2.059 0.302 3.462 0.885 4.553 1.973 1.091 1.091 1.675 2.494 1.978 4.553 0.307 2.090 0.309 4.741 0.309 8.274s-0.002 6.185-0.309 8.274c-0.302 2.059-0.887 3.462-1.978 4.553s-2.495 1.675-4.555 1.978c-2.090 0.307-4.742 0.309-8.272 0.309s-6.182-0.002-8.271-0.309c-2.060-0.302-3.462-0.887-4.549-1.977l-0.001-0.001c-1.091-1.091-1.675-2.495-1.978-4.555-0.307-2.090-0.309-4.742-0.309-8.272s0.002-6.182 0.309-8.271c0.302-2.060 0.887-3.462 1.977-4.549z"></path>
<path fill="#fff" d="M23.994 5.545c-0.584 0-1.157 0.236-1.569 0.65-0.415 0.412-0.653 0.986-0.653 1.573 0 0.584 0.239 1.157 0.653 1.571 0.411 0.412 0.985 0.65 1.569 0.65 0.586 0 1.157-0.238 1.571-0.65 0.414-0.414 0.651-0.988 0.651-1.571 0-0.586-0.237-1.16-0.651-1.573-0.412-0.414-0.985-0.65-1.571-0.65z"></path>
<path fill="none" stroke="#fff" stroke-linejoin="miter" stroke-linecap="butt" stroke-miterlimit="4" stroke-width="1.7778" d="M22.222 16c0 3.436-2.786 6.222-6.222 6.222s-6.222-2.786-6.222-6.222c0-3.436 2.786-6.222 6.222-6.222s6.222 2.786 6.222 6.222z"></path>
</svg>
