<!-- Generated by IcoMoon.io -->
<svg version="1.1" xmlns="http://www.w3.org/2000/svg" width="32" height="32" viewBox="0 0 32 32">
<title>lang</title>
<path d="M15.84 0c-8.768 0-15.84 7.071-15.84 15.84s7.072 15.84 15.84 15.84c8.768 0 15.84-7.071 15.84-15.84s-7.072-15.84-15.84-15.84zM28.172 10.183h-5.374c-0.792-2.772-2.15-5.374-4.016-7.581 4.13 0.905 7.636 3.734 9.39 7.581zM15.784 28.908c-2.094-2.093-3.622-4.582-4.526-7.411h9.164c-0.904 2.772-2.432 5.318-4.526 7.411-0.056 0-0.056 0-0.112 0zM10.692 19.234c-0.396-2.263-0.396-4.526 0-6.788h10.296c0.396 2.263 0.396 4.526 0 6.788h-10.296zM2.262 15.84c0-1.131 0.17-2.263 0.454-3.394h5.714c-0.396 2.263-0.396 4.526 0 6.788h-5.714c-0.284-1.131-0.454-2.263-0.454-3.394zM15.84 2.772h0.056c2.094 2.093 3.622 4.639 4.526 7.411h-9.164c0.904-2.772 2.432-5.318 4.526-7.411h0.056zM23.308 12.446h5.714c0.564 2.206 0.564 4.582 0 6.788h-5.714c0.338-2.263 0.338-4.526 0-6.788zM12.898 2.602c-1.866 2.206-3.224 4.809-4.016 7.581h-5.374c1.754-3.847 5.26-6.675 9.39-7.581zM3.508 21.497h5.374c0.792 2.772 2.15 5.374 4.016 7.581-4.13-0.905-7.636-3.734-9.39-7.581zM18.782 29.078c1.866-2.206 3.224-4.809 4.016-7.581h5.374c-1.754 3.847-5.26 6.675-9.39 7.581z"></path>
</svg>
