<svg width="163" height="34" viewBox="0 0 163 34" fill="none" xmlns="http://www.w3.org/2000/svg">
    <path fill-rule="evenodd" clip-rule="evenodd" d="M132.464 2.74005L143.73 15.9811L132.464 29.2242L135.589 31.9593L149.182 15.9811L135.589 0.00195312L132.464 2.74005Z" fill="#7AB72B"/>
    <path fill-rule="evenodd" clip-rule="evenodd" d="M146.166 2.74005L157.432 15.9811L146.166 29.2242L149.29 31.9593L162.884 15.9811L149.29 0.00195312L146.166 2.74005Z" fill="#7AB72B"/>
    <path fill-rule="evenodd" clip-rule="evenodd" d="M14.0846 28.2358C14.0846 28.5187 14.0707 28.7559 14.0428 28.9468C14.0145 29.1381 13.9693 29.3008 13.9066 29.4352C13.8435 29.5702 13.7669 29.6689 13.676 29.7323C13.585 29.7963 13.4771 29.828 13.3513 29.828H1.36344C1.04181 29.828 0.73807 29.7187 0.451732 29.4992C0.164897 29.2796 0.0217285 28.8939 0.0217285 28.342V2.90976C0.0217285 2.79646 0.0495669 2.69726 0.105741 2.61266C0.161418 2.52756 0.259349 2.46059 0.399038 2.41074C0.538727 2.36139 0.727133 2.31909 0.964754 2.28334C1.20237 2.2486 1.48871 2.23047 1.82426 2.23047C2.17324 2.23047 2.46305 2.2486 2.69372 2.28334C2.92438 2.31909 3.1093 2.36139 3.24949 2.41074C3.38868 2.46059 3.48711 2.52756 3.54279 2.61266C3.59846 2.69776 3.6268 2.79646 3.6268 2.90976V26.6652H13.3513C13.4771 26.6652 13.585 26.6969 13.676 26.7609C13.7664 26.8248 13.8435 26.9165 13.9066 27.0363C13.9698 27.1566 14.015 27.3158 14.0428 27.5142C14.0707 27.7126 14.0846 27.9528 14.0846 28.2358Z" fill="#7AB72B"/>
    <path fill-rule="evenodd" clip-rule="evenodd" d="M21.671 29.2761C21.671 29.3899 21.6427 29.4886 21.587 29.5732C21.5309 29.6583 21.4329 29.7253 21.2937 29.7751C21.1536 29.825 20.9691 29.8667 20.738 29.9025C20.5073 29.9372 20.2175 29.9554 19.8685 29.9554C19.533 29.9554 19.2461 29.9372 19.009 29.9025C18.7714 29.8667 18.583 29.8245 18.4433 29.7751C18.3036 29.7253 18.2057 29.6583 18.15 29.5732C18.0938 29.4881 18.066 29.3899 18.066 29.2761V2.90976C18.066 2.79646 18.0973 2.69726 18.1604 2.61266C18.2236 2.52756 18.328 2.46059 18.4746 2.41074C18.6213 2.36139 18.8102 2.31909 19.0403 2.28334C19.271 2.2486 19.5464 2.23047 19.8685 2.23047C20.2175 2.23047 20.5073 2.2486 20.738 2.28334C20.9686 2.31909 21.1536 2.36139 21.2937 2.41074C21.4329 2.46059 21.5314 2.52756 21.587 2.61266C21.6427 2.69776 21.671 2.79646 21.671 2.90976V29.2761Z" fill="#7AB72B"/>
    <path fill-rule="evenodd" clip-rule="evenodd" d="M54.9315 32.2486C54.9315 32.5739 54.9141 32.8463 54.8793 33.0653C54.844 33.2849 54.7918 33.4546 54.7222 33.5749C54.6521 33.6948 54.5756 33.7769 54.4916 33.8192C54.4076 33.8615 54.3236 33.8831 54.24 33.8831C53.9607 33.8831 53.5098 33.7663 52.8884 33.5331C52.267 33.3 51.5507 32.9596 50.7404 32.5145C49.9301 32.0683 49.0636 31.527 48.1414 30.89C47.2193 30.253 46.325 29.5103 45.459 28.6608C44.7745 29.0853 43.908 29.4534 42.8601 29.7646C41.8122 30.0758 40.5967 30.2319 39.2133 30.2319C37.1731 30.2319 35.4094 29.9272 33.9215 29.3189C32.4336 28.7106 31.2038 27.8189 30.2329 26.6441C29.2615 25.4693 28.5387 24.0085 28.0635 22.2607C27.5883 20.5129 27.3511 18.5067 27.3511 16.2423C27.3511 14.0629 27.6096 12.092 28.1266 10.3301C28.6436 8.56819 29.4191 7.06811 30.4531 5.82938C31.4871 4.59116 32.7796 3.63592 34.3301 2.96369C35.8811 2.29145 37.6901 1.95508 39.7581 1.95508C41.6998 1.95508 43.4084 2.25973 44.8824 2.86801C46.3563 3.4768 47.5926 4.36506 48.5918 5.53229C49.5905 6.70002 50.3417 8.14017 50.8447 9.85224C51.3478 11.5648 51.5994 13.5322 51.5994 15.7538C51.5994 16.9004 51.5328 17.9971 51.4 19.0445C51.2673 20.0924 51.0575 21.0829 50.7717 22.017C50.4848 22.9511 50.1249 23.8141 49.6924 24.6067C49.259 25.3998 48.7489 26.1138 48.1623 26.7508C49.1819 27.5998 50.0762 28.262 50.8447 28.7358C51.6128 29.2102 52.2491 29.5677 52.7517 29.8079C53.2548 30.0486 53.6455 30.2218 53.9254 30.3275C54.2042 30.4338 54.414 30.5541 54.5542 30.6886C54.6934 30.8225 54.7918 31.0139 54.8475 31.2616C54.9032 31.5089 54.9315 31.8382 54.9315 32.2486ZM47.8059 16.0086C47.8059 14.4517 47.6697 13.0085 47.3973 11.6776C47.1248 10.3472 46.6705 9.19057 46.0347 8.20664C45.3989 7.22321 44.5498 6.4553 43.4885 5.90341C42.4266 5.35152 41.1132 5.07557 39.5483 5.07557C37.9834 5.07557 36.67 5.36914 35.6082 5.95678C34.5464 6.54442 33.6834 7.33651 33.0197 8.33454C32.3561 9.33207 31.8808 10.4892 31.5945 11.8055C31.3082 13.1218 31.1645 14.5156 31.1645 15.988C31.1645 17.6014 31.2972 19.0838 31.5627 20.4353C31.8281 21.7869 32.275 22.9586 32.9039 23.9491C33.5327 24.9401 34.3744 25.708 35.4292 26.2523C36.4841 26.7972 37.8079 27.0696 39.4007 27.0696C40.9795 27.0696 42.3068 26.7725 43.3826 26.1783C44.4583 25.5841 45.3243 24.781 45.9815 23.7688C46.6382 22.7572 47.106 21.5819 47.3858 20.245C47.6662 18.9066 47.8059 17.4946 47.8059 16.0086Z" fill="#7AB72B"/>
    <path fill-rule="evenodd" clip-rule="evenodd" d="M74.4223 10.4036C74.4223 11.7768 74.1986 13.015 73.7517 14.1188C73.3043 15.2231 72.6655 16.1642 71.8343 16.9422C71.0031 17.7207 69.9825 18.3219 68.7741 18.7464C67.5656 19.1709 66.123 19.3834 64.4467 19.3834H61.3656V29.2761C61.3656 29.3899 61.3342 29.4886 61.2711 29.5732C61.208 29.6583 61.1105 29.7253 60.9778 29.7752C60.8451 29.825 60.6636 29.8668 60.433 29.9026C60.2023 29.9373 59.9125 29.9554 59.5635 29.9554C59.2141 29.9554 58.9242 29.9373 58.6936 29.9026C58.4629 29.8668 58.2775 29.8245 58.1378 29.7752C57.9981 29.7253 57.9002 29.6583 57.8445 29.5732C57.7883 29.4881 57.7605 29.3899 57.7605 29.2761V3.92849C57.7605 3.36251 57.9071 2.95916 58.2004 2.71847C58.4937 2.47777 58.8218 2.35742 59.1857 2.35742H64.991C65.5781 2.35742 66.1403 2.3821 66.6782 2.43195C67.2161 2.4818 67.8514 2.58754 68.5851 2.75019C69.3184 2.91334 70.0661 3.21748 70.8276 3.66312C71.5887 4.10877 72.235 4.65763 72.7664 5.30822C73.2973 5.95931 73.7059 6.71312 73.9923 7.56915C74.2786 8.4262 74.4223 9.37085 74.4223 10.4036ZM70.6288 10.7007C70.6288 9.58285 70.4225 8.64876 70.0104 7.89797C69.5983 7.14819 69.0882 6.58925 68.4803 6.22115C67.8728 5.85306 67.2439 5.61992 66.5942 5.52072C65.9445 5.42202 65.3122 5.37217 64.6972 5.37217H61.3651V16.3898H64.6137C65.7039 16.3898 66.6081 16.2488 67.3279 15.9653C68.0473 15.6828 68.6518 15.2901 69.1409 14.787C69.6301 14.285 69.9999 13.6832 70.252 12.9828C70.503 12.2824 70.6288 11.5215 70.6288 10.7007Z" fill="#7AB72B"/>
    <path fill-rule="evenodd" clip-rule="evenodd" d="M100.242 28.5343C100.353 28.846 100.413 29.0968 100.42 29.2881C100.426 29.4795 100.374 29.6245 100.263 29.7237C100.151 29.8224 99.966 29.8858 99.7075 29.9145C99.4485 29.9427 99.103 29.9573 98.67 29.9573C98.237 29.9573 97.8911 29.9468 97.6326 29.9256C97.3741 29.9045 97.1782 29.8687 97.046 29.8194C96.9127 29.77 96.8153 29.7025 96.7527 29.6179C96.6895 29.5328 96.6304 29.4266 96.5747 29.2997L94.2482 22.6126H82.9727L80.7511 29.2146C80.7088 29.342 80.6531 29.4523 80.583 29.5434C80.513 29.6356 80.412 29.7136 80.2793 29.7771C80.1466 29.8405 79.9577 29.8863 79.7136 29.915C79.469 29.9432 79.1509 29.9578 78.7601 29.9578C78.355 29.9578 78.0229 29.9397 77.7649 29.905C77.5064 29.8692 77.325 29.8022 77.2201 29.703C77.1157 29.6043 77.066 29.4588 77.0734 29.268C77.0804 29.0766 77.1395 28.8254 77.2514 28.5142L86.3471 2.99681C86.4028 2.84121 86.4763 2.71381 86.5668 2.61462C86.6573 2.51542 86.7905 2.43737 86.965 2.38097C87.1395 2.32457 87.3632 2.28529 87.6356 2.26415C87.9075 2.243 88.254 2.23242 88.6731 2.23242C89.12 2.23242 89.4903 2.243 89.7841 2.26415C90.0774 2.28529 90.315 2.32457 90.4965 2.38097C90.6779 2.43787 90.8176 2.51894 90.9156 2.62519C91.013 2.73144 91.09 2.86236 91.1462 3.01796L100.242 28.5343ZM88.5682 6.01005H88.5473L83.8739 19.7026H93.3047L88.5682 6.01005Z" fill="#7AB72B"/>
    <path fill-rule="evenodd" clip-rule="evenodd" d="M113.403 19.1502V29.2761C113.403 29.3899 113.375 29.4886 113.319 29.5732C113.264 29.6583 113.166 29.7253 113.028 29.7751C112.889 29.825 112.701 29.8667 112.465 29.9025C112.229 29.9372 111.944 29.9554 111.611 29.9554C111.263 29.9554 110.976 29.9372 110.746 29.9025C110.517 29.8667 110.329 29.8245 110.183 29.7751C110.037 29.7253 109.937 29.6583 109.881 29.5732C109.825 29.4881 109.798 29.3899 109.798 29.2761V19.1502L102.127 3.65299C101.973 3.3277 101.879 3.07291 101.845 2.88861C101.809 2.70481 101.845 2.56331 101.949 2.46412C102.054 2.36542 102.243 2.30197 102.515 2.27327C102.788 2.24507 103.154 2.23047 103.615 2.23047C104.034 2.23047 104.373 2.24507 104.632 2.27327C104.89 2.30197 105.096 2.34075 105.25 2.39009C105.404 2.43995 105.519 2.51044 105.596 2.60259C105.673 2.69474 105.746 2.81156 105.816 2.95256L109.567 10.8497C109.915 11.6 110.263 12.3855 110.61 13.2063C110.957 14.0271 111.312 14.8549 111.673 15.6898H111.715C112.034 14.8831 112.363 14.0805 112.705 13.2803C113.045 12.4812 113.389 11.6922 113.738 10.9137L117.51 2.97421C117.552 2.83271 117.612 2.71237 117.689 2.61317C117.765 2.51447 117.87 2.43995 118.003 2.39009C118.135 2.34075 118.32 2.30197 118.558 2.27327C118.796 2.24507 119.096 2.23047 119.459 2.23047C119.962 2.23047 120.357 2.2486 120.643 2.28334C120.93 2.31909 121.129 2.38607 121.241 2.48526C121.353 2.58446 121.391 2.72596 121.356 2.90976C121.321 3.09406 121.227 3.3413 121.073 3.65249L113.403 19.1502Z" fill="#7AB72B"/>
</svg>
