<svg width="323" height="92" viewBox="0 0 323 92" fill="none" xmlns="http://www.w3.org/2000/svg">
    <path d="M322.81 0.347656H103.681V91.6516H322.81V0.347656Z" fill="#0054E4"/>
    <path d="M150.854 34.3494C150.854 44.509 142.559 44.509 134.557 44.509C126.555 44.509 118.29 44.509 118.29 34.3494H125.727C125.727 38.3529 125.542 38.2457 134.557 38.2457C143.573 38.2457 143.388 38.3237 143.388 34.3494C143.388 30.0928 120.084 33.5117 120.084 21.3164C120.084 11.4101 127.588 11.3906 134.557 11.3906C141.526 11.3906 148.924 11.3906 149.021 21.3164H141.594C141.594 17.5467 141.877 17.5565 134.557 17.5565C127.238 17.5565 127.51 17.5565 127.51 21.3164C127.51 26.4497 150.854 22.5535 150.854 34.3494Z" fill="white"/>
    <path d="M196.264 26.1096V44.0422H188.837V27.3856C188.837 17.5183 187.677 17.6449 179.773 17.5572V44.0422H172.346V17.5572C164.441 17.6449 163.291 17.4501 163.291 27.3856V44.0422H155.855V26.1096C155.864 11.3037 166.966 11.3037 176.04 11.3037C185.114 11.3037 196.254 11.3037 196.254 26.0803L196.264 26.1096Z" fill="white"/>
    <path d="M233.983 23.4798V44.0424H226.556V32.938H209.763V44.0424H202.326V23.4798C202.326 16.7295 204.577 11.3721 218.145 11.3721C231.712 11.3721 233.983 16.7295 233.983 23.4798ZM218.154 17.5574C208.515 17.5574 209.782 20.2848 209.772 25.4182V26.7039H226.556V25.4182C226.527 20.2848 227.862 17.5574 218.145 17.5574H218.154Z" fill="white"/>
    <path d="M268.993 44.0425H261.557L256.401 37.0584C253.602 37.4172 250.781 37.5702 247.96 37.5162V44.0425H240.533V11.8008H246.186C257.687 11.8008 268.789 11.8008 268.789 23.8987C268.789 30.2302 266.644 33.9414 262.804 35.5876L268.993 44.0425ZM260.699 23.8987C260.699 18.0543 259.49 18.0543 247.297 18.0543V31.2919C259.023 31.2919 260.699 31.3114 260.699 23.8987Z" fill="white"/>
    <path d="M307.667 11.8008V18.0251H293.486V44.0425H286.049V18.0251H271.868V11.8008H307.667Z" fill="white"/>
    <path d="M151.614 50.3153V56.1597H138.407V80.3264H131.497V56.111H118.29V50.2666L151.614 50.3153Z" fill="white"/>
    <path d="M168.165 56.111V74.5404H175.387V80.3848H154.062V74.5404H161.284V56.111H154.062V50.2666H175.416V56.111H168.165Z" fill="white"/>
    <path d="M203.768 69.446H210.679C210.26 75.9626 206.361 80.7647 195.084 80.7647C181.01 80.7647 179.392 73.8488 179.392 65.3355C179.392 56.8221 180.679 49.8867 195.084 49.8867C206.371 49.8867 210.299 54.6694 210.679 61.2054H203.768C203.768 56.8513 202.355 55.6824 195.055 55.6824C186.897 55.6824 186.283 56.4519 186.283 65.3355C186.283 74.0339 186.702 74.969 194.909 74.969C202.063 74.969 203.768 74.0339 203.768 69.446Z" fill="white"/>
    <path d="M244.391 80.3265H237.481L230.746 70.5858C228.328 72.1064 225.595 73.0558 222.754 73.3619V80.2973H215.844V50.3252H222.754V67.5954C225.619 67.3227 228.144 65.8908 230.922 63.4557C234.996 59.8906 236.448 56.0819 236.448 50.3252H243.358C243.358 56.9099 240.522 62.2186 235.249 67.274L244.391 80.3265Z" fill="white"/>
    <path d="M254.03 62.4321H270.921V68.2278H254.03C254.03 74.5008 254.566 74.5397 263.279 74.5397H270.921V80.3842H261.944C247.558 80.3842 247.11 74.3157 247.11 65.8705C247.11 57.4253 247.704 50.3828 261.944 50.3828H270.921V56.2272H263.279C255.424 56.1103 254.03 56.1883 254.03 62.4321Z" fill="white"/>
    <path d="M307.667 50.3153V56.1597H294.47V80.3264H287.589V56.111H274.343V50.2666L307.667 50.3153Z" fill="white"/>
    <path d="M28.5097 1.91801C28.5097 2.43541 28.0847 2.86043 27.5673 2.86043C27.0499 2.86043 26.6249 2.43541 26.6249 1.91801C26.6249 1.4006 27.0499 0.975586 27.5673 0.975586C28.0847 0.975586 28.5097 1.4006 28.5097 1.91801Z" fill="black"/>
    <path d="M34.8099 1.91801C34.8099 2.43541 34.3849 2.86043 33.8675 2.86043C33.3501 2.86043 32.925 2.43541 32.925 1.91801C32.925 1.4006 33.3501 0.975586 33.8675 0.975586C34.3849 0.975586 34.8099 1.4006 34.8099 1.91801Z" fill="black"/>
    <path d="M44.2554 1.91801C44.2554 2.43541 43.8304 2.86043 43.313 2.86043C42.7956 2.86043 42.3706 2.43541 42.3706 1.91801C42.3706 1.4006 42.7956 0.975586 43.313 0.975586C43.8304 0.975586 44.2554 1.4006 44.2554 1.91801Z" fill="black"/>
    <path d="M47.3968 1.91801C47.3968 2.43541 46.9718 2.86043 46.4544 2.86043C45.937 2.86043 45.512 2.43541 45.512 1.91801C45.512 1.4006 45.937 0.975586 46.4544 0.975586C46.9718 0.975586 47.3968 1.4006 47.3968 1.91801Z" fill="black"/>
    <path d="M50.5361 1.91801C50.5361 2.43541 50.1111 2.86043 49.5937 2.86043C49.0763 2.86043 48.6512 2.43541 48.6512 1.91801C48.6512 1.4006 49.0763 0.975586 49.5937 0.975586C50.1296 0.975586 50.5361 1.4006 50.5361 1.91801Z" fill="black"/>
    <path d="M56.8383 1.91801C56.8383 2.43541 56.4133 2.86043 55.8959 2.86043C55.3785 2.86043 54.9535 2.43541 54.9535 1.91801C54.9535 1.4006 55.3785 0.975586 55.8959 0.975586C56.4133 0.975586 56.8383 1.4006 56.8383 1.91801Z" fill="black"/>
    <path d="M28.5097 5.05961C28.5097 5.57702 28.0847 6.00203 27.5673 6.00203C27.0499 6.00203 26.6249 5.57702 26.6249 5.05961C26.6249 4.5422 27.0499 4.11719 27.5673 4.11719C28.0847 4.11719 28.5097 4.5422 28.5097 5.05961Z" fill="black"/>
    <path d="M31.651 5.05961C31.651 5.57702 31.2259 6.00203 30.7085 6.00203C30.1911 6.00203 29.7661 5.57702 29.7661 5.05961C29.7661 4.5422 30.1911 4.11719 30.7085 4.11719C31.2259 4.11719 31.651 4.5422 31.651 5.05961Z" fill="black"/>
    <path d="M34.8099 5.05961C34.8099 5.57702 34.3849 6.00203 33.8675 6.00203C33.3501 6.00203 32.925 5.57702 32.925 5.05961C32.925 4.5422 33.3501 4.11719 33.8675 4.11719C34.3849 4.11719 34.8099 4.5422 34.8099 5.05961Z" fill="black"/>
    <path d="M41.0946 5.05961C41.0946 5.57702 40.6695 6.00203 40.1521 6.00203C39.6347 6.00203 39.2097 5.57702 39.2097 5.05961C39.2097 4.5422 39.6347 4.11719 40.1521 4.11719C40.6695 4.11719 41.0946 4.5422 41.0946 5.05961Z" fill="black"/>
    <path d="M44.2554 5.05961C44.2554 5.57702 43.8304 6.00203 43.313 6.00203C42.7956 6.00203 42.3706 5.57702 42.3706 5.05961C42.3706 4.5422 42.7956 4.11719 43.313 4.11719C43.8304 4.11719 44.2554 4.5422 44.2554 5.05961Z" fill="black"/>
    <path d="M47.3968 5.05961C47.3968 5.57702 46.9718 6.00203 46.4544 6.00203C45.937 6.00203 45.512 5.57702 45.512 5.05961C45.512 4.5422 45.937 4.11719 46.4544 4.11719C46.9718 4.11719 47.3968 4.5422 47.3968 5.05961Z" fill="black"/>
    <path d="M50.5361 5.05961C50.5361 5.57702 50.1111 6.00203 49.5937 6.00203C49.0763 6.00203 48.6512 5.57702 48.6512 5.05961C48.6512 4.5422 49.0763 4.11719 49.5937 4.11719C50.1296 4.11719 50.5361 4.5422 50.5361 5.05961Z" fill="black"/>
    <path d="M56.8383 5.05961C56.8383 5.57702 56.4133 6.00203 55.8959 6.00203C55.3785 6.00203 54.9535 5.57702 54.9535 5.05961C54.9535 4.5422 55.3785 4.11719 55.8959 4.11719C56.4133 4.11719 56.8383 4.5422 56.8383 5.05961Z" fill="black"/>
    <path d="M63.1386 5.05961C63.1386 5.57702 62.7136 6.00203 62.1962 6.00203C61.6788 6.00203 61.2538 5.57702 61.2538 5.05961C61.2538 4.5422 61.6788 4.11719 62.1962 4.11719C62.7136 4.11719 63.1386 4.5422 63.1386 5.05961Z" fill="black"/>
    <path d="M28.5097 8.21976C28.5097 8.73717 28.0847 9.16219 27.5673 9.16219C27.0499 9.16219 26.6249 8.73717 26.6249 8.21976C26.6249 7.70236 27.0499 7.27734 27.5673 7.27734C28.0847 7.27734 28.5097 7.68388 28.5097 8.21976Z" fill="black"/>
    <path d="M31.651 8.21976C31.651 8.73717 31.2259 9.16219 30.7085 9.16219C30.1911 9.16219 29.7661 8.73717 29.7661 8.21976C29.7661 7.70236 30.1911 7.27734 30.7085 7.27734C31.2259 7.27734 31.651 7.68388 31.651 8.21976Z" fill="black"/>
    <path d="M34.8099 8.21976C34.8099 8.73717 34.3849 9.16219 33.8675 9.16219C33.3501 9.16219 32.925 8.73717 32.925 8.21976C32.925 7.70236 33.3501 7.27734 33.8675 7.27734C34.3849 7.27734 34.8099 7.68388 34.8099 8.21976Z" fill="black"/>
    <path d="M41.0946 8.21976C41.0946 8.73717 40.6695 9.16219 40.1521 9.16219C39.6347 9.16219 39.2097 8.73717 39.2097 8.21976C39.2097 7.70236 39.6347 7.27734 40.1521 7.27734C40.6695 7.27734 41.0946 7.68388 41.0946 8.21976Z" fill="black"/>
    <path d="M44.2554 8.21976C44.2554 8.73717 43.8304 9.16219 43.313 9.16219C42.7956 9.16219 42.3706 8.73717 42.3706 8.21976C42.3706 7.70236 42.7956 7.27734 43.313 7.27734C43.8304 7.27734 44.2554 7.68388 44.2554 8.21976Z" fill="black"/>
    <path d="M47.3968 8.21976C47.3968 8.73717 46.9718 9.16219 46.4544 9.16219C45.937 9.16219 45.512 8.73717 45.512 8.21976C45.512 7.70236 45.937 7.27734 46.4544 7.27734C46.9718 7.27734 47.3968 7.68388 47.3968 8.21976Z" fill="black"/>
    <path d="M59.9797 8.21976C59.9797 8.73717 59.5547 9.16219 59.0373 9.16219C58.5199 9.16219 58.0948 8.73717 58.0948 8.21976C58.0948 7.70236 58.5199 7.27734 59.0373 7.27734C59.5732 7.27734 59.9797 7.68388 59.9797 8.21976Z" fill="black"/>
    <path d="M66.2818 8.21976C66.2818 8.73717 65.8568 9.16219 65.3394 9.16219C64.822 9.16219 64.397 8.73717 64.397 8.21976C64.397 7.70236 64.822 7.27734 65.3394 7.27734C65.8568 7.27734 66.2818 7.68388 66.2818 8.21976Z" fill="black"/>
    <path d="M41.0946 11.3614C41.0946 11.8788 40.6695 12.3038 40.1521 12.3038C39.6347 12.3038 39.2097 11.8788 39.2097 11.3614C39.2097 10.844 39.6347 10.4189 40.1521 10.4189C40.6695 10.4189 41.0946 10.844 41.0946 11.3614Z" fill="black"/>
    <path d="M47.3968 11.3614C47.3968 11.8788 46.9718 12.3038 46.4544 12.3038C45.937 12.3038 45.512 11.8788 45.512 11.3614C45.512 10.844 45.937 10.4189 46.4544 10.4189C46.9718 10.4189 47.3968 10.844 47.3968 11.3614Z" fill="black"/>
    <path d="M50.5361 11.3614C50.5361 11.8788 50.1111 12.3038 49.5937 12.3038C49.0763 12.3038 48.6512 11.8788 48.6512 11.3614C48.6512 10.844 49.0763 10.4189 49.5937 10.4189C50.1296 10.4189 50.5361 10.844 50.5361 11.3614Z" fill="black"/>
    <path d="M56.8383 11.3614C56.8383 11.8788 56.4133 12.3038 55.8959 12.3038C55.3785 12.3038 54.9535 11.8788 54.9535 11.3614C54.9535 10.844 55.3785 10.4189 55.8959 10.4189C56.4133 10.4189 56.8383 10.844 56.8383 11.3614Z" fill="black"/>
    <path d="M59.9797 11.3614C59.9797 11.8788 59.5547 12.3038 59.0373 12.3038C58.5199 12.3038 58.0948 11.8788 58.0948 11.3614C58.0948 10.844 58.5199 10.4189 59.0373 10.4189C59.5732 10.4189 59.9797 10.844 59.9797 11.3614Z" fill="black"/>
    <path d="M63.1386 11.3614C63.1386 11.8788 62.7136 12.3038 62.1962 12.3038C61.6788 12.3038 61.2538 11.8788 61.2538 11.3614C61.2538 10.844 61.6788 10.4189 62.1962 10.4189C62.7136 10.4189 63.1386 10.844 63.1386 11.3614Z" fill="black"/>
    <path d="M66.2818 11.3614C66.2818 11.8788 65.8568 12.3038 65.3394 12.3038C64.822 12.3038 64.397 11.8788 64.397 11.3614C64.397 10.844 64.822 10.4189 65.3394 10.4189C65.8568 10.4189 66.2818 10.844 66.2818 11.3614Z" fill="black"/>
    <path d="M28.5097 14.503C28.5097 15.0204 28.0847 15.4454 27.5673 15.4454C27.0499 15.4454 26.6249 15.0204 26.6249 14.503C26.6249 13.9856 27.0499 13.5605 27.5673 13.5605C28.0847 13.5605 28.5097 13.9856 28.5097 14.503Z" fill="black"/>
    <path d="M37.9531 14.503C37.9531 15.0204 37.5281 15.4454 37.0107 15.4454C36.4933 15.4454 36.0682 15.0204 36.0682 14.503C36.0682 13.9856 36.4933 13.5605 37.0107 13.5605C37.5281 13.5605 37.9531 13.9856 37.9531 14.503Z" fill="black"/>
    <path d="M41.0946 14.503C41.0946 15.0204 40.6695 15.4454 40.1521 15.4454C39.6347 15.4454 39.2097 15.0204 39.2097 14.503C39.2097 13.9856 39.6347 13.5605 40.1521 13.5605C40.6695 13.5605 41.0946 13.9856 41.0946 14.503Z" fill="black"/>
    <path d="M44.2554 14.503C44.2554 15.0204 43.8304 15.4454 43.313 15.4454C42.7956 15.4454 42.3706 15.0204 42.3706 14.503C42.3706 13.9856 42.7956 13.5605 43.313 13.5605C43.8304 13.5605 44.2554 13.9856 44.2554 14.503Z" fill="black"/>
    <path d="M50.5361 14.503C50.5361 15.0204 50.1111 15.4454 49.5937 15.4454C49.0763 15.4454 48.6512 15.0204 48.6512 14.503C48.6512 13.9856 49.0763 13.5605 49.5937 13.5605C50.1296 13.5605 50.5361 13.9856 50.5361 14.503Z" fill="black"/>
    <path d="M59.9797 14.503C59.9797 15.0204 59.5547 15.4454 59.0373 15.4454C58.5199 15.4454 58.0948 15.0204 58.0948 14.503C58.0948 13.9856 58.5199 13.5605 59.0373 13.5605C59.5732 13.5605 59.9797 13.9856 59.9797 14.503Z" fill="black"/>
    <path d="M63.1386 14.503C63.1386 15.0204 62.7136 15.4454 62.1962 15.4454C61.6788 15.4454 61.2538 15.0204 61.2538 14.503C61.2538 13.9856 61.6788 13.5605 62.1962 13.5605C62.7136 13.5605 63.1386 13.9856 63.1386 14.503Z" fill="black"/>
    <path d="M31.651 17.6621C31.651 18.1796 31.2259 18.6046 30.7085 18.6046C30.1911 18.6046 29.7661 18.1796 29.7661 17.6621C29.7661 17.1447 30.1911 16.7197 30.7085 16.7197C31.2259 16.7197 31.651 17.1263 31.651 17.6621Z" fill="black"/>
    <path d="M44.2554 17.6621C44.2554 18.1796 43.8304 18.6046 43.313 18.6046C42.7956 18.6046 42.3706 18.1796 42.3706 17.6621C42.3706 17.1447 42.7956 16.7197 43.313 16.7197C43.8304 16.7197 44.2554 17.1263 44.2554 17.6621Z" fill="black"/>
    <path d="M47.3968 17.6621C47.3968 18.1796 46.9718 18.6046 46.4544 18.6046C45.937 18.6046 45.512 18.1796 45.512 17.6621C45.512 17.1447 45.937 16.7197 46.4544 16.7197C46.9718 16.7197 47.3968 17.1263 47.3968 17.6621Z" fill="black"/>
    <path d="M66.2818 17.6621C66.2818 18.1796 65.8568 18.6046 65.3394 18.6046C64.822 18.6046 64.397 18.1796 64.397 17.6621C64.397 17.1447 64.822 16.7197 65.3394 16.7197C65.8568 16.7197 66.2818 17.1263 66.2818 17.6621Z" fill="black"/>
    <path d="M28.5097 20.8038C28.5097 21.3212 28.0847 21.7462 27.5673 21.7462C27.0499 21.7462 26.6249 21.3212 26.6249 20.8038C26.6249 20.2863 27.0499 19.8613 27.5673 19.8613C28.0847 19.8613 28.5097 20.2863 28.5097 20.8038Z" fill="black"/>
    <path d="M34.8099 20.8038C34.8099 21.3212 34.3849 21.7462 33.8675 21.7462C33.3501 21.7462 32.925 21.3212 32.925 20.8038C32.925 20.2863 33.3501 19.8613 33.8675 19.8613C34.3849 19.8613 34.8099 20.2863 34.8099 20.8038Z" fill="black"/>
    <path d="M41.0946 20.8038C41.0946 21.3212 40.6695 21.7462 40.1521 21.7462C39.6347 21.7462 39.2097 21.3212 39.2097 20.8038C39.2097 20.2863 39.6347 19.8613 40.1521 19.8613C40.6695 19.8613 41.0946 20.2863 41.0946 20.8038Z" fill="black"/>
    <path d="M47.3968 20.8038C47.3968 21.3212 46.9718 21.7462 46.4544 21.7462C45.937 21.7462 45.512 21.3212 45.512 20.8038C45.512 20.2863 45.937 19.8613 46.4544 19.8613C46.9718 19.8613 47.3968 20.2863 47.3968 20.8038Z" fill="black"/>
    <path d="M53.697 20.8038C53.697 21.3212 53.272 21.7462 52.7546 21.7462C52.2371 21.7462 51.8121 21.3212 51.8121 20.8038C51.8121 20.2863 52.2371 19.8613 52.7546 19.8613C53.272 19.8613 53.697 20.2863 53.697 20.8038Z" fill="black"/>
    <path d="M59.9797 20.8038C59.9797 21.3212 59.5547 21.7462 59.0373 21.7462C58.5199 21.7462 58.0948 21.3212 58.0948 20.8038C58.0948 20.2863 58.5199 19.8613 59.0373 19.8613C59.5732 19.8613 59.9797 20.2863 59.9797 20.8038Z" fill="black"/>
    <path d="M66.2818 20.8038C66.2818 21.3212 65.8568 21.7462 65.3394 21.7462C64.822 21.7462 64.397 21.3212 64.397 20.8038C64.397 20.2863 64.822 19.8613 65.3394 19.8613C65.8568 19.8613 66.2818 20.2863 66.2818 20.8038Z" fill="black"/>
    <path d="M34.8099 23.9454C34.8099 24.4628 34.3849 24.8878 33.8675 24.8878C33.3501 24.8878 32.925 24.4628 32.925 23.9454C32.925 23.4279 33.3501 23.0029 33.8675 23.0029C34.3849 23.0029 34.8099 23.4279 34.8099 23.9454Z" fill="black"/>
    <path d="M47.3968 23.9454C47.3968 24.4628 46.9718 24.8878 46.4544 24.8878C45.937 24.8878 45.512 24.4628 45.512 23.9454C45.512 23.4279 45.937 23.0029 46.4544 23.0029C46.9718 23.0029 47.3968 23.4279 47.3968 23.9454Z" fill="black"/>
    <path d="M59.9797 23.9454C59.9797 24.4628 59.5547 24.8878 59.0373 24.8878C58.5199 24.8878 58.0948 24.4628 58.0948 23.9454C58.0948 23.4279 58.5199 23.0029 59.0373 23.0029C59.5732 23.0029 59.9797 23.4279 59.9797 23.9454Z" fill="black"/>
    <path d="M3.3243 27.1055C3.3243 27.6229 2.89928 28.0479 2.38187 28.0479C1.86447 28.0479 1.43945 27.6229 1.43945 27.1055C1.43945 26.5881 1.86447 26.1631 2.38187 26.1631C2.89928 26.1631 3.3243 26.5881 3.3243 27.1055Z" fill="black"/>
    <path d="M12.7657 27.1055C12.7657 27.6229 12.3407 28.0479 11.8233 28.0479C11.3059 28.0479 10.8809 27.6229 10.8809 27.1055C10.8809 26.5881 11.3059 26.1631 11.8233 26.1631C12.3407 26.1631 12.7657 26.5881 12.7657 27.1055Z" fill="black"/>
    <path d="M15.9071 27.1055C15.9071 27.6229 15.482 28.0479 14.9646 28.0479C14.4472 28.0479 14.0222 27.6229 14.0222 27.1055C14.0222 26.5881 14.4472 26.1631 14.9646 26.1631C15.5005 26.1631 15.9071 26.5881 15.9071 27.1055Z" fill="black"/>
    <path d="M19.0679 27.1055C19.0679 27.6229 18.6429 28.0479 18.1255 28.0479C17.6081 28.0479 17.1831 27.6229 17.1831 27.1055C17.1831 26.5881 17.6081 26.1631 18.1255 26.1631C18.6429 26.1631 19.0679 26.5881 19.0679 27.1055Z" fill="black"/>
    <path d="M22.2094 27.1055C22.2094 27.6229 21.7844 28.0479 21.267 28.0479C20.7496 28.0479 20.3246 27.6229 20.3246 27.1055C20.3246 26.5881 20.7496 26.1631 21.267 26.1631C21.7844 26.1631 22.2094 26.5881 22.2094 27.1055Z" fill="black"/>
    <path d="M25.3682 27.1055C25.3682 27.6229 24.9432 28.0479 24.4258 28.0479C23.9084 28.0479 23.4834 27.6229 23.4834 27.1055C23.4834 26.5881 23.9084 26.1631 24.4258 26.1631C24.9432 26.1631 25.3682 26.5881 25.3682 27.1055Z" fill="black"/>
    <path d="M28.5097 27.1055C28.5097 27.6229 28.0847 28.0479 27.5673 28.0479C27.0499 28.0479 26.6249 27.6229 26.6249 27.1055C26.6249 26.5881 27.0499 26.1631 27.5673 26.1631C28.0847 26.1631 28.5097 26.5881 28.5097 27.1055Z" fill="black"/>
    <path d="M34.8099 27.1055C34.8099 27.6229 34.3849 28.0479 33.8675 28.0479C33.3501 28.0479 32.925 27.6229 32.925 27.1055C32.925 26.5881 33.3501 26.1631 33.8675 26.1631C34.3849 26.1631 34.8099 26.5881 34.8099 27.1055Z" fill="black"/>
    <path d="M41.0946 27.1055C41.0946 27.6229 40.6695 28.0479 40.1521 28.0479C39.6347 28.0479 39.2097 27.6229 39.2097 27.1055C39.2097 26.5881 39.6347 26.1631 40.1521 26.1631C40.6695 26.1631 41.0946 26.5881 41.0946 27.1055Z" fill="black"/>
    <path d="M44.2554 27.1055C44.2554 27.6229 43.8304 28.0479 43.313 28.0479C42.7956 28.0479 42.3706 27.6229 42.3706 27.1055C42.3706 26.5881 42.7956 26.1631 43.313 26.1631C43.8304 26.1631 44.2554 26.5881 44.2554 27.1055Z" fill="black"/>
    <path d="M47.3968 27.1055C47.3968 27.6229 46.9718 28.0479 46.4544 28.0479C45.937 28.0479 45.512 27.6229 45.512 27.1055C45.512 26.5881 45.937 26.1631 46.4544 26.1631C46.9718 26.1631 47.3968 26.5881 47.3968 27.1055Z" fill="black"/>
    <path d="M50.5361 27.1055C50.5361 27.6229 50.1111 28.0479 49.5937 28.0479C49.0763 28.0479 48.6512 27.6229 48.6512 27.1055C48.6512 26.5881 49.0763 26.1631 49.5937 26.1631C50.1296 26.1631 50.5361 26.5881 50.5361 27.1055Z" fill="black"/>
    <path d="M53.697 27.1055C53.697 27.6229 53.272 28.0479 52.7546 28.0479C52.2371 28.0479 51.8121 27.6229 51.8121 27.1055C51.8121 26.5881 52.2371 26.1631 52.7546 26.1631C53.272 26.1631 53.697 26.5881 53.697 27.1055Z" fill="black"/>
    <path d="M56.8383 27.1055C56.8383 27.6229 56.4133 28.0479 55.8959 28.0479C55.3785 28.0479 54.9535 27.6229 54.9535 27.1055C54.9535 26.5881 55.3785 26.1631 55.8959 26.1631C56.4133 26.1631 56.8383 26.5881 56.8383 27.1055Z" fill="black"/>
    <path d="M63.1386 27.1055C63.1386 27.6229 62.7136 28.0479 62.1962 28.0479C61.6788 28.0479 61.2538 27.6229 61.2538 27.1055C61.2538 26.5881 61.6788 26.1631 62.1962 26.1631C62.7136 26.1631 63.1386 26.5881 63.1386 27.1055Z" fill="black"/>
    <path d="M69.4409 27.1055C69.4409 27.6229 69.0159 28.0479 68.4985 28.0479C67.981 28.0479 67.556 27.6229 67.556 27.1055C67.556 26.5881 67.981 26.1631 68.4985 26.1631C69.0159 26.1631 69.4409 26.5881 69.4409 27.1055Z" fill="black"/>
    <path d="M78.8824 27.1055C78.8824 27.6229 78.4574 28.0479 77.94 28.0479C77.4226 28.0479 76.9976 27.6229 76.9976 27.1055C76.9976 26.5881 77.4226 26.1631 77.94 26.1631C78.4574 26.1631 78.8824 26.5881 78.8824 27.1055Z" fill="black"/>
    <path d="M85.1651 27.1055C85.1651 27.6229 84.7401 28.0479 84.2227 28.0479C83.7053 28.0479 83.2803 27.6229 83.2803 27.1055C83.2803 26.5881 83.7053 26.1631 84.2227 26.1631C84.7401 26.1631 85.1651 26.5881 85.1651 27.1055Z" fill="black"/>
    <path d="M88.328 27.1055C88.328 27.6229 87.9029 28.0479 87.3855 28.0479C86.8681 28.0479 86.4431 27.6229 86.4431 27.1055C86.4431 26.5881 86.8681 26.1631 87.3855 26.1631C87.9029 26.1631 88.328 26.5881 88.328 27.1055Z" fill="black"/>
    <path d="M91.4674 27.1055C91.4674 27.6229 91.0423 28.0479 90.5249 28.0479C90.0075 28.0479 89.5825 27.6229 89.5825 27.1055C89.5825 26.5881 90.0075 26.1631 90.5249 26.1631C91.0423 26.1631 91.4674 26.5881 91.4674 27.1055Z" fill="black"/>
    <path d="M6.46553 30.2461C6.46553 30.7635 6.04052 31.1886 5.52311 31.1886C5.0057 31.1886 4.58069 30.7635 4.58069 30.2461C4.58069 29.7287 5.0057 29.3037 5.52311 29.3037C6.04052 29.3037 6.46553 29.7287 6.46553 30.2461Z" fill="black"/>
    <path d="M9.62459 30.2461C9.62459 30.7635 9.19957 31.1886 8.68217 31.1886C8.16476 31.1886 7.73975 30.7635 7.73975 30.2461C7.73975 29.7287 8.16476 29.3037 8.68217 29.3037C9.19957 29.3037 9.62459 29.7287 9.62459 30.2461Z" fill="black"/>
    <path d="M12.7657 30.2461C12.7657 30.7635 12.3407 31.1886 11.8233 31.1886C11.3059 31.1886 10.8809 30.7635 10.8809 30.2461C10.8809 29.7287 11.3059 29.3037 11.8233 29.3037C12.3407 29.3037 12.7657 29.7287 12.7657 30.2461Z" fill="black"/>
    <path d="M25.3682 30.2461C25.3682 30.7635 24.9432 31.1886 24.4258 31.1886C23.9084 31.1886 23.4834 30.7635 23.4834 30.2461C23.4834 29.7287 23.9084 29.3037 24.4258 29.3037C24.9432 29.3037 25.3682 29.7287 25.3682 30.2461Z" fill="black"/>
    <path d="M34.8099 30.2461C34.8099 30.7635 34.3849 31.1886 33.8675 31.1886C33.3501 31.1886 32.925 30.7635 32.925 30.2461C32.925 29.7287 33.3501 29.3037 33.8675 29.3037C34.3849 29.3037 34.8099 29.7287 34.8099 30.2461Z" fill="black"/>
    <path d="M37.9531 30.2461C37.9531 30.7635 37.5281 31.1886 37.0107 31.1886C36.4933 31.1886 36.0682 30.7635 36.0682 30.2461C36.0682 29.7287 36.4933 29.3037 37.0107 29.3037C37.5281 29.3037 37.9531 29.7287 37.9531 30.2461Z" fill="black"/>
    <path d="M47.3968 30.2461C47.3968 30.7635 46.9718 31.1886 46.4544 31.1886C45.937 31.1886 45.512 30.7635 45.512 30.2461C45.512 29.7287 45.937 29.3037 46.4544 29.3037C46.9718 29.3037 47.3968 29.7287 47.3968 30.2461Z" fill="black"/>
    <path d="M63.1386 30.2461C63.1386 30.7635 62.7136 31.1886 62.1962 31.1886C61.6788 31.1886 61.2538 30.7635 61.2538 30.2461C61.2538 29.7287 61.6788 29.3037 62.1962 29.3037C62.7136 29.3037 63.1386 29.7287 63.1386 30.2461Z" fill="black"/>
    <path d="M69.4409 30.2461C69.4409 30.7635 69.0159 31.1886 68.4985 31.1886C67.981 31.1886 67.556 30.7635 67.556 30.2461C67.556 29.7287 67.981 29.3037 68.4985 29.3037C69.0159 29.3037 69.4409 29.7287 69.4409 30.2461Z" fill="black"/>
    <path d="M75.7235 30.2461C75.7235 30.7635 75.2985 31.1886 74.781 31.1886C74.2636 31.1886 73.8386 30.7635 73.8386 30.2461C73.8386 29.7287 74.2636 29.3037 74.781 29.3037C75.2985 29.3037 75.7235 29.7287 75.7235 30.2461Z" fill="black"/>
    <path d="M78.8824 30.2461C78.8824 30.7635 78.4574 31.1886 77.94 31.1886C77.4226 31.1886 76.9976 30.7635 76.9976 30.2461C76.9976 29.7287 77.4226 29.3037 77.94 29.3037C78.4574 29.3037 78.8824 29.7287 78.8824 30.2461Z" fill="black"/>
    <path d="M85.1651 30.2461C85.1651 30.7635 84.7401 31.1886 84.2227 31.1886C83.7053 31.1886 83.2803 30.7635 83.2803 30.2461C83.2803 29.7287 83.7053 29.3037 84.2227 29.3037C84.7401 29.3037 85.1651 29.7287 85.1651 30.2461Z" fill="black"/>
    <path d="M88.328 30.2461C88.328 30.7635 87.9029 31.1886 87.3855 31.1886C86.8681 31.1886 86.4431 30.7635 86.4431 30.2461C86.4431 29.7287 86.8681 29.3037 87.3855 29.3037C87.9029 29.3037 88.328 29.7287 88.328 30.2461Z" fill="black"/>
    <path d="M3.3243 33.4069C3.3243 33.9243 2.89928 34.3493 2.38187 34.3493C1.86447 34.3493 1.43945 33.9243 1.43945 33.4069C1.43945 32.8895 1.86447 32.4644 2.38187 32.4644C2.89928 32.446 3.3243 32.871 3.3243 33.4069Z" fill="black"/>
    <path d="M9.62459 33.4069C9.62459 33.9243 9.19957 34.3493 8.68217 34.3493C8.16476 34.3493 7.73975 33.9243 7.73975 33.4069C7.73975 32.8895 8.16476 32.4644 8.68217 32.4644C9.19957 32.446 9.62459 32.871 9.62459 33.4069Z" fill="black"/>
    <path d="M22.2094 33.4069C22.2094 33.9243 21.7844 34.3493 21.267 34.3493C20.7496 34.3493 20.3246 33.9243 20.3246 33.4069C20.3246 32.8895 20.7496 32.4644 21.267 32.4644C21.7844 32.446 22.2094 32.871 22.2094 33.4069Z" fill="black"/>
    <path d="M25.3682 33.4069C25.3682 33.9243 24.9432 34.3493 24.4258 34.3493C23.9084 34.3493 23.4834 33.9243 23.4834 33.4069C23.4834 32.8895 23.9084 32.4644 24.4258 32.4644C24.9432 32.446 25.3682 32.871 25.3682 33.4069Z" fill="black"/>
    <path d="M37.9531 33.4069C37.9531 33.9243 37.5281 34.3493 37.0107 34.3493C36.4933 34.3493 36.0682 33.9243 36.0682 33.4069C36.0682 32.8895 36.4933 32.4644 37.0107 32.4644C37.5281 32.446 37.9531 32.871 37.9531 33.4069Z" fill="black"/>
    <path d="M47.3968 33.4069C47.3968 33.9243 46.9718 34.3493 46.4544 34.3493C45.937 34.3493 45.512 33.9243 45.512 33.4069C45.512 32.8895 45.937 32.4644 46.4544 32.4644C46.9718 32.446 47.3968 32.871 47.3968 33.4069Z" fill="black"/>
    <path d="M56.8383 33.4069C56.8383 33.9243 56.4133 34.3493 55.8959 34.3493C55.3785 34.3493 54.9535 33.9243 54.9535 33.4069C54.9535 32.8895 55.3785 32.4644 55.8959 32.4644C56.4133 32.446 56.8383 32.871 56.8383 33.4069Z" fill="black"/>
    <path d="M66.2818 33.4069C66.2818 33.9243 65.8568 34.3493 65.3394 34.3493C64.822 34.3493 64.397 33.9243 64.397 33.4069C64.397 32.8895 64.822 32.4644 65.3394 32.4644C65.8568 32.446 66.2818 32.871 66.2818 33.4069Z" fill="black"/>
    <path d="M75.7235 33.4063C75.7235 33.9237 75.2985 34.3487 74.781 34.3487C74.2636 34.3487 73.8386 33.9237 73.8386 33.4063C73.8386 32.8889 74.2636 32.4639 74.781 32.4639C75.2985 32.4639 75.7235 32.8704 75.7235 33.4063Z" fill="black"/>
    <path d="M85.1651 33.4063C85.1651 33.9237 84.7401 34.3487 84.2227 34.3487C83.7053 34.3487 83.2803 33.9237 83.2803 33.4063C83.2803 32.8889 83.7053 32.4639 84.2227 32.4639C84.7401 32.4639 85.1651 32.8704 85.1651 33.4063Z" fill="black"/>
    <path d="M6.46553 36.5479C6.46553 37.0653 6.04052 37.4903 5.52311 37.4903C5.0057 37.4903 4.58069 37.0653 4.58069 36.5479C4.58069 36.0305 5.0057 35.6055 5.52311 35.6055C6.04052 35.6055 6.46553 36.0305 6.46553 36.5479Z" fill="black"/>
    <path d="M25.3682 36.5479C25.3682 37.0653 24.9432 37.4903 24.4258 37.4903C23.9084 37.4903 23.4834 37.0653 23.4834 36.5479C23.4834 36.0305 23.9084 35.6055 24.4258 35.6055C24.9432 35.6055 25.3682 36.0305 25.3682 36.5479Z" fill="black"/>
    <path d="M28.5097 36.5479C28.5097 37.0653 28.0847 37.4903 27.5673 37.4903C27.0499 37.4903 26.6249 37.0653 26.6249 36.5479C26.6249 36.0305 27.0499 35.6055 27.5673 35.6055C28.0847 35.6055 28.5097 36.0305 28.5097 36.5479Z" fill="black"/>
    <path d="M34.8099 36.5479C34.8099 37.0653 34.3849 37.4903 33.8675 37.4903C33.3501 37.4903 32.925 37.0653 32.925 36.5479C32.925 36.0305 33.3501 35.6055 33.8675 35.6055C34.3849 35.6055 34.8099 36.0305 34.8099 36.5479Z" fill="black"/>
    <path d="M47.3968 36.5479C47.3968 37.0653 46.9718 37.4903 46.4544 37.4903C45.937 37.4903 45.512 37.0653 45.512 36.5479C45.512 36.0305 45.937 35.6055 46.4544 35.6055C46.9718 35.6055 47.3968 36.0305 47.3968 36.5479Z" fill="black"/>
    <path d="M50.5361 36.5479C50.5361 37.0653 50.1111 37.4903 49.5937 37.4903C49.0763 37.4903 48.6512 37.0653 48.6512 36.5479C48.6512 36.0305 49.0763 35.6055 49.5937 35.6055C50.1296 35.6055 50.5361 36.0305 50.5361 36.5479Z" fill="black"/>
    <path d="M56.8383 36.5479C56.8383 37.0653 56.4133 37.4903 55.8959 37.4903C55.3785 37.4903 54.9535 37.0653 54.9535 36.5479C54.9535 36.0305 55.3785 35.6055 55.8959 35.6055C56.4133 35.6055 56.8383 36.0305 56.8383 36.5479Z" fill="black"/>
    <path d="M63.1386 36.5479C63.1386 37.0653 62.7136 37.4903 62.1962 37.4903C61.6788 37.4903 61.2538 37.0653 61.2538 36.5479C61.2538 36.0305 61.6788 35.6055 62.1962 35.6055C62.7136 35.6055 63.1386 36.0305 63.1386 36.5479Z" fill="black"/>
    <path d="M66.2818 36.5479C66.2818 37.0653 65.8568 37.4903 65.3394 37.4903C64.822 37.4903 64.397 37.0653 64.397 36.5479C64.397 36.0305 64.822 35.6055 65.3394 35.6055C65.8568 35.6055 66.2818 36.0305 66.2818 36.5479Z" fill="black"/>
    <path d="M72.5821 36.5479C72.5821 37.0653 72.1571 37.4903 71.6397 37.4903C71.1223 37.4903 70.6973 37.0653 70.6973 36.5479C70.6973 36.0305 71.1223 35.6055 71.6397 35.6055C72.1571 35.6055 72.5821 36.0305 72.5821 36.5479Z" fill="black"/>
    <path d="M75.7235 36.5479C75.7235 37.0653 75.2985 37.4903 74.781 37.4903C74.2636 37.4903 73.8386 37.0653 73.8386 36.5479C73.8386 36.0305 74.2636 35.6055 74.781 35.6055C75.2985 35.6055 75.7235 36.0305 75.7235 36.5479Z" fill="black"/>
    <path d="M78.8824 36.5479C78.8824 37.0653 78.4574 37.4903 77.94 37.4903C77.4226 37.4903 76.9976 37.0653 76.9976 36.5479C76.9976 36.0305 77.4226 35.6055 77.94 35.6055C78.4574 35.6055 78.8824 36.0305 78.8824 36.5479Z" fill="black"/>
    <path d="M82.0258 36.5479C82.0258 37.0653 81.6008 37.4903 81.0834 37.4903C80.566 37.4903 80.141 37.0653 80.141 36.5479C80.141 36.0305 80.566 35.6055 81.0834 35.6055C81.6008 35.6055 82.0258 36.0305 82.0258 36.5479Z" fill="black"/>
    <path d="M91.4674 36.5479C91.4674 37.0653 91.0423 37.4903 90.5249 37.4903C90.0075 37.4903 89.5825 37.0653 89.5825 36.5479C89.5825 36.0305 90.0075 35.6055 90.5249 35.6055C91.0423 35.6055 91.4674 36.0305 91.4674 36.5479Z" fill="black"/>
    <path d="M12.7657 39.6885C12.7657 40.2059 12.3407 40.6309 11.8233 40.6309C11.3059 40.6309 10.8809 40.2059 10.8809 39.6885C10.8809 39.1711 11.3059 38.7461 11.8233 38.7461C12.3407 38.7461 12.7657 39.1711 12.7657 39.6885Z" fill="black"/>
    <path d="M15.9071 39.6885C15.9071 40.2059 15.482 40.6309 14.9646 40.6309C14.4472 40.6309 14.0222 40.2059 14.0222 39.6885C14.0222 39.1711 14.4472 38.7461 14.9646 38.7461C15.5005 38.7461 15.9071 39.1711 15.9071 39.6885Z" fill="black"/>
    <path d="M22.2094 39.6885C22.2094 40.2059 21.7844 40.6309 21.267 40.6309C20.7496 40.6309 20.3246 40.2059 20.3246 39.6885C20.3246 39.1711 20.7496 38.7461 21.267 38.7461C21.7844 38.7461 22.2094 39.1711 22.2094 39.6885Z" fill="black"/>
    <path d="M31.651 39.6885C31.651 40.2059 31.2259 40.6309 30.7085 40.6309C30.1911 40.6309 29.7661 40.2059 29.7661 39.6885C29.7661 39.1711 30.1911 38.7461 30.7085 38.7461C31.2259 38.7461 31.651 39.1711 31.651 39.6885Z" fill="black"/>
    <path d="M37.9531 39.6885C37.9531 40.2059 37.5281 40.6309 37.0107 40.6309C36.4933 40.6309 36.0682 40.2059 36.0682 39.6885C36.0682 39.1711 36.4933 38.7461 37.0107 38.7461C37.5281 38.7461 37.9531 39.1711 37.9531 39.6885Z" fill="black"/>
    <path d="M44.2554 39.6885C44.2554 40.2059 43.8304 40.6309 43.313 40.6309C42.7956 40.6309 42.3706 40.2059 42.3706 39.6885C42.3706 39.1711 42.7956 38.7461 43.313 38.7461C43.8304 38.7461 44.2554 39.1711 44.2554 39.6885Z" fill="black"/>
    <path d="M47.3968 39.6885C47.3968 40.2059 46.9718 40.6309 46.4544 40.6309C45.937 40.6309 45.512 40.2059 45.512 39.6885C45.512 39.1711 45.937 38.7461 46.4544 38.7461C46.9718 38.7461 47.3968 39.1711 47.3968 39.6885Z" fill="black"/>
    <path d="M66.2818 39.6885C66.2818 40.2059 65.8568 40.6309 65.3394 40.6309C64.822 40.6309 64.397 40.2059 64.397 39.6885C64.397 39.1711 64.822 38.7461 65.3394 38.7461C65.8568 38.7461 66.2818 39.1711 66.2818 39.6885Z" fill="black"/>
    <path d="M72.5821 39.6885C72.5821 40.2059 72.1571 40.6309 71.6397 40.6309C71.1223 40.6309 70.6973 40.2059 70.6973 39.6885C70.6973 39.1711 71.1223 38.7461 71.6397 38.7461C72.1571 38.7461 72.5821 39.1711 72.5821 39.6885Z" fill="black"/>
    <path d="M91.4674 39.6885C91.4674 40.2059 91.0423 40.6309 90.5249 40.6309C90.0075 40.6309 89.5825 40.2059 89.5825 39.6885C89.5825 39.1711 90.0075 38.7461 90.5249 38.7461C91.0423 38.7461 91.4674 39.1711 91.4674 39.6885Z" fill="black"/>
    <path d="M3.3243 42.8493C3.3243 43.3667 2.89928 43.7917 2.38187 43.7917C1.86447 43.7917 1.43945 43.3667 1.43945 42.8493C1.43945 42.3318 1.86447 41.9068 2.38187 41.9068C2.89928 41.8884 3.3243 42.3134 3.3243 42.8493Z" fill="black"/>
    <path d="M6.46553 42.8493C6.46553 43.3667 6.04052 43.7917 5.52311 43.7917C5.0057 43.7917 4.58069 43.3667 4.58069 42.8493C4.58069 42.3318 5.0057 41.9068 5.52311 41.9068C6.04052 41.8884 6.46553 42.3134 6.46553 42.8493Z" fill="black"/>
    <path d="M9.62459 42.8493C9.62459 43.3667 9.19957 43.7917 8.68217 43.7917C8.16476 43.7917 7.73975 43.3667 7.73975 42.8493C7.73975 42.3318 8.16476 41.9068 8.68217 41.9068C9.19957 41.8884 9.62459 42.3134 9.62459 42.8493Z" fill="black"/>
    <path d="M12.7657 42.8493C12.7657 43.3667 12.3407 43.7917 11.8233 43.7917C11.3059 43.7917 10.8809 43.3667 10.8809 42.8493C10.8809 42.3318 11.3059 41.9068 11.8233 41.9068C12.3407 41.8884 12.7657 42.3134 12.7657 42.8493Z" fill="black"/>
    <path d="M25.3682 42.8493C25.3682 43.3667 24.9432 43.7917 24.4258 43.7917C23.9084 43.7917 23.4834 43.3667 23.4834 42.8493C23.4834 42.3318 23.9084 41.9068 24.4258 41.9068C24.9432 41.8884 25.3682 42.3134 25.3682 42.8493Z" fill="black"/>
    <path d="M28.5097 42.8493C28.5097 43.3667 28.0847 43.7917 27.5673 43.7917C27.0499 43.7917 26.6249 43.3667 26.6249 42.8493C26.6249 42.3318 27.0499 41.9068 27.5673 41.9068C28.0847 41.8884 28.5097 42.3134 28.5097 42.8493Z" fill="black"/>
    <path d="M34.8099 42.8493C34.8099 43.3667 34.3849 43.7917 33.8675 43.7917C33.3501 43.7917 32.925 43.3667 32.925 42.8493C32.925 42.3318 33.3501 41.9068 33.8675 41.9068C34.3849 41.8884 34.8099 42.3134 34.8099 42.8493Z" fill="black"/>
    <path d="M37.9531 42.8493C37.9531 43.3667 37.5281 43.7917 37.0107 43.7917C36.4933 43.7917 36.0682 43.3667 36.0682 42.8493C36.0682 42.3318 36.4933 41.9068 37.0107 41.9068C37.5281 41.8884 37.9531 42.3134 37.9531 42.8493Z" fill="black"/>
    <path d="M41.0946 42.8487C41.0946 43.3661 40.6695 43.7911 40.1521 43.7911C39.6347 43.7911 39.2097 43.3661 39.2097 42.8487C39.2097 42.3313 39.6347 41.9062 40.1521 41.9062C40.6695 41.9062 41.0946 42.3128 41.0946 42.8487Z" fill="black"/>
    <path d="M59.9797 42.8493C59.9797 43.3667 59.5547 43.7917 59.0373 43.7917C58.5199 43.7917 58.0948 43.3667 58.0948 42.8493C58.0948 42.3318 58.5199 41.9068 59.0373 41.9068C59.5732 41.8884 59.9797 42.3134 59.9797 42.8493Z" fill="black"/>
    <path d="M66.2818 42.8493C66.2818 43.3667 65.8568 43.7917 65.3394 43.7917C64.822 43.7917 64.397 43.3667 64.397 42.8493C64.397 42.3318 64.822 41.9068 65.3394 41.9068C65.8568 41.8884 66.2818 42.3134 66.2818 42.8493Z" fill="black"/>
    <path d="M69.4409 42.8487C69.4409 43.3661 69.0159 43.7911 68.4985 43.7911C67.981 43.7911 67.556 43.3661 67.556 42.8487C67.556 42.3313 67.981 41.9062 68.4985 41.9062C69.0159 41.9062 69.4409 42.3128 69.4409 42.8487Z" fill="black"/>
    <path d="M72.5821 42.8487C72.5821 43.3661 72.1571 43.7911 71.6397 43.7911C71.1223 43.7911 70.6973 43.3661 70.6973 42.8487C70.6973 42.3313 71.1223 41.9062 71.6397 41.9062C72.1571 41.9062 72.5821 42.3128 72.5821 42.8487Z" fill="black"/>
    <path d="M75.7235 42.8487C75.7235 43.3661 75.2985 43.7911 74.781 43.7911C74.2636 43.7911 73.8386 43.3661 73.8386 42.8487C73.8386 42.3313 74.2636 41.9062 74.781 41.9062C75.2985 41.9062 75.7235 42.3128 75.7235 42.8487Z" fill="black"/>
    <path d="M78.8824 42.8487C78.8824 43.3661 78.4574 43.7911 77.94 43.7911C77.4226 43.7911 76.9976 43.3661 76.9976 42.8487C76.9976 42.3313 77.4226 41.9062 77.94 41.9062C78.4574 41.9062 78.8824 42.3128 78.8824 42.8487Z" fill="black"/>
    <path d="M82.0258 42.8493C82.0258 43.3667 81.6008 43.7917 81.0834 43.7917C80.566 43.7917 80.141 43.3667 80.141 42.8493C80.141 42.3318 80.566 41.9068 81.0834 41.9068C81.6008 41.8884 82.0258 42.3134 82.0258 42.8493Z" fill="black"/>
    <path d="M85.1651 42.8487C85.1651 43.3661 84.7401 43.7911 84.2227 43.7911C83.7053 43.7911 83.2803 43.3661 83.2803 42.8487C83.2803 42.3313 83.7053 41.9062 84.2227 41.9062C84.7401 41.9062 85.1651 42.3128 85.1651 42.8487Z" fill="black"/>
    <path d="M88.328 42.8487C88.328 43.3661 87.9029 43.7911 87.3855 43.7911C86.8681 43.7911 86.4431 43.3661 86.4431 42.8487C86.4431 42.3313 86.8681 41.9062 87.3855 41.9062C87.9029 41.9062 88.328 42.3128 88.328 42.8487Z" fill="black"/>
    <path d="M91.4674 42.8487C91.4674 43.3661 91.0423 43.7911 90.5249 43.7911C90.0075 43.7911 89.5825 43.3661 89.5825 42.8487C89.5825 42.3313 90.0075 41.9062 90.5249 41.9062C91.0423 41.9062 91.4674 42.3128 91.4674 42.8487Z" fill="black"/>
    <path d="M3.3243 45.9903C3.3243 46.5077 2.89928 46.9327 2.38187 46.9327C1.86447 46.9327 1.43945 46.5077 1.43945 45.9903C1.43945 45.4729 1.86447 45.0479 2.38187 45.0479C2.89928 45.0479 3.3243 45.4729 3.3243 45.9903Z" fill="black"/>
    <path d="M6.46553 45.9903C6.46553 46.5077 6.04052 46.9327 5.52311 46.9327C5.0057 46.9327 4.58069 46.5077 4.58069 45.9903C4.58069 45.4729 5.0057 45.0479 5.52311 45.0479C6.04052 45.0479 6.46553 45.4729 6.46553 45.9903Z" fill="black"/>
    <path d="M19.0679 45.9903C19.0679 46.5077 18.6429 46.9327 18.1255 46.9327C17.6081 46.9327 17.1831 46.5077 17.1831 45.9903C17.1831 45.4729 17.6081 45.0479 18.1255 45.0479C18.6429 45.0479 19.0679 45.4729 19.0679 45.9903Z" fill="black"/>
    <path d="M22.2094 45.9903C22.2094 46.5077 21.7844 46.9327 21.267 46.9327C20.7496 46.9327 20.3246 46.5077 20.3246 45.9903C20.3246 45.4729 20.7496 45.0479 21.267 45.0479C21.7844 45.0479 22.2094 45.4729 22.2094 45.9903Z" fill="black"/>
    <path d="M31.651 45.9903C31.651 46.5077 31.2259 46.9327 30.7085 46.9327C30.1911 46.9327 29.7661 46.5077 29.7661 45.9903C29.7661 45.4729 30.1911 45.0479 30.7085 45.0479C31.2259 45.0479 31.651 45.4729 31.651 45.9903Z" fill="black"/>
    <path d="M34.8099 45.9903C34.8099 46.5077 34.3849 46.9327 33.8675 46.9327C33.3501 46.9327 32.925 46.5077 32.925 45.9903C32.925 45.4729 33.3501 45.0479 33.8675 45.0479C34.3849 45.0479 34.8099 45.4729 34.8099 45.9903Z" fill="black"/>
    <path d="M47.3968 45.9903C47.3968 46.5077 46.9718 46.9327 46.4544 46.9327C45.937 46.9327 45.512 46.5077 45.512 45.9903C45.512 45.4729 45.937 45.0479 46.4544 45.0479C46.9718 45.0479 47.3968 45.4729 47.3968 45.9903Z" fill="black"/>
    <path d="M50.5361 45.9903C50.5361 46.5077 50.1111 46.9327 49.5937 46.9327C49.0763 46.9327 48.6512 46.5077 48.6512 45.9903C48.6512 45.4729 49.0763 45.0479 49.5937 45.0479C50.1296 45.0479 50.5361 45.4729 50.5361 45.9903Z" fill="black"/>
    <path d="M59.9797 45.9903C59.9797 46.5077 59.5547 46.9327 59.0373 46.9327C58.5199 46.9327 58.0948 46.5077 58.0948 45.9903C58.0948 45.4729 58.5199 45.0479 59.0373 45.0479C59.5732 45.0479 59.9797 45.4729 59.9797 45.9903Z" fill="black"/>
    <path d="M63.1386 45.9903C63.1386 46.5077 62.7136 46.9327 62.1962 46.9327C61.6788 46.9327 61.2538 46.5077 61.2538 45.9903C61.2538 45.4729 61.6788 45.0479 62.1962 45.0479C62.7136 45.0479 63.1386 45.4729 63.1386 45.9903Z" fill="black"/>
    <path d="M72.5821 45.9903C72.5821 46.5077 72.1571 46.9327 71.6397 46.9327C71.1223 46.9327 70.6973 46.5077 70.6973 45.9903C70.6973 45.4729 71.1223 45.0479 71.6397 45.0479C72.1571 45.0479 72.5821 45.4729 72.5821 45.9903Z" fill="black"/>
    <path d="M75.7235 45.9903C75.7235 46.5077 75.2985 46.9327 74.781 46.9327C74.2636 46.9327 73.8386 46.5077 73.8386 45.9903C73.8386 45.4729 74.2636 45.0479 74.781 45.0479C75.2985 45.0479 75.7235 45.4729 75.7235 45.9903Z" fill="black"/>
    <path d="M78.8824 45.9903C78.8824 46.5077 78.4574 46.9327 77.94 46.9327C77.4226 46.9327 76.9976 46.5077 76.9976 45.9903C76.9976 45.4729 77.4226 45.0479 77.94 45.0479C78.4574 45.0479 78.8824 45.4729 78.8824 45.9903Z" fill="black"/>
    <path d="M85.1651 45.9903C85.1651 46.5077 84.7401 46.9327 84.2227 46.9327C83.7053 46.9327 83.2803 46.5077 83.2803 45.9903C83.2803 45.4729 83.7053 45.0479 84.2227 45.0479C84.7401 45.0479 85.1651 45.4729 85.1651 45.9903Z" fill="black"/>
    <path d="M91.4674 45.9903C91.4674 46.5077 91.0423 46.9327 90.5249 46.9327C90.0075 46.9327 89.5825 46.5077 89.5825 45.9903C89.5825 45.4729 90.0075 45.0479 90.5249 45.0479C91.0423 45.0479 91.4674 45.4729 91.4674 45.9903Z" fill="black"/>
    <path d="M19.0679 49.1319C19.0679 49.6493 18.6429 50.0743 18.1255 50.0743C17.6081 50.0743 17.1831 49.6493 17.1831 49.1319C17.1831 48.6145 17.6081 48.1895 18.1255 48.1895C18.6429 48.1895 19.0679 48.6145 19.0679 49.1319Z" fill="black"/>
    <path d="M25.3682 49.1319C25.3682 49.6493 24.9432 50.0743 24.4258 50.0743C23.9084 50.0743 23.4834 49.6493 23.4834 49.1319C23.4834 48.6145 23.9084 48.1895 24.4258 48.1895C24.9432 48.1895 25.3682 48.6145 25.3682 49.1319Z" fill="black"/>
    <path d="M28.5097 49.1319C28.5097 49.6493 28.0847 50.0743 27.5673 50.0743C27.0499 50.0743 26.6249 49.6493 26.6249 49.1319C26.6249 48.6145 27.0499 48.1895 27.5673 48.1895C28.0847 48.1895 28.5097 48.6145 28.5097 49.1319Z" fill="black"/>
    <path d="M41.0946 49.1319C41.0946 49.6493 40.6695 50.0743 40.1521 50.0743C39.6347 50.0743 39.2097 49.6493 39.2097 49.1319C39.2097 48.6145 39.6347 48.1895 40.1521 48.1895C40.6695 48.1895 41.0946 48.6145 41.0946 49.1319Z" fill="black"/>
    <path d="M44.2554 49.1319C44.2554 49.6493 43.8304 50.0743 43.313 50.0743C42.7956 50.0743 42.3706 49.6493 42.3706 49.1319C42.3706 48.6145 42.7956 48.1895 43.313 48.1895C43.8304 48.1895 44.2554 48.6145 44.2554 49.1319Z" fill="black"/>
    <path d="M47.3968 49.1319C47.3968 49.6493 46.9718 50.0743 46.4544 50.0743C45.937 50.0743 45.512 49.6493 45.512 49.1319C45.512 48.6145 45.937 48.1895 46.4544 48.1895C46.9718 48.1895 47.3968 48.6145 47.3968 49.1319Z" fill="black"/>
    <path d="M53.697 49.1319C53.697 49.6493 53.272 50.0743 52.7546 50.0743C52.2371 50.0743 51.8121 49.6493 51.8121 49.1319C51.8121 48.6145 52.2371 48.1895 52.7546 48.1895C53.272 48.1895 53.697 48.6145 53.697 49.1319Z" fill="black"/>
    <path d="M72.5821 49.1319C72.5821 49.6493 72.1571 50.0743 71.6397 50.0743C71.1223 50.0743 70.6973 49.6493 70.6973 49.1319C70.6973 48.6145 71.1223 48.1895 71.6397 48.1895C72.1571 48.1895 72.5821 48.6145 72.5821 49.1319Z" fill="black"/>
    <path d="M78.8824 49.1319C78.8824 49.6493 78.4574 50.0743 77.94 50.0743C77.4226 50.0743 76.9976 49.6493 76.9976 49.1319C76.9976 48.6145 77.4226 48.1895 77.94 48.1895C78.4574 48.1895 78.8824 48.6145 78.8824 49.1319Z" fill="black"/>
    <path d="M85.1651 49.1319C85.1651 49.6493 84.7401 50.0743 84.2227 50.0743C83.7053 50.0743 83.2803 49.6493 83.2803 49.1319C83.2803 48.6145 83.7053 48.1895 84.2227 48.1895C84.7401 48.1895 85.1651 48.6145 85.1651 49.1319Z" fill="black"/>
    <path d="M91.4674 49.1319C91.4674 49.6493 91.0423 50.0743 90.5249 50.0743C90.0075 50.0743 89.5825 49.6493 89.5825 49.1319C89.5825 48.6145 90.0075 48.1895 90.5249 48.1895C91.0423 48.1895 91.4674 48.6145 91.4674 49.1319Z" fill="black"/>
    <path d="M3.3243 52.2911C3.3243 52.8085 2.89928 53.2335 2.38187 53.2335C1.86447 53.2335 1.43945 52.8085 1.43945 52.2911C1.43945 51.7736 1.86447 51.3486 2.38187 51.3486C2.89928 51.3486 3.3243 51.7552 3.3243 52.2911Z" fill="black"/>
    <path d="M6.46553 52.2911C6.46553 52.8085 6.04052 53.2335 5.52311 53.2335C5.0057 53.2335 4.58069 52.8085 4.58069 52.2911C4.58069 51.7736 5.0057 51.3486 5.52311 51.3486C6.04052 51.3486 6.46553 51.7552 6.46553 52.2911Z" fill="black"/>
    <path d="M9.62459 52.2911C9.62459 52.8085 9.19957 53.2335 8.68217 53.2335C8.16476 53.2335 7.73975 52.8085 7.73975 52.2911C7.73975 51.7736 8.16476 51.3486 8.68217 51.3486C9.19957 51.3486 9.62459 51.7552 9.62459 52.2911Z" fill="black"/>
    <path d="M12.7657 52.2911C12.7657 52.8085 12.3407 53.2335 11.8233 53.2335C11.3059 53.2335 10.8809 52.8085 10.8809 52.2911C10.8809 51.7736 11.3059 51.3486 11.8233 51.3486C12.3407 51.3486 12.7657 51.7552 12.7657 52.2911Z" fill="black"/>
    <path d="M15.9071 52.2911C15.9071 52.8085 15.482 53.2335 14.9646 53.2335C14.4472 53.2335 14.0222 52.8085 14.0222 52.2911C14.0222 51.7736 14.4472 51.3486 14.9646 51.3486C15.5005 51.3486 15.9071 51.7552 15.9071 52.2911Z" fill="black"/>
    <path d="M19.0679 52.2911C19.0679 52.8085 18.6429 53.2335 18.1255 53.2335C17.6081 53.2335 17.1831 52.8085 17.1831 52.2911C17.1831 51.7736 17.6081 51.3486 18.1255 51.3486C18.6429 51.3486 19.0679 51.7552 19.0679 52.2911Z" fill="black"/>
    <path d="M22.2094 52.2911C22.2094 52.8085 21.7844 53.2335 21.267 53.2335C20.7496 53.2335 20.3246 52.8085 20.3246 52.2911C20.3246 51.7736 20.7496 51.3486 21.267 51.3486C21.7844 51.3486 22.2094 51.7552 22.2094 52.2911Z" fill="black"/>
    <path d="M37.9531 52.2911C37.9531 52.8085 37.5281 53.2335 37.0107 53.2335C36.4933 53.2335 36.0682 52.8085 36.0682 52.2911C36.0682 51.7736 36.4933 51.3486 37.0107 51.3486C37.5281 51.3486 37.9531 51.7552 37.9531 52.2911Z" fill="black"/>
    <path d="M50.5361 52.2911C50.5361 52.8085 50.1111 53.2335 49.5937 53.2335C49.0763 53.2335 48.6512 52.8085 48.6512 52.2911C48.6512 51.7736 49.0763 51.3486 49.5937 51.3486C50.1296 51.3486 50.5361 51.7552 50.5361 52.2911Z" fill="black"/>
    <path d="M59.9797 52.2911C59.9797 52.8085 59.5547 53.2335 59.0373 53.2335C58.5199 53.2335 58.0948 52.8085 58.0948 52.2911C58.0948 51.7736 58.5199 51.3486 59.0373 51.3486C59.5732 51.3486 59.9797 51.7552 59.9797 52.2911Z" fill="black"/>
    <path d="M75.7235 52.2911C75.7235 52.8085 75.2985 53.2335 74.781 53.2335C74.2636 53.2335 73.8386 52.8085 73.8386 52.2911C73.8386 51.7736 74.2636 51.3486 74.781 51.3486C75.2985 51.3486 75.7235 51.7552 75.7235 52.2911Z" fill="black"/>
    <path d="M82.0258 52.2911C82.0258 52.8085 81.6008 53.2335 81.0834 53.2335C80.566 53.2335 80.141 52.8085 80.141 52.2911C80.141 51.7736 80.566 51.3486 81.0834 51.3486C81.6008 51.3486 82.0258 51.7552 82.0258 52.2911Z" fill="black"/>
    <path d="M3.3243 55.4336C3.3243 55.951 2.89928 56.376 2.38187 56.376C1.86447 56.376 1.43945 55.951 1.43945 55.4336C1.43945 54.9162 1.86447 54.4912 2.38187 54.4912C2.89928 54.4912 3.3243 54.9162 3.3243 55.4336Z" fill="black"/>
    <path d="M6.46553 55.4336C6.46553 55.951 6.04052 56.376 5.52311 56.376C5.0057 56.376 4.58069 55.951 4.58069 55.4336C4.58069 54.9162 5.0057 54.4912 5.52311 54.4912C6.04052 54.4912 6.46553 54.9162 6.46553 55.4336Z" fill="black"/>
    <path d="M9.62459 55.4336C9.62459 55.951 9.19957 56.376 8.68217 56.376C8.16476 56.376 7.73975 55.951 7.73975 55.4336C7.73975 54.9162 8.16476 54.4912 8.68217 54.4912C9.19957 54.4912 9.62459 54.9162 9.62459 55.4336Z" fill="black"/>
    <path d="M12.7657 55.4336C12.7657 55.951 12.3407 56.376 11.8233 56.376C11.3059 56.376 10.8809 55.951 10.8809 55.4336C10.8809 54.9162 11.3059 54.4912 11.8233 54.4912C12.3407 54.4912 12.7657 54.9162 12.7657 55.4336Z" fill="black"/>
    <path d="M15.9071 55.4336C15.9071 55.951 15.482 56.376 14.9646 56.376C14.4472 56.376 14.0222 55.951 14.0222 55.4336C14.0222 54.9162 14.4472 54.4912 14.9646 54.4912C15.5005 54.4912 15.9071 54.9162 15.9071 55.4336Z" fill="black"/>
    <path d="M19.0679 55.4336C19.0679 55.951 18.6429 56.376 18.1255 56.376C17.6081 56.376 17.1831 55.951 17.1831 55.4336C17.1831 54.9162 17.6081 54.4912 18.1255 54.4912C18.6429 54.4912 19.0679 54.9162 19.0679 55.4336Z" fill="black"/>
    <path d="M25.3682 55.4336C25.3682 55.951 24.9432 56.376 24.4258 56.376C23.9084 56.376 23.4834 55.951 23.4834 55.4336C23.4834 54.9162 23.9084 54.4912 24.4258 54.4912C24.9432 54.4912 25.3682 54.9162 25.3682 55.4336Z" fill="black"/>
    <path d="M28.5097 55.4336C28.5097 55.951 28.0847 56.376 27.5673 56.376C27.0499 56.376 26.6249 55.951 26.6249 55.4336C26.6249 54.9162 27.0499 54.4912 27.5673 54.4912C28.0847 54.4912 28.5097 54.9162 28.5097 55.4336Z" fill="black"/>
    <path d="M37.9531 55.4336C37.9531 55.951 37.5281 56.376 37.0107 56.376C36.4933 56.376 36.0682 55.951 36.0682 55.4336C36.0682 54.9162 36.4933 54.4912 37.0107 54.4912C37.5281 54.4912 37.9531 54.9162 37.9531 55.4336Z" fill="black"/>
    <path d="M41.0946 55.4336C41.0946 55.951 40.6695 56.376 40.1521 56.376C39.6347 56.376 39.2097 55.951 39.2097 55.4336C39.2097 54.9162 39.6347 54.4912 40.1521 54.4912C40.6695 54.4912 41.0946 54.9162 41.0946 55.4336Z" fill="black"/>
    <path d="M59.9797 55.4336C59.9797 55.951 59.5547 56.376 59.0373 56.376C58.5199 56.376 58.0948 55.951 58.0948 55.4336C58.0948 54.9162 58.5199 54.4912 59.0373 54.4912C59.5732 54.4912 59.9797 54.9162 59.9797 55.4336Z" fill="black"/>
    <path d="M63.1386 55.4336C63.1386 55.951 62.7136 56.376 62.1962 56.376C61.6788 56.376 61.2538 55.951 61.2538 55.4336C61.2538 54.9162 61.6788 54.4912 62.1962 54.4912C62.7136 54.4912 63.1386 54.9162 63.1386 55.4336Z" fill="black"/>
    <path d="M66.2818 55.4336C66.2818 55.951 65.8568 56.376 65.3394 56.376C64.822 56.376 64.397 55.951 64.397 55.4336C64.397 54.9162 64.822 54.4912 65.3394 54.4912C65.8568 54.4912 66.2818 54.9162 66.2818 55.4336Z" fill="black"/>
    <path d="M78.8824 55.4336C78.8824 55.951 78.4574 56.376 77.94 56.376C77.4226 56.376 76.9976 55.951 76.9976 55.4336C76.9976 54.9162 77.4226 54.4912 77.94 54.4912C78.4574 54.4912 78.8824 54.9162 78.8824 55.4336Z" fill="black"/>
    <path d="M85.1651 55.4336C85.1651 55.951 84.7401 56.376 84.2227 56.376C83.7053 56.376 83.2803 55.951 83.2803 55.4336C83.2803 54.9162 83.7053 54.4912 84.2227 54.4912C84.7401 54.4912 85.1651 54.9162 85.1651 55.4336Z" fill="black"/>
    <path d="M88.328 55.4336C88.328 55.951 87.9029 56.376 87.3855 56.376C86.8681 56.376 86.4431 55.951 86.4431 55.4336C86.4431 54.9162 86.8681 54.4912 87.3855 54.4912C87.9029 54.4912 88.328 54.9162 88.328 55.4336Z" fill="black"/>
    <path d="M3.3243 58.5743C3.3243 59.0917 2.89928 59.5167 2.38187 59.5167C1.86447 59.5167 1.43945 59.0917 1.43945 58.5743C1.43945 58.0569 1.86447 57.6318 2.38187 57.6318C2.89928 57.6318 3.3243 58.0569 3.3243 58.5743Z" fill="black"/>
    <path d="M6.46553 58.5743C6.46553 59.0917 6.04052 59.5167 5.52311 59.5167C5.0057 59.5167 4.58069 59.0917 4.58069 58.5743C4.58069 58.0569 5.0057 57.6318 5.52311 57.6318C6.04052 57.6318 6.46553 58.0569 6.46553 58.5743Z" fill="black"/>
    <path d="M9.62459 58.5743C9.62459 59.0917 9.19957 59.5167 8.68217 59.5167C8.16476 59.5167 7.73975 59.0917 7.73975 58.5743C7.73975 58.0569 8.16476 57.6318 8.68217 57.6318C9.19957 57.6318 9.62459 58.0569 9.62459 58.5743Z" fill="black"/>
    <path d="M22.2094 58.5743C22.2094 59.0917 21.7844 59.5167 21.267 59.5167C20.7496 59.5167 20.3246 59.0917 20.3246 58.5743C20.3246 58.0569 20.7496 57.6318 21.267 57.6318C21.7844 57.6318 22.2094 58.0569 22.2094 58.5743Z" fill="black"/>
    <path d="M34.8099 58.5743C34.8099 59.0917 34.3849 59.5167 33.8675 59.5167C33.3501 59.5167 32.925 59.0917 32.925 58.5743C32.925 58.0569 33.3501 57.6318 33.8675 57.6318C34.3849 57.6318 34.8099 58.0569 34.8099 58.5743Z" fill="black"/>
    <path d="M44.2554 58.5743C44.2554 59.0917 43.8304 59.5167 43.313 59.5167C42.7956 59.5167 42.3706 59.0917 42.3706 58.5743C42.3706 58.0569 42.7956 57.6318 43.313 57.6318C43.8304 57.6318 44.2554 58.0569 44.2554 58.5743Z" fill="black"/>
    <path d="M47.3968 58.5743C47.3968 59.0917 46.9718 59.5167 46.4544 59.5167C45.937 59.5167 45.512 59.0917 45.512 58.5743C45.512 58.0569 45.937 57.6318 46.4544 57.6318C46.9718 57.6318 47.3968 58.0569 47.3968 58.5743Z" fill="black"/>
    <path d="M53.697 58.5743C53.697 59.0917 53.272 59.5167 52.7546 59.5167C52.2371 59.5167 51.8121 59.0917 51.8121 58.5743C51.8121 58.0569 52.2371 57.6318 52.7546 57.6318C53.272 57.6318 53.697 58.0569 53.697 58.5743Z" fill="black"/>
    <path d="M63.1386 58.5743C63.1386 59.0917 62.7136 59.5167 62.1962 59.5167C61.6788 59.5167 61.2538 59.0917 61.2538 58.5743C61.2538 58.0569 61.6788 57.6318 62.1962 57.6318C62.7136 57.6318 63.1386 58.0569 63.1386 58.5743Z" fill="black"/>
    <path d="M69.4409 58.5743C69.4409 59.0917 69.0159 59.5167 68.4985 59.5167C67.981 59.5167 67.556 59.0917 67.556 58.5743C67.556 58.0569 67.981 57.6318 68.4985 57.6318C69.0159 57.6318 69.4409 58.0569 69.4409 58.5743Z" fill="black"/>
    <path d="M78.8824 58.5743C78.8824 59.0917 78.4574 59.5167 77.94 59.5167C77.4226 59.5167 76.9976 59.0917 76.9976 58.5743C76.9976 58.0569 77.4226 57.6318 77.94 57.6318C78.4574 57.6318 78.8824 58.0569 78.8824 58.5743Z" fill="black"/>
    <path d="M82.0258 58.5743C82.0258 59.0917 81.6008 59.5167 81.0834 59.5167C80.566 59.5167 80.141 59.0917 80.141 58.5743C80.141 58.0569 80.566 57.6318 81.0834 57.6318C81.6008 57.6318 82.0258 58.0569 82.0258 58.5743Z" fill="black"/>
    <path d="M91.4674 58.5743C91.4674 59.0917 91.0423 59.5167 90.5249 59.5167C90.0075 59.5167 89.5825 59.0917 89.5825 58.5743C89.5825 58.0569 90.0075 57.6318 90.5249 57.6318C91.0423 57.6318 91.4674 58.0569 91.4674 58.5743Z" fill="black"/>
    <path d="M3.3243 61.7344C3.3243 62.2518 2.89928 62.6768 2.38187 62.6768C1.86447 62.6768 1.43945 62.2518 1.43945 61.7344C1.43945 61.217 1.86447 60.792 2.38187 60.792C2.89928 60.792 3.3243 61.217 3.3243 61.7344Z" fill="black"/>
    <path d="M6.46553 61.7344C6.46553 62.2518 6.04052 62.6768 5.52311 62.6768C5.0057 62.6768 4.58069 62.2518 4.58069 61.7344C4.58069 61.217 5.0057 60.792 5.52311 60.792C6.04052 60.792 6.46553 61.217 6.46553 61.7344Z" fill="black"/>
    <path d="M9.62459 61.7344C9.62459 62.2518 9.19957 62.6768 8.68217 62.6768C8.16476 62.6768 7.73975 62.2518 7.73975 61.7344C7.73975 61.217 8.16476 60.792 8.68217 60.792C9.19957 60.792 9.62459 61.217 9.62459 61.7344Z" fill="black"/>
    <path d="M15.9071 61.7344C15.9071 62.2518 15.482 62.6768 14.9646 62.6768C14.4472 62.6768 14.0222 62.2518 14.0222 61.7344C14.0222 61.217 14.4472 60.792 14.9646 60.792C15.5005 60.792 15.9071 61.217 15.9071 61.7344Z" fill="black"/>
    <path d="M37.9531 61.7344C37.9531 62.2518 37.5281 62.6768 37.0107 62.6768C36.4933 62.6768 36.0682 62.2518 36.0682 61.7344C36.0682 61.217 36.4933 60.792 37.0107 60.792C37.5281 60.792 37.9531 61.217 37.9531 61.7344Z" fill="black"/>
    <path d="M44.2554 61.7344C44.2554 62.2518 43.8304 62.6768 43.313 62.6768C42.7956 62.6768 42.3706 62.2518 42.3706 61.7344C42.3706 61.217 42.7956 60.792 43.313 60.792C43.8304 60.792 44.2554 61.217 44.2554 61.7344Z" fill="black"/>
    <path d="M50.5361 61.7344C50.5361 62.2518 50.1111 62.6768 49.5937 62.6768C49.0763 62.6768 48.6512 62.2518 48.6512 61.7344C48.6512 61.217 49.0763 60.792 49.5937 60.792C50.1296 60.792 50.5361 61.217 50.5361 61.7344Z" fill="black"/>
    <path d="M53.697 61.7344C53.697 62.2518 53.272 62.6768 52.7546 62.6768C52.2371 62.6768 51.8121 62.2518 51.8121 61.7344C51.8121 61.217 52.2371 60.792 52.7546 60.792C53.272 60.792 53.697 61.217 53.697 61.7344Z" fill="black"/>
    <path d="M63.1386 61.7344C63.1386 62.2518 62.7136 62.6768 62.1962 62.6768C61.6788 62.6768 61.2538 62.2518 61.2538 61.7344C61.2538 61.217 61.6788 60.792 62.1962 60.792C62.7136 60.792 63.1386 61.217 63.1386 61.7344Z" fill="black"/>
    <path d="M69.4409 61.7344C69.4409 62.2518 69.0159 62.6768 68.4985 62.6768C67.981 62.6768 67.556 62.2518 67.556 61.7344C67.556 61.217 67.981 60.792 68.4985 60.792C69.0159 60.792 69.4409 61.217 69.4409 61.7344Z" fill="black"/>
    <path d="M75.7235 61.7344C75.7235 62.2518 75.2985 62.6768 74.781 62.6768C74.2636 62.6768 73.8386 62.2518 73.8386 61.7344C73.8386 61.217 74.2636 60.792 74.781 60.792C75.2985 60.792 75.7235 61.217 75.7235 61.7344Z" fill="black"/>
    <path d="M82.0258 61.7344C82.0258 62.2518 81.6008 62.6768 81.0834 62.6768C80.566 62.6768 80.141 62.2518 80.141 61.7344C80.141 61.217 80.566 60.792 81.0834 60.792C81.6008 60.792 82.0258 61.217 82.0258 61.7344Z" fill="black"/>
    <path d="M85.1651 61.7344C85.1651 62.2518 84.7401 62.6768 84.2227 62.6768C83.7053 62.6768 83.2803 62.2518 83.2803 61.7344C83.2803 61.217 83.7053 60.792 84.2227 60.792C84.7401 60.792 85.1651 61.217 85.1651 61.7344Z" fill="black"/>
    <path d="M3.3243 64.876C3.3243 65.3934 2.89928 65.8184 2.38187 65.8184C1.86447 65.8184 1.43945 65.3934 1.43945 64.876C1.43945 64.3586 1.86447 63.9336 2.38187 63.9336C2.89928 63.9336 3.3243 64.3586 3.3243 64.876Z" fill="black"/>
    <path d="M6.46553 64.876C6.46553 65.3934 6.04052 65.8184 5.52311 65.8184C5.0057 65.8184 4.58069 65.3934 4.58069 64.876C4.58069 64.3586 5.0057 63.9336 5.52311 63.9336C6.04052 63.9336 6.46553 64.3586 6.46553 64.876Z" fill="black"/>
    <path d="M22.2094 64.876C22.2094 65.3934 21.7844 65.8184 21.267 65.8184C20.7496 65.8184 20.3246 65.3934 20.3246 64.876C20.3246 64.3586 20.7496 63.9336 21.267 63.9336C21.7844 63.9336 22.2094 64.3586 22.2094 64.876Z" fill="black"/>
    <path d="M28.5097 64.876C28.5097 65.3934 28.0847 65.8184 27.5673 65.8184C27.0499 65.8184 26.6249 65.3934 26.6249 64.876C26.6249 64.3586 27.0499 63.9336 27.5673 63.9336C28.0847 63.9336 28.5097 64.3586 28.5097 64.876Z" fill="black"/>
    <path d="M31.651 64.876C31.651 65.3934 31.2259 65.8184 30.7085 65.8184C30.1911 65.8184 29.7661 65.3934 29.7661 64.876C29.7661 64.3586 30.1911 63.9336 30.7085 63.9336C31.2259 63.9336 31.651 64.3586 31.651 64.876Z" fill="black"/>
    <path d="M37.9531 64.876C37.9531 65.3934 37.5281 65.8184 37.0107 65.8184C36.4933 65.8184 36.0682 65.3934 36.0682 64.876C36.0682 64.3586 36.4933 63.9336 37.0107 63.9336C37.5281 63.9336 37.9531 64.3586 37.9531 64.876Z" fill="black"/>
    <path d="M41.0946 64.876C41.0946 65.3934 40.6695 65.8184 40.1521 65.8184C39.6347 65.8184 39.2097 65.3934 39.2097 64.876C39.2097 64.3586 39.6347 63.9336 40.1521 63.9336C40.6695 63.9336 41.0946 64.3586 41.0946 64.876Z" fill="black"/>
    <path d="M44.2554 64.876C44.2554 65.3934 43.8304 65.8184 43.313 65.8184C42.7956 65.8184 42.3706 65.3934 42.3706 64.876C42.3706 64.3586 42.7956 63.9336 43.313 63.9336C43.8304 63.9336 44.2554 64.3586 44.2554 64.876Z" fill="black"/>
    <path d="M59.9797 64.876C59.9797 65.3934 59.5547 65.8184 59.0373 65.8184C58.5199 65.8184 58.0948 65.3934 58.0948 64.876C58.0948 64.3586 58.5199 63.9336 59.0373 63.9336C59.5732 63.9336 59.9797 64.3586 59.9797 64.876Z" fill="black"/>
    <path d="M63.1386 64.876C63.1386 65.3934 62.7136 65.8184 62.1962 65.8184C61.6788 65.8184 61.2538 65.3934 61.2538 64.876C61.2538 64.3586 61.6788 63.9336 62.1962 63.9336C62.7136 63.9336 63.1386 64.3586 63.1386 64.876Z" fill="black"/>
    <path d="M66.2818 64.876C66.2818 65.3934 65.8568 65.8184 65.3394 65.8184C64.822 65.8184 64.397 65.3934 64.397 64.876C64.397 64.3586 64.822 63.9336 65.3394 63.9336C65.8568 63.9336 66.2818 64.3586 66.2818 64.876Z" fill="black"/>
    <path d="M69.4409 64.876C69.4409 65.3934 69.0159 65.8184 68.4985 65.8184C67.981 65.8184 67.556 65.3934 67.556 64.876C67.556 64.3586 67.981 63.9336 68.4985 63.9336C69.0159 63.9336 69.4409 64.3586 69.4409 64.876Z" fill="black"/>
    <path d="M72.5821 64.876C72.5821 65.3934 72.1571 65.8184 71.6397 65.8184C71.1223 65.8184 70.6973 65.3934 70.6973 64.876C70.6973 64.3586 71.1223 63.9336 71.6397 63.9336C72.1571 63.9336 72.5821 64.3586 72.5821 64.876Z" fill="black"/>
    <path d="M75.7235 64.876C75.7235 65.3934 75.2985 65.8184 74.781 65.8184C74.2636 65.8184 73.8386 65.3934 73.8386 64.876C73.8386 64.3586 74.2636 63.9336 74.781 63.9336C75.2985 63.9336 75.7235 64.3586 75.7235 64.876Z" fill="black"/>
    <path d="M78.8824 64.876C78.8824 65.3934 78.4574 65.8184 77.94 65.8184C77.4226 65.8184 76.9976 65.3934 76.9976 64.876C76.9976 64.3586 77.4226 63.9336 77.94 63.9336C78.4574 63.9336 78.8824 64.3586 78.8824 64.876Z" fill="black"/>
    <path d="M82.0258 64.876C82.0258 65.3934 81.6008 65.8184 81.0834 65.8184C80.566 65.8184 80.141 65.3934 80.141 64.876C80.141 64.3586 80.566 63.9336 81.0834 63.9336C81.6008 63.9336 82.0258 64.3586 82.0258 64.876Z" fill="black"/>
    <path d="M85.1651 64.876C85.1651 65.3934 84.7401 65.8184 84.2227 65.8184C83.7053 65.8184 83.2803 65.3934 83.2803 64.876C83.2803 64.3586 83.7053 63.9336 84.2227 63.9336C84.7401 63.9336 85.1651 64.3586 85.1651 64.876Z" fill="black"/>
    <path d="M88.328 64.876C88.328 65.3934 87.9029 65.8184 87.3855 65.8184C86.8681 65.8184 86.4431 65.3934 86.4431 64.876C86.4431 64.3586 86.8681 63.9336 87.3855 63.9336C87.9029 63.9336 88.328 64.3586 88.328 64.876Z" fill="black"/>
    <path d="M28.5097 68.0176C28.5097 68.535 28.0847 68.96 27.5673 68.96C27.0499 68.96 26.6249 68.535 26.6249 68.0176C26.6249 67.5002 27.0499 67.0752 27.5673 67.0752C28.0847 67.0752 28.5097 67.5002 28.5097 68.0176Z" fill="black"/>
    <path d="M37.9531 68.0176C37.9531 68.535 37.5281 68.96 37.0107 68.96C36.4933 68.96 36.0682 68.535 36.0682 68.0176C36.0682 67.5002 36.4933 67.0752 37.0107 67.0752C37.5281 67.0752 37.9531 67.5002 37.9531 68.0176Z" fill="black"/>
    <path d="M41.0946 68.0176C41.0946 68.535 40.6695 68.96 40.1521 68.96C39.6347 68.96 39.2097 68.535 39.2097 68.0176C39.2097 67.5002 39.6347 67.0752 40.1521 67.0752C40.6695 67.0752 41.0946 67.5002 41.0946 68.0176Z" fill="black"/>
    <path d="M44.2554 68.0176C44.2554 68.535 43.8304 68.96 43.313 68.96C42.7956 68.96 42.3706 68.535 42.3706 68.0176C42.3706 67.5002 42.7956 67.0752 43.313 67.0752C43.8304 67.0752 44.2554 67.5002 44.2554 68.0176Z" fill="black"/>
    <path d="M53.697 68.0176C53.697 68.535 53.272 68.96 52.7546 68.96C52.2371 68.96 51.8121 68.535 51.8121 68.0176C51.8121 67.5002 52.2371 67.0752 52.7546 67.0752C53.272 67.0752 53.697 67.5002 53.697 68.0176Z" fill="black"/>
    <path d="M56.8383 68.0176C56.8383 68.535 56.4133 68.96 55.8959 68.96C55.3785 68.96 54.9535 68.535 54.9535 68.0176C54.9535 67.5002 55.3785 67.0752 55.8959 67.0752C56.4133 67.0752 56.8383 67.5002 56.8383 68.0176Z" fill="black"/>
    <path d="M59.9797 68.0176C59.9797 68.535 59.5547 68.96 59.0373 68.96C58.5199 68.96 58.0948 68.535 58.0948 68.0176C58.0948 67.5002 58.5199 67.0752 59.0373 67.0752C59.5732 67.0752 59.9797 67.5002 59.9797 68.0176Z" fill="black"/>
    <path d="M66.2818 68.0176C66.2818 68.535 65.8568 68.96 65.3394 68.96C64.822 68.96 64.397 68.535 64.397 68.0176C64.397 67.5002 64.822 67.0752 65.3394 67.0752C65.8568 67.0752 66.2818 67.5002 66.2818 68.0176Z" fill="black"/>
    <path d="M78.8824 68.0176C78.8824 68.535 78.4574 68.96 77.94 68.96C77.4226 68.96 76.9976 68.535 76.9976 68.0176C76.9976 67.5002 77.4226 67.0752 77.94 67.0752C78.4574 67.0752 78.8824 67.5002 78.8824 68.0176Z" fill="black"/>
    <path d="M82.0258 68.0176C82.0258 68.535 81.6008 68.96 81.0834 68.96C80.566 68.96 80.141 68.535 80.141 68.0176C80.141 67.5002 80.566 67.0752 81.0834 67.0752C81.6008 67.0752 82.0258 67.5002 82.0258 68.0176Z" fill="black"/>
    <path d="M28.5097 71.1768C28.5097 71.6942 28.0847 72.1192 27.5673 72.1192C27.0499 72.1192 26.6249 71.6942 26.6249 71.1768C26.6249 70.6594 27.0499 70.2344 27.5673 70.2344C28.0847 70.2344 28.5097 70.6594 28.5097 71.1768Z" fill="black"/>
    <path d="M31.651 71.1768C31.651 71.6942 31.2259 72.1192 30.7085 72.1192C30.1911 72.1192 29.7661 71.6942 29.7661 71.1768C29.7661 70.6594 30.1911 70.2344 30.7085 70.2344C31.2259 70.2344 31.651 70.6594 31.651 71.1768Z" fill="black"/>
    <path d="M34.8099 71.1768C34.8099 71.6942 34.3849 72.1192 33.8675 72.1192C33.3501 72.1192 32.925 71.6942 32.925 71.1768C32.925 70.6594 33.3501 70.2344 33.8675 70.2344C34.3849 70.2344 34.8099 70.6594 34.8099 71.1768Z" fill="black"/>
    <path d="M37.9531 71.1768C37.9531 71.6942 37.5281 72.1192 37.0107 72.1192C36.4933 72.1192 36.0682 71.6942 36.0682 71.1768C36.0682 70.6594 36.4933 70.2344 37.0107 70.2344C37.5281 70.2344 37.9531 70.6594 37.9531 71.1768Z" fill="black"/>
    <path d="M44.2554 71.1768C44.2554 71.6942 43.8304 72.1192 43.313 72.1192C42.7956 72.1192 42.3706 71.6942 42.3706 71.1768C42.3706 70.6594 42.7956 70.2344 43.313 70.2344C43.8304 70.2344 44.2554 70.6594 44.2554 71.1768Z" fill="black"/>
    <path d="M50.5361 71.1768C50.5361 71.6942 50.1111 72.1192 49.5937 72.1192C49.0763 72.1192 48.6512 71.6942 48.6512 71.1768C48.6512 70.6594 49.0763 70.2344 49.5937 70.2344C50.1296 70.2344 50.5361 70.6594 50.5361 71.1768Z" fill="black"/>
    <path d="M53.697 71.1768C53.697 71.6942 53.272 72.1192 52.7546 72.1192C52.2371 72.1192 51.8121 71.6942 51.8121 71.1768C51.8121 70.6594 52.2371 70.2344 52.7546 70.2344C53.272 70.2344 53.697 70.6594 53.697 71.1768Z" fill="black"/>
    <path d="M63.1386 71.1768C63.1386 71.6942 62.7136 72.1192 62.1962 72.1192C61.6788 72.1192 61.2538 71.6942 61.2538 71.1768C61.2538 70.6594 61.6788 70.2344 62.1962 70.2344C62.7136 70.2344 63.1386 70.6594 63.1386 71.1768Z" fill="black"/>
    <path d="M66.2818 71.1768C66.2818 71.6942 65.8568 72.1192 65.3394 72.1192C64.822 72.1192 64.397 71.6942 64.397 71.1768C64.397 70.6594 64.822 70.2344 65.3394 70.2344C65.8568 70.2344 66.2818 70.6594 66.2818 71.1768Z" fill="black"/>
    <path d="M72.5821 71.1768C72.5821 71.6942 72.1571 72.1192 71.6397 72.1192C71.1223 72.1192 70.6973 71.6942 70.6973 71.1768C70.6973 70.6594 71.1223 70.2344 71.6397 70.2344C72.1571 70.2344 72.5821 70.6594 72.5821 71.1768Z" fill="black"/>
    <path d="M78.8824 71.1768C78.8824 71.6942 78.4574 72.1192 77.94 72.1192C77.4226 72.1192 76.9976 71.6942 76.9976 71.1768C76.9976 70.6594 77.4226 70.2344 77.94 70.2344C78.4574 70.2344 78.8824 70.6594 78.8824 71.1768Z" fill="black"/>
    <path d="M82.0258 71.1768C82.0258 71.6942 81.6008 72.1192 81.0834 72.1192C80.566 72.1192 80.141 71.6942 80.141 71.1768C80.141 70.6594 80.566 70.2344 81.0834 70.2344C81.6008 70.2344 82.0258 70.6594 82.0258 71.1768Z" fill="black"/>
    <path d="M28.5097 74.3184C28.5097 74.8358 28.0847 75.2608 27.5673 75.2608C27.0499 75.2608 26.6249 74.8358 26.6249 74.3184C26.6249 73.801 27.0499 73.376 27.5673 73.376C28.0847 73.376 28.5097 73.801 28.5097 74.3184Z" fill="black"/>
    <path d="M41.0946 74.3184C41.0946 74.8358 40.6695 75.2608 40.1521 75.2608C39.6347 75.2608 39.2097 74.8358 39.2097 74.3184C39.2097 73.801 39.6347 73.376 40.1521 73.376C40.6695 73.376 41.0946 73.801 41.0946 74.3184Z" fill="black"/>
    <path d="M44.2554 74.3184C44.2554 74.8358 43.8304 75.2608 43.313 75.2608C42.7956 75.2608 42.3706 74.8358 42.3706 74.3184C42.3706 73.801 42.7956 73.376 43.313 73.376C43.8304 73.376 44.2554 73.801 44.2554 74.3184Z" fill="black"/>
    <path d="M53.697 74.3184C53.697 74.8358 53.272 75.2608 52.7546 75.2608C52.2371 75.2608 51.8121 74.8358 51.8121 74.3184C51.8121 73.801 52.2371 73.376 52.7546 73.376C53.272 73.376 53.697 73.801 53.697 74.3184Z" fill="black"/>
    <path d="M59.9797 74.3184C59.9797 74.8358 59.5547 75.2608 59.0373 75.2608C58.5199 75.2608 58.0948 74.8358 58.0948 74.3184C58.0948 73.801 58.5199 73.376 59.0373 73.376C59.5732 73.376 59.9797 73.801 59.9797 74.3184Z" fill="black"/>
    <path d="M63.1386 74.3184C63.1386 74.8358 62.7136 75.2608 62.1962 75.2608C61.6788 75.2608 61.2538 74.8358 61.2538 74.3184C61.2538 73.801 61.6788 73.376 62.1962 73.376C62.7136 73.376 63.1386 73.801 63.1386 74.3184Z" fill="black"/>
    <path d="M66.2818 74.3184C66.2818 74.8358 65.8568 75.2608 65.3394 75.2608C64.822 75.2608 64.397 74.8358 64.397 74.3184C64.397 73.801 64.822 73.376 65.3394 73.376C65.8568 73.376 66.2818 73.801 66.2818 74.3184Z" fill="black"/>
    <path d="M78.8824 74.3184C78.8824 74.8358 78.4574 75.2608 77.94 75.2608C77.4226 75.2608 76.9976 74.8358 76.9976 74.3184C76.9976 73.801 77.4226 73.376 77.94 73.376C78.4574 73.376 78.8824 73.801 78.8824 74.3184Z" fill="black"/>
    <path d="M88.328 74.3184C88.328 74.8358 87.9029 75.2608 87.3855 75.2608C86.8681 75.2608 86.4431 74.8358 86.4431 74.3184C86.4431 73.801 86.8681 73.376 87.3855 73.376C87.9029 73.376 88.328 73.801 88.328 74.3184Z" fill="black"/>
    <path d="M28.5097 77.4782C28.5097 77.9956 28.0847 78.4206 27.5673 78.4206C27.0499 78.4206 26.6249 77.9956 26.6249 77.4782C26.6249 76.9608 27.0499 76.5357 27.5673 76.5357C28.0847 76.5173 28.5097 76.9423 28.5097 77.4782Z" fill="black"/>
    <path d="M31.651 77.4782C31.651 77.9956 31.2259 78.4206 30.7085 78.4206C30.1911 78.4206 29.7661 77.9956 29.7661 77.4782C29.7661 76.9608 30.1911 76.5357 30.7085 76.5357C31.2259 76.5173 31.651 76.9423 31.651 77.4782Z" fill="black"/>
    <path d="M34.8099 77.4782C34.8099 77.9956 34.3849 78.4206 33.8675 78.4206C33.3501 78.4206 32.925 77.9956 32.925 77.4782C32.925 76.9608 33.3501 76.5357 33.8675 76.5357C34.3849 76.5173 34.8099 76.9423 34.8099 77.4782Z" fill="black"/>
    <path d="M37.9531 77.4782C37.9531 77.9956 37.5281 78.4206 37.0107 78.4206C36.4933 78.4206 36.0682 77.9956 36.0682 77.4782C36.0682 76.9608 36.4933 76.5357 37.0107 76.5357C37.5281 76.5173 37.9531 76.9423 37.9531 77.4782Z" fill="black"/>
    <path d="M44.2554 77.4782C44.2554 77.9956 43.8304 78.4206 43.313 78.4206C42.7956 78.4206 42.3706 77.9956 42.3706 77.4782C42.3706 76.9608 42.7956 76.5357 43.313 76.5357C43.8304 76.5173 44.2554 76.9423 44.2554 77.4782Z" fill="black"/>
    <path d="M50.5361 77.4782C50.5361 77.9956 50.1111 78.4206 49.5937 78.4206C49.0763 78.4206 48.6512 77.9956 48.6512 77.4782C48.6512 76.9608 49.0763 76.5357 49.5937 76.5357C50.1296 76.5173 50.5361 76.9423 50.5361 77.4782Z" fill="black"/>
    <path d="M53.697 77.4786C53.697 77.996 53.272 78.421 52.7546 78.421C52.2371 78.421 51.8121 77.996 51.8121 77.4786C51.8121 76.9611 52.2371 76.5361 52.7546 76.5361C53.272 76.5361 53.697 76.9427 53.697 77.4786Z" fill="black"/>
    <path d="M56.8383 77.4782C56.8383 77.9956 56.4133 78.4206 55.8959 78.4206C55.3785 78.4206 54.9535 77.9956 54.9535 77.4782C54.9535 76.9608 55.3785 76.5357 55.8959 76.5357C56.4133 76.5173 56.8383 76.9423 56.8383 77.4782Z" fill="black"/>
    <path d="M63.1386 77.4782C63.1386 77.9956 62.7136 78.4206 62.1962 78.4206C61.6788 78.4206 61.2538 77.9956 61.2538 77.4782C61.2538 76.9608 61.6788 76.5357 62.1962 76.5357C62.7136 76.5173 63.1386 76.9423 63.1386 77.4782Z" fill="black"/>
    <path d="M66.2818 77.4782C66.2818 77.9956 65.8568 78.4206 65.3394 78.4206C64.822 78.4206 64.397 77.9956 64.397 77.4782C64.397 76.9608 64.822 76.5357 65.3394 76.5357C65.8568 76.5173 66.2818 76.9423 66.2818 77.4782Z" fill="black"/>
    <path d="M69.4409 77.4786C69.4409 77.996 69.0159 78.421 68.4985 78.421C67.981 78.421 67.556 77.996 67.556 77.4786C67.556 76.9611 67.981 76.5361 68.4985 76.5361C69.0159 76.5361 69.4409 76.9427 69.4409 77.4786Z" fill="black"/>
    <path d="M72.5821 77.4786C72.5821 77.996 72.1571 78.421 71.6397 78.421C71.1223 78.421 70.6973 77.996 70.6973 77.4786C70.6973 76.9611 71.1223 76.5361 71.6397 76.5361C72.1571 76.5361 72.5821 76.9427 72.5821 77.4786Z" fill="black"/>
    <path d="M75.7235 77.4786C75.7235 77.996 75.2985 78.421 74.781 78.421C74.2636 78.421 73.8386 77.996 73.8386 77.4786C73.8386 76.9611 74.2636 76.5361 74.781 76.5361C75.2985 76.5361 75.7235 76.9427 75.7235 77.4786Z" fill="black"/>
    <path d="M78.8824 77.4786C78.8824 77.996 78.4574 78.421 77.94 78.421C77.4226 78.421 76.9976 77.996 76.9976 77.4786C76.9976 76.9611 77.4226 76.5361 77.94 76.5361C78.4574 76.5361 78.8824 76.9427 78.8824 77.4786Z" fill="black"/>
    <path d="M82.0258 77.4782C82.0258 77.9956 81.6008 78.4206 81.0834 78.4206C80.566 78.4206 80.141 77.9956 80.141 77.4782C80.141 76.9608 80.566 76.5357 81.0834 76.5357C81.6008 76.5173 82.0258 76.9423 82.0258 77.4782Z" fill="black"/>
    <path d="M88.328 77.4786C88.328 77.996 87.9029 78.421 87.3855 78.421C86.8681 78.421 86.4431 77.996 86.4431 77.4786C86.4431 76.9611 86.8681 76.5361 87.3855 76.5361C87.9029 76.5361 88.328 76.9427 88.328 77.4786Z" fill="black"/>
    <path d="M28.5097 80.6202C28.5097 81.1376 28.0847 81.5626 27.5673 81.5626C27.0499 81.5626 26.6249 81.1376 26.6249 80.6202C26.6249 80.1027 27.0499 79.6777 27.5673 79.6777C28.0847 79.6777 28.5097 80.1027 28.5097 80.6202Z" fill="black"/>
    <path d="M44.2554 80.6202C44.2554 81.1376 43.8304 81.5626 43.313 81.5626C42.7956 81.5626 42.3706 81.1376 42.3706 80.6202C42.3706 80.1027 42.7956 79.6777 43.313 79.6777C43.8304 79.6777 44.2554 80.1027 44.2554 80.6202Z" fill="black"/>
    <path d="M47.3968 80.6202C47.3968 81.1376 46.9718 81.5626 46.4544 81.5626C45.937 81.5626 45.512 81.1376 45.512 80.6202C45.512 80.1027 45.937 79.6777 46.4544 79.6777C46.9718 79.6777 47.3968 80.1027 47.3968 80.6202Z" fill="black"/>
    <path d="M53.697 80.6202C53.697 81.1376 53.272 81.5626 52.7546 81.5626C52.2371 81.5626 51.8121 81.1376 51.8121 80.6202C51.8121 80.1027 52.2371 79.6777 52.7546 79.6777C53.272 79.6777 53.697 80.1027 53.697 80.6202Z" fill="black"/>
    <path d="M59.9797 80.6202C59.9797 81.1376 59.5547 81.5626 59.0373 81.5626C58.5199 81.5626 58.0948 81.1376 58.0948 80.6202C58.0948 80.1027 58.5199 79.6777 59.0373 79.6777C59.5732 79.6777 59.9797 80.1027 59.9797 80.6202Z" fill="black"/>
    <path d="M69.4409 80.6202C69.4409 81.1376 69.0159 81.5626 68.4985 81.5626C67.981 81.5626 67.556 81.1376 67.556 80.6202C67.556 80.1027 67.981 79.6777 68.4985 79.6777C69.0159 79.6777 69.4409 80.1027 69.4409 80.6202Z" fill="black"/>
    <path d="M88.328 80.6202C88.328 81.1376 87.9029 81.5626 87.3855 81.5626C86.8681 81.5626 86.4431 81.1376 86.4431 80.6202C86.4431 80.1027 86.8681 79.6777 87.3855 79.6777C87.9029 79.6777 88.328 80.1027 88.328 80.6202Z" fill="black"/>
    <path d="M34.8099 83.7608C34.8099 84.2782 34.3849 84.7032 33.8675 84.7032C33.3501 84.7032 32.925 84.2782 32.925 83.7608C32.925 83.2434 33.3501 82.8184 33.8675 82.8184C34.3849 82.8184 34.8099 83.2434 34.8099 83.7608Z" fill="black"/>
    <path d="M41.0946 83.7608C41.0946 84.2782 40.6695 84.7032 40.1521 84.7032C39.6347 84.7032 39.2097 84.2782 39.2097 83.7608C39.2097 83.2434 39.6347 82.8184 40.1521 82.8184C40.6695 82.8184 41.0946 83.2434 41.0946 83.7608Z" fill="black"/>
    <path d="M47.3968 83.7608C47.3968 84.2782 46.9718 84.7032 46.4544 84.7032C45.937 84.7032 45.512 84.2782 45.512 83.7608C45.512 83.2434 45.937 82.8184 46.4544 82.8184C46.9718 82.8184 47.3968 83.2434 47.3968 83.7608Z" fill="black"/>
    <path d="M53.697 83.7608C53.697 84.2782 53.272 84.7032 52.7546 84.7032C52.2371 84.7032 51.8121 84.2782 51.8121 83.7608C51.8121 83.2434 52.2371 82.8184 52.7546 82.8184C53.272 82.8184 53.697 83.2434 53.697 83.7608Z" fill="black"/>
    <path d="M59.9797 83.7608C59.9797 84.2782 59.5547 84.7032 59.0373 84.7032C58.5199 84.7032 58.0948 84.2782 58.0948 83.7608C58.0948 83.2434 58.5199 82.8184 59.0373 82.8184C59.5732 82.8184 59.9797 83.2434 59.9797 83.7608Z" fill="black"/>
    <path d="M63.1386 83.7608C63.1386 84.2782 62.7136 84.7032 62.1962 84.7032C61.6788 84.7032 61.2538 84.2782 61.2538 83.7608C61.2538 83.2434 61.6788 82.8184 62.1962 82.8184C62.7136 82.8184 63.1386 83.2434 63.1386 83.7608Z" fill="black"/>
    <path d="M66.2818 83.7608C66.2818 84.2782 65.8568 84.7032 65.3394 84.7032C64.822 84.7032 64.397 84.2782 64.397 83.7608C64.397 83.2434 64.822 82.8184 65.3394 82.8184C65.8568 82.8184 66.2818 83.2434 66.2818 83.7608Z" fill="black"/>
    <path d="M69.4409 83.7608C69.4409 84.2782 69.0159 84.7032 68.4985 84.7032C67.981 84.7032 67.556 84.2782 67.556 83.7608C67.556 83.2434 67.981 82.8184 68.4985 82.8184C69.0159 82.8184 69.4409 83.2434 69.4409 83.7608Z" fill="black"/>
    <path d="M75.7235 83.7608C75.7235 84.2782 75.2985 84.7032 74.781 84.7032C74.2636 84.7032 73.8386 84.2782 73.8386 83.7608C73.8386 83.2434 74.2636 82.8184 74.781 82.8184C75.2985 82.8184 75.7235 83.2434 75.7235 83.7608Z" fill="black"/>
    <path d="M78.8824 83.7608C78.8824 84.2782 78.4574 84.7032 77.94 84.7032C77.4226 84.7032 76.9976 84.2782 76.9976 83.7608C76.9976 83.2434 77.4226 82.8184 77.94 82.8184C78.4574 82.8184 78.8824 83.2434 78.8824 83.7608Z" fill="black"/>
    <path d="M85.1651 83.7608C85.1651 84.2782 84.7401 84.7032 84.2227 84.7032C83.7053 84.7032 83.2803 84.2782 83.2803 83.7608C83.2803 83.2434 83.7053 82.8184 84.2227 82.8184C84.7401 82.8184 85.1651 83.2434 85.1651 83.7608Z" fill="black"/>
    <path d="M88.328 83.7608C88.328 84.2782 87.9029 84.7032 87.3855 84.7032C86.8681 84.7032 86.4431 84.2782 86.4431 83.7608C86.4431 83.2434 86.8681 82.8184 87.3855 82.8184C87.9029 82.8184 88.328 83.2434 88.328 83.7608Z" fill="black"/>
    <path d="M91.4674 83.7608C91.4674 84.2782 91.0423 84.7032 90.5249 84.7032C90.0075 84.7032 89.5825 84.2782 89.5825 83.7608C89.5825 83.2434 90.0075 82.8184 90.5249 82.8184C91.0423 82.8184 91.4674 83.2434 91.4674 83.7608Z" fill="black"/>
    <path d="M47.3968 86.9209C47.3968 87.4383 46.9718 87.8634 46.4544 87.8634C45.937 87.8634 45.512 87.4383 45.512 86.9209C45.512 86.4035 45.937 85.9785 46.4544 85.9785C46.9718 85.9785 47.3968 86.3851 47.3968 86.9209Z" fill="black"/>
    <path d="M50.5361 86.9209C50.5361 87.4383 50.1111 87.8634 49.5937 87.8634C49.0763 87.8634 48.6512 87.4383 48.6512 86.9209C48.6512 86.4035 49.0763 85.9785 49.5937 85.9785C50.1296 85.9785 50.5361 86.3851 50.5361 86.9209Z" fill="black"/>
    <path d="M72.5821 86.9209C72.5821 87.4383 72.1571 87.8634 71.6397 87.8634C71.1223 87.8634 70.6973 87.4383 70.6973 86.9209C70.6973 86.4035 71.1223 85.9785 71.6397 85.9785C72.1571 85.9785 72.5821 86.3851 72.5821 86.9209Z" fill="black"/>
    <path d="M75.7235 86.9209C75.7235 87.4383 75.2985 87.8634 74.781 87.8634C74.2636 87.8634 73.8386 87.4383 73.8386 86.9209C73.8386 86.4035 74.2636 85.9785 74.781 85.9785C75.2985 85.9785 75.7235 86.3851 75.7235 86.9209Z" fill="black"/>
    <path d="M82.0258 86.9209C82.0258 87.4383 81.6008 87.8634 81.0834 87.8634C80.566 87.8634 80.141 87.4383 80.141 86.9209C80.141 86.4035 80.566 85.9785 81.0834 85.9785C81.6008 85.9785 82.0258 86.3851 82.0258 86.9209Z" fill="black"/>
    <path d="M85.1651 86.9209C85.1651 87.4383 84.7401 87.8634 84.2227 87.8634C83.7053 87.8634 83.2803 87.4383 83.2803 86.9209C83.2803 86.4035 83.7053 85.9785 84.2227 85.9785C84.7401 85.9785 85.1651 86.3851 85.1651 86.9209Z" fill="black"/>
    <path d="M91.4674 86.9209C91.4674 87.4383 91.0423 87.8634 90.5249 87.8634C90.0075 87.8634 89.5825 87.4383 89.5825 86.9209C89.5825 86.4035 90.0075 85.9785 90.5249 85.9785C91.0423 85.9785 91.4674 86.3851 91.4674 86.9209Z" fill="black"/>
    <path d="M28.5097 90.0625C28.5097 90.5799 28.0847 91.005 27.5673 91.005C27.0499 91.005 26.6249 90.5799 26.6249 90.0625C26.6249 89.5451 27.0499 89.1201 27.5673 89.1201C28.0847 89.1201 28.5097 89.5451 28.5097 90.0625Z" fill="black"/>
    <path d="M31.651 90.0625C31.651 90.5799 31.2259 91.005 30.7085 91.005C30.1911 91.005 29.7661 90.5799 29.7661 90.0625C29.7661 89.5451 30.1911 89.1201 30.7085 89.1201C31.2259 89.1201 31.651 89.5451 31.651 90.0625Z" fill="black"/>
    <path d="M37.9531 90.0625C37.9531 90.5799 37.5281 91.005 37.0107 91.005C36.4933 91.005 36.0682 90.5799 36.0682 90.0625C36.0682 89.5451 36.4933 89.1201 37.0107 89.1201C37.5281 89.1201 37.9531 89.5451 37.9531 90.0625Z" fill="black"/>
    <path d="M41.0946 90.0625C41.0946 90.5799 40.6695 91.005 40.1521 91.005C39.6347 91.005 39.2097 90.5799 39.2097 90.0625C39.2097 89.5451 39.6347 89.1201 40.1521 89.1201C40.6695 89.1201 41.0946 89.5451 41.0946 90.0625Z" fill="black"/>
    <path d="M44.2554 90.0625C44.2554 90.5799 43.8304 91.005 43.313 91.005C42.7956 91.005 42.3706 90.5799 42.3706 90.0625C42.3706 89.5451 42.7956 89.1201 43.313 89.1201C43.8304 89.1201 44.2554 89.5451 44.2554 90.0625Z" fill="black"/>
    <path d="M53.697 90.0625C53.697 90.5799 53.272 91.005 52.7546 91.005C52.2371 91.005 51.8121 90.5799 51.8121 90.0625C51.8121 89.5451 52.2371 89.1201 52.7546 89.1201C53.272 89.1201 53.697 89.5451 53.697 90.0625Z" fill="black"/>
    <path d="M56.8383 90.0625C56.8383 90.5799 56.4133 91.005 55.8959 91.005C55.3785 91.005 54.9535 90.5799 54.9535 90.0625C54.9535 89.5451 55.3785 89.1201 55.8959 89.1201C56.4133 89.1201 56.8383 89.5451 56.8383 90.0625Z" fill="black"/>
    <path d="M59.9797 90.0625C59.9797 90.5799 59.5547 91.005 59.0373 91.005C58.5199 91.005 58.0948 90.5799 58.0948 90.0625C58.0948 89.5451 58.5199 89.1201 59.0373 89.1201C59.5732 89.1201 59.9797 89.5451 59.9797 90.0625Z" fill="black"/>
    <path d="M63.1386 90.0625C63.1386 90.5799 62.7136 91.005 62.1962 91.005C61.6788 91.005 61.2538 90.5799 61.2538 90.0625C61.2538 89.5451 61.6788 89.1201 62.1962 89.1201C62.7136 89.1201 63.1386 89.5451 63.1386 90.0625Z" fill="black"/>
    <path d="M66.2818 90.0625C66.2818 90.5799 65.8568 91.005 65.3394 91.005C64.822 91.005 64.397 90.5799 64.397 90.0625C64.397 89.5451 64.822 89.1201 65.3394 89.1201C65.8568 89.1201 66.2818 89.5451 66.2818 90.0625Z" fill="black"/>
    <path d="M72.5821 90.0625C72.5821 90.5799 72.1571 91.005 71.6397 91.005C71.1223 91.005 70.6973 90.5799 70.6973 90.0625C70.6973 89.5451 71.1223 89.1201 71.6397 89.1201C72.1571 89.1201 72.5821 89.5451 72.5821 90.0625Z" fill="black"/>
    <path d="M75.7235 90.0625C75.7235 90.5799 75.2985 91.005 74.781 91.005C74.2636 91.005 73.8386 90.5799 73.8386 90.0625C73.8386 89.5451 74.2636 89.1201 74.781 89.1201C75.2985 89.1201 75.7235 89.5451 75.7235 90.0625Z" fill="black"/>
    <path d="M78.8824 90.0625C78.8824 90.5799 78.4574 91.005 77.94 91.005C77.4226 91.005 76.9976 90.5799 76.9976 90.0625C76.9976 89.5451 77.4226 89.1201 77.94 89.1201C78.4574 89.1201 78.8824 89.5451 78.8824 90.0625Z" fill="black"/>
    <path d="M82.0258 90.0625C82.0258 90.5799 81.6008 91.005 81.0834 91.005C80.566 91.005 80.141 90.5799 80.141 90.0625C80.141 89.5451 80.566 89.1201 81.0834 89.1201C81.6008 89.1201 82.0258 89.5451 82.0258 90.0625Z" fill="black"/>
    <path d="M19.5301 0.347656H0.811035V22.3929H22.8563V0.347656H19.5301ZM19.5301 19.0667H4.11875V3.65537H19.5486V19.0667H19.5301Z" fill="#0054E4"/>
    <path d="M88.7893 0.347656H70.0702V22.3929H92.1155V0.347656H88.7893ZM88.7893 19.0667H73.3594V3.65537H88.7893V19.0667Z" fill="#0054E4"/>
    <path d="M19.5294 69.6064H0.810303V91.6517H22.8556V69.6064H19.5294ZM19.5294 88.3255H4.11802V72.8957H19.5479V88.3255H19.5294Z" fill="#0054E4"/>
    <path d="M16.5356 6.62988H7.0929V16.0726H16.5356V6.62988Z" fill="#0054E4"/>
    <path d="M85.7936 6.62988H76.351V16.0726H85.7936V6.62988Z" fill="#0054E4"/>
    <path d="M16.5356 75.8896H7.0929V85.3323H16.5356V75.8896Z" fill="#0054E4"/>
</svg>
