<svg width="257" height="73" viewBox="0 0 257 73" fill="none" xmlns="http://www.w3.org/2000/svg">
    <path d="M256.302 0.425781H82.4336V72.8708H256.302V0.425781Z" fill="#0054E4"/>
    <path d="M119.863 27.4051C119.863 35.4662 113.282 35.4662 106.932 35.4662C100.583 35.4662 94.0254 35.4662 94.0254 27.4051H99.926C99.926 30.5816 99.7791 30.4966 106.932 30.4966C114.086 30.4966 113.939 30.5585 113.939 27.4051C113.939 24.0277 95.4483 26.7405 95.4483 17.0641C95.4483 9.20393 101.403 9.18848 106.932 9.18848C112.462 9.18848 118.332 9.18848 118.409 17.0641H112.516C112.516 14.073 112.74 14.0808 106.932 14.0808C101.125 14.0808 101.341 14.0808 101.341 17.0641C101.341 21.1371 119.863 18.0456 119.863 27.4051Z" fill="white"/>
    <path d="M155.895 20.8668V35.0954H150.002V21.8793C150.002 14.0501 149.082 14.1506 142.81 14.081V35.0954H136.917V14.081C130.645 14.1506 129.733 13.996 129.733 21.8793V35.0954H123.832V20.8668C123.84 9.11914 132.648 9.11914 139.848 9.11914C147.048 9.11914 155.887 9.11914 155.887 20.8436L155.895 20.8668Z" fill="white"/>
    <path d="M185.821 18.7802V35.0955H179.928V26.2848H166.604V35.0955H160.703V18.7802C160.703 13.4241 162.49 9.17334 173.254 9.17334C184.019 9.17334 185.821 13.4241 185.821 18.7802ZM173.262 14.0811C165.614 14.0811 166.619 16.2451 166.611 20.3182V21.3384H179.928V20.3182C179.905 16.2451 180.965 14.0811 173.254 14.0811H173.262Z" fill="white"/>
    <path d="M213.601 35.0953H207.701L203.61 29.5538C201.389 29.8385 199.151 29.9599 196.912 29.9171V35.0953H191.02V9.51318H195.505C204.63 9.51318 213.439 9.51318 213.439 19.1123C213.439 24.136 211.737 27.0806 208.69 28.3868L213.601 35.0953ZM207.02 19.1123C207.02 14.475 206.061 14.475 196.387 14.475V24.9784C205.69 24.9784 207.02 24.9939 207.02 19.1123Z" fill="white"/>
    <path d="M244.286 9.51318V14.4518H233.034V35.0953H227.133V14.4518H215.881V9.51318H244.286Z" fill="white"/>
    <path d="M120.466 40.0728V44.7101H109.987V63.8851H104.504V44.6714H94.0254V40.0342L120.466 40.0728Z" fill="white"/>
    <path d="M133.598 44.6714V59.2942H139.329V63.9315H122.408V59.2942H128.139V44.6714H122.408V40.0342H139.352V44.6714H133.598Z" fill="white"/>
    <path d="M161.847 55.2517H167.33C166.998 60.4223 163.904 64.2325 154.957 64.2325C143.79 64.2325 142.506 58.7451 142.506 51.9902C142.506 45.2353 143.527 39.7324 154.957 39.7324C163.912 39.7324 167.029 43.5272 167.33 48.7132H161.847C161.847 45.2585 160.726 44.331 154.933 44.331C148.461 44.331 147.973 44.9416 147.973 51.9902C147.973 58.892 148.306 59.6339 154.817 59.6339C160.494 59.6339 161.847 58.892 161.847 55.2517Z" fill="white"/>
    <path d="M194.081 63.8851H188.598L183.254 56.1564C181.335 57.3628 179.167 58.1161 176.913 58.359V63.8619H171.43V40.0806H176.913V53.7836C179.186 53.5672 181.189 52.4311 183.393 50.4989C186.626 47.6702 187.778 44.6483 187.778 40.0806H193.261C193.261 45.3052 191.011 49.5174 186.827 53.5286L194.081 63.8851Z" fill="white"/>
    <path d="M201.727 49.6874H215.129V54.286H201.727C201.727 59.2633 202.152 59.2942 209.066 59.2942H215.129V63.9315H208.007C196.592 63.9315 196.236 59.1165 196.236 52.4157C196.236 45.7148 196.708 40.127 208.007 40.127H215.129V44.7642H209.066C202.833 44.6715 201.727 44.7333 201.727 49.6874Z" fill="white"/>
    <path d="M244.286 40.0728V44.7101H233.815V63.8851H228.355V44.6714H217.846V40.0342L244.286 40.0728Z" fill="white"/>
    <path d="M22.7885 1.67208C22.7885 2.08262 22.4513 2.41984 22.0407 2.41984C21.6302 2.41984 21.293 2.08262 21.293 1.67208C21.293 1.26154 21.6302 0.924316 22.0407 0.924316C22.4513 0.924316 22.7885 1.26154 22.7885 1.67208Z" fill="black"/>
    <path d="M27.7885 1.67208C27.7885 2.08262 27.4513 2.41984 27.0407 2.41984C26.6302 2.41984 26.293 2.08262 26.293 1.67208C26.293 1.26154 26.6302 0.924316 27.0407 0.924316C27.4513 0.924316 27.7885 1.26154 27.7885 1.67208Z" fill="black"/>
    <path d="M35.2826 1.67208C35.2826 2.08262 34.9454 2.41984 34.5349 2.41984C34.1243 2.41984 33.7871 2.08262 33.7871 1.67208C33.7871 1.26154 34.1243 0.924316 34.5349 0.924316C34.9454 0.924316 35.2826 1.26154 35.2826 1.67208Z" fill="black"/>
    <path d="M37.7748 1.67208C37.7748 2.08262 37.4376 2.41984 37.0271 2.41984C36.6165 2.41984 36.2793 2.08262 36.2793 1.67208C36.2793 1.26154 36.6165 0.924316 37.0271 0.924316C37.4376 0.924316 37.7748 1.26154 37.7748 1.67208Z" fill="black"/>
    <path d="M40.2651 1.67208C40.2651 2.08262 39.9278 2.41984 39.5173 2.41984C39.1068 2.41984 38.7695 2.08262 38.7695 1.67208C38.7695 1.26154 39.1068 0.924316 39.5173 0.924316C39.9425 0.924316 40.2651 1.26154 40.2651 1.67208Z" fill="black"/>
    <path d="M45.2651 1.67208C45.2651 2.08262 44.9278 2.41984 44.5173 2.41984C44.1068 2.41984 43.7695 2.08262 43.7695 1.67208C43.7695 1.26154 44.1068 0.924316 44.5173 0.924316C44.9278 0.924316 45.2651 1.26154 45.2651 1.67208Z" fill="black"/>
    <path d="M22.7885 4.16427C22.7885 4.5748 22.4513 4.91203 22.0407 4.91203C21.6302 4.91203 21.293 4.5748 21.293 4.16427C21.293 3.75373 21.6302 3.4165 22.0407 3.4165C22.4513 3.4165 22.7885 3.75373 22.7885 4.16427Z" fill="black"/>
    <path d="M25.2807 4.16427C25.2807 4.5748 24.9435 4.91203 24.5329 4.91203C24.1224 4.91203 23.7852 4.5748 23.7852 4.16427C23.7852 3.75373 24.1224 3.4165 24.5329 3.4165C24.9435 3.4165 25.2807 3.75373 25.2807 4.16427Z" fill="black"/>
    <path d="M27.7885 4.16427C27.7885 4.5748 27.4513 4.91203 27.0407 4.91203C26.6302 4.91203 26.293 4.5748 26.293 4.16427C26.293 3.75373 26.6302 3.4165 27.0407 3.4165C27.4513 3.4165 27.7885 3.75373 27.7885 4.16427Z" fill="black"/>
    <path d="M32.7748 4.16427C32.7748 4.5748 32.4376 4.91203 32.0271 4.91203C31.6165 4.91203 31.2793 4.5748 31.2793 4.16427C31.2793 3.75373 31.6165 3.4165 32.0271 3.4165C32.4376 3.4165 32.7748 3.75373 32.7748 4.16427Z" fill="black"/>
    <path d="M35.2826 4.16427C35.2826 4.5748 34.9454 4.91203 34.5349 4.91203C34.1243 4.91203 33.7871 4.5748 33.7871 4.16427C33.7871 3.75373 34.1243 3.4165 34.5349 3.4165C34.9454 3.4165 35.2826 3.75373 35.2826 4.16427Z" fill="black"/>
    <path d="M37.7748 4.16427C37.7748 4.5748 37.4376 4.91203 37.0271 4.91203C36.6165 4.91203 36.2793 4.5748 36.2793 4.16427C36.2793 3.75373 36.6165 3.4165 37.0271 3.4165C37.4376 3.4165 37.7748 3.75373 37.7748 4.16427Z" fill="black"/>
    <path d="M40.2651 4.16427C40.2651 4.5748 39.9278 4.91203 39.5173 4.91203C39.1068 4.91203 38.7695 4.5748 38.7695 4.16427C38.7695 3.75373 39.1068 3.4165 39.5173 3.4165C39.9425 3.4165 40.2651 3.75373 40.2651 4.16427Z" fill="black"/>
    <path d="M45.2651 4.16427C45.2651 4.5748 44.9278 4.91203 44.5173 4.91203C44.1068 4.91203 43.7695 4.5748 43.7695 4.16427C43.7695 3.75373 44.1068 3.4165 44.5173 3.4165C44.9278 3.4165 45.2651 3.75373 45.2651 4.16427Z" fill="black"/>
    <path d="M50.2651 4.16427C50.2651 4.5748 49.9278 4.91203 49.5173 4.91203C49.1068 4.91203 48.7695 4.5748 48.7695 4.16427C48.7695 3.75373 49.1068 3.4165 49.5173 3.4165C49.9278 3.4165 50.2651 3.75373 50.2651 4.16427Z" fill="black"/>
    <path d="M22.7885 6.67159C22.7885 7.08213 22.4513 7.41935 22.0407 7.41935C21.6302 7.41935 21.293 7.08213 21.293 6.67159C21.293 6.26105 21.6302 5.92383 22.0407 5.92383C22.4513 5.92383 22.7885 6.24639 22.7885 6.67159Z" fill="black"/>
    <path d="M25.2807 6.67159C25.2807 7.08213 24.9435 7.41935 24.5329 7.41935C24.1224 7.41935 23.7852 7.08213 23.7852 6.67159C23.7852 6.26105 24.1224 5.92383 24.5329 5.92383C24.9435 5.92383 25.2807 6.24639 25.2807 6.67159Z" fill="black"/>
    <path d="M27.7885 6.67159C27.7885 7.08213 27.4513 7.41935 27.0407 7.41935C26.6302 7.41935 26.293 7.08213 26.293 6.67159C26.293 6.26105 26.6302 5.92383 27.0407 5.92383C27.4513 5.92383 27.7885 6.24639 27.7885 6.67159Z" fill="black"/>
    <path d="M32.7748 6.67159C32.7748 7.08213 32.4376 7.41935 32.0271 7.41935C31.6165 7.41935 31.2793 7.08213 31.2793 6.67159C31.2793 6.26105 31.6165 5.92383 32.0271 5.92383C32.4376 5.92383 32.7748 6.24639 32.7748 6.67159Z" fill="black"/>
    <path d="M35.2826 6.67159C35.2826 7.08213 34.9454 7.41935 34.5349 7.41935C34.1243 7.41935 33.7871 7.08213 33.7871 6.67159C33.7871 6.26105 34.1243 5.92383 34.5349 5.92383C34.9454 5.92383 35.2826 6.24639 35.2826 6.67159Z" fill="black"/>
    <path d="M37.7748 6.67159C37.7748 7.08213 37.4376 7.41935 37.0271 7.41935C36.6165 7.41935 36.2793 7.08213 36.2793 6.67159C36.2793 6.26105 36.6165 5.92383 37.0271 5.92383C37.4376 5.92383 37.7748 6.24639 37.7748 6.67159Z" fill="black"/>
    <path d="M47.7592 6.67159C47.7592 7.08213 47.422 7.41935 47.0114 7.41935C46.6009 7.41935 46.2637 7.08213 46.2637 6.67159C46.2637 6.26105 46.6009 5.92383 47.0114 5.92383C47.4366 5.92383 47.7592 6.24639 47.7592 6.67159Z" fill="black"/>
    <path d="M52.7592 6.67159C52.7592 7.08213 52.422 7.41935 52.0114 7.41935C51.6009 7.41935 51.2637 7.08213 51.2637 6.67159C51.2637 6.26105 51.6009 5.92383 52.0114 5.92383C52.422 5.92383 52.7592 6.24639 52.7592 6.67159Z" fill="black"/>
    <path d="M32.7748 9.16427C32.7748 9.5748 32.4376 9.91203 32.0271 9.91203C31.6165 9.91203 31.2793 9.5748 31.2793 9.16427C31.2793 8.75373 31.6165 8.4165 32.0271 8.4165C32.4376 8.4165 32.7748 8.75373 32.7748 9.16427Z" fill="black"/>
    <path d="M37.7748 9.16427C37.7748 9.5748 37.4376 9.91203 37.0271 9.91203C36.6165 9.91203 36.2793 9.5748 36.2793 9.16427C36.2793 8.75373 36.6165 8.4165 37.0271 8.4165C37.4376 8.4165 37.7748 8.75373 37.7748 9.16427Z" fill="black"/>
    <path d="M40.2651 9.16427C40.2651 9.5748 39.9278 9.91203 39.5173 9.91203C39.1068 9.91203 38.7695 9.5748 38.7695 9.16427C38.7695 8.75373 39.1068 8.4165 39.5173 8.4165C39.9425 8.4165 40.2651 8.75373 40.2651 9.16427Z" fill="black"/>
    <path d="M45.2651 9.16427C45.2651 9.5748 44.9278 9.91203 44.5173 9.91203C44.1068 9.91203 43.7695 9.5748 43.7695 9.16427C43.7695 8.75373 44.1068 8.4165 44.5173 8.4165C44.9278 8.4165 45.2651 8.75373 45.2651 9.16427Z" fill="black"/>
    <path d="M47.7592 9.16427C47.7592 9.5748 47.422 9.91203 47.0114 9.91203C46.6009 9.91203 46.2637 9.5748 46.2637 9.16427C46.2637 8.75373 46.6009 8.4165 47.0114 8.4165C47.4366 8.4165 47.7592 8.75373 47.7592 9.16427Z" fill="black"/>
    <path d="M50.2651 9.16427C50.2651 9.5748 49.9278 9.91203 49.5173 9.91203C49.1068 9.91203 48.7695 9.5748 48.7695 9.16427C48.7695 8.75373 49.1068 8.4165 49.5173 8.4165C49.9278 8.4165 50.2651 8.75373 50.2651 9.16427Z" fill="black"/>
    <path d="M52.7592 9.16427C52.7592 9.5748 52.422 9.91203 52.0114 9.91203C51.6009 9.91203 51.2637 9.5748 51.2637 9.16427C51.2637 8.75373 51.6009 8.4165 52.0114 8.4165C52.422 8.4165 52.7592 8.75373 52.7592 9.16427Z" fill="black"/>
    <path d="M22.7885 11.6569C22.7885 12.0675 22.4513 12.4047 22.0407 12.4047C21.6302 12.4047 21.293 12.0675 21.293 11.6569C21.293 11.2464 21.6302 10.9092 22.0407 10.9092C22.4513 10.9092 22.7885 11.2464 22.7885 11.6569Z" fill="black"/>
    <path d="M30.2807 11.6569C30.2807 12.0675 29.9435 12.4047 29.5329 12.4047C29.1224 12.4047 28.7852 12.0675 28.7852 11.6569C28.7852 11.2464 29.1224 10.9092 29.5329 10.9092C29.9435 10.9092 30.2807 11.2464 30.2807 11.6569Z" fill="black"/>
    <path d="M32.7748 11.6569C32.7748 12.0675 32.4376 12.4047 32.0271 12.4047C31.6165 12.4047 31.2793 12.0675 31.2793 11.6569C31.2793 11.2464 31.6165 10.9092 32.0271 10.9092C32.4376 10.9092 32.7748 11.2464 32.7748 11.6569Z" fill="black"/>
    <path d="M35.2826 11.6569C35.2826 12.0675 34.9454 12.4047 34.5349 12.4047C34.1243 12.4047 33.7871 12.0675 33.7871 11.6569C33.7871 11.2464 34.1243 10.9092 34.5349 10.9092C34.9454 10.9092 35.2826 11.2464 35.2826 11.6569Z" fill="black"/>
    <path d="M40.2651 11.6569C40.2651 12.0675 39.9278 12.4047 39.5173 12.4047C39.1068 12.4047 38.7695 12.0675 38.7695 11.6569C38.7695 11.2464 39.1068 10.9092 39.5173 10.9092C39.9425 10.9092 40.2651 11.2464 40.2651 11.6569Z" fill="black"/>
    <path d="M47.7592 11.6569C47.7592 12.0675 47.422 12.4047 47.0114 12.4047C46.6009 12.4047 46.2637 12.0675 46.2637 11.6569C46.2637 11.2464 46.6009 10.9092 47.0114 10.9092C47.4366 10.9092 47.7592 11.2464 47.7592 11.6569Z" fill="black"/>
    <path d="M50.2651 11.6569C50.2651 12.0675 49.9278 12.4047 49.5173 12.4047C49.1068 12.4047 48.7695 12.0675 48.7695 11.6569C48.7695 11.2464 49.1068 10.9092 49.5173 10.9092C49.9278 10.9092 50.2651 11.2464 50.2651 11.6569Z" fill="black"/>
    <path d="M25.2807 14.1643C25.2807 14.5748 24.9435 14.912 24.5329 14.912C24.1224 14.912 23.7852 14.5748 23.7852 14.1643C23.7852 13.7537 24.1224 13.4165 24.5329 13.4165C24.9435 13.4165 25.2807 13.7391 25.2807 14.1643Z" fill="black"/>
    <path d="M35.2826 14.1643C35.2826 14.5748 34.9454 14.912 34.5349 14.912C34.1243 14.912 33.7871 14.5748 33.7871 14.1643C33.7871 13.7537 34.1243 13.4165 34.5349 13.4165C34.9454 13.4165 35.2826 13.7391 35.2826 14.1643Z" fill="black"/>
    <path d="M37.7748 14.1643C37.7748 14.5748 37.4376 14.912 37.0271 14.912C36.6165 14.912 36.2793 14.5748 36.2793 14.1643C36.2793 13.7537 36.6165 13.4165 37.0271 13.4165C37.4376 13.4165 37.7748 13.7391 37.7748 14.1643Z" fill="black"/>
    <path d="M52.7592 14.1643C52.7592 14.5748 52.422 14.912 52.0114 14.912C51.6009 14.912 51.2637 14.5748 51.2637 14.1643C51.2637 13.7537 51.6009 13.4165 52.0114 13.4165C52.422 13.4165 52.7592 13.7391 52.7592 14.1643Z" fill="black"/>
    <path d="M22.7885 16.6565C22.7885 17.067 22.4513 17.4042 22.0407 17.4042C21.6302 17.4042 21.293 17.067 21.293 16.6565C21.293 16.2459 21.6302 15.9087 22.0407 15.9087C22.4513 15.9087 22.7885 16.2459 22.7885 16.6565Z" fill="black"/>
    <path d="M27.7885 16.6565C27.7885 17.067 27.4513 17.4042 27.0407 17.4042C26.6302 17.4042 26.293 17.067 26.293 16.6565C26.293 16.2459 26.6302 15.9087 27.0407 15.9087C27.4513 15.9087 27.7885 16.2459 27.7885 16.6565Z" fill="black"/>
    <path d="M32.7748 16.6565C32.7748 17.067 32.4376 17.4042 32.0271 17.4042C31.6165 17.4042 31.2793 17.067 31.2793 16.6565C31.2793 16.2459 31.6165 15.9087 32.0271 15.9087C32.4376 15.9087 32.7748 16.2459 32.7748 16.6565Z" fill="black"/>
    <path d="M37.7748 16.6565C37.7748 17.067 37.4376 17.4042 37.0271 17.4042C36.6165 17.4042 36.2793 17.067 36.2793 16.6565C36.2793 16.2459 36.6165 15.9087 37.0271 15.9087C37.4376 15.9087 37.7748 16.2459 37.7748 16.6565Z" fill="black"/>
    <path d="M42.7729 16.6565C42.7729 17.067 42.4356 17.4042 42.0251 17.4042C41.6146 17.4042 41.2773 17.067 41.2773 16.6565C41.2773 16.2459 41.6146 15.9087 42.0251 15.9087C42.4356 15.9087 42.7729 16.2459 42.7729 16.6565Z" fill="black"/>
    <path d="M47.7592 16.6565C47.7592 17.067 47.422 17.4042 47.0114 17.4042C46.6009 17.4042 46.2637 17.067 46.2637 16.6565C46.2637 16.2459 46.6009 15.9087 47.0114 15.9087C47.4366 15.9087 47.7592 16.2459 47.7592 16.6565Z" fill="black"/>
    <path d="M52.7592 16.6565C52.7592 17.067 52.422 17.4042 52.0114 17.4042C51.6009 17.4042 51.2637 17.067 51.2637 16.6565C51.2637 16.2459 51.6009 15.9087 52.0114 15.9087C52.422 15.9087 52.7592 16.2459 52.7592 16.6565Z" fill="black"/>
    <path d="M27.7885 19.1491C27.7885 19.5597 27.4513 19.8969 27.0407 19.8969C26.6302 19.8969 26.293 19.5597 26.293 19.1491C26.293 18.7386 26.6302 18.4014 27.0407 18.4014C27.4513 18.4014 27.7885 18.7386 27.7885 19.1491Z" fill="black"/>
    <path d="M37.7748 19.1491C37.7748 19.5597 37.4376 19.8969 37.0271 19.8969C36.6165 19.8969 36.2793 19.5597 36.2793 19.1491C36.2793 18.7386 36.6165 18.4014 37.0271 18.4014C37.4376 18.4014 37.7748 18.7386 37.7748 19.1491Z" fill="black"/>
    <path d="M47.7592 19.1491C47.7592 19.5597 47.422 19.8969 47.0114 19.8969C46.6009 19.8969 46.2637 19.5597 46.2637 19.1491C46.2637 18.7386 46.6009 18.4014 47.0114 18.4014C47.4366 18.4014 47.7592 18.7386 47.7592 19.1491Z" fill="black"/>
    <path d="M2.80607 21.6565C2.80607 22.067 2.46885 22.4042 2.05831 22.4042C1.64777 22.4042 1.31055 22.067 1.31055 21.6565C1.31055 21.2459 1.64777 20.9087 2.05831 20.9087C2.46885 20.9087 2.80607 21.2459 2.80607 21.6565Z" fill="black"/>
    <path d="M10.2963 21.6565C10.2963 22.067 9.95908 22.4042 9.54854 22.4042C9.13801 22.4042 8.80078 22.067 8.80078 21.6565C8.80078 21.2459 9.13801 20.9087 9.54854 20.9087C9.95908 20.9087 10.2963 21.2459 10.2963 21.6565Z" fill="black"/>
    <path d="M12.7885 21.6565C12.7885 22.067 12.4513 22.4042 12.0407 22.4042C11.6302 22.4042 11.293 22.067 11.293 21.6565C11.293 21.2459 11.6302 20.9087 12.0407 20.9087C12.4659 20.9087 12.7885 21.2459 12.7885 21.6565Z" fill="black"/>
    <path d="M15.2963 21.6565C15.2963 22.067 14.9591 22.4042 14.5485 22.4042C14.138 22.4042 13.8008 22.067 13.8008 21.6565C13.8008 21.2459 14.138 20.9087 14.5485 20.9087C14.9591 20.9087 15.2963 21.2459 15.2963 21.6565Z" fill="black"/>
    <path d="M17.7904 21.6565C17.7904 22.067 17.4532 22.4042 17.0427 22.4042C16.6321 22.4042 16.2949 22.067 16.2949 21.6565C16.2949 21.2459 16.6321 20.9087 17.0427 20.9087C17.4532 20.9087 17.7904 21.2459 17.7904 21.6565Z" fill="black"/>
    <path d="M20.2963 21.6565C20.2963 22.067 19.9591 22.4042 19.5485 22.4042C19.138 22.4042 18.8008 22.067 18.8008 21.6565C18.8008 21.2459 19.138 20.9087 19.5485 20.9087C19.9591 20.9087 20.2963 21.2459 20.2963 21.6565Z" fill="black"/>
    <path d="M22.7885 21.6565C22.7885 22.067 22.4513 22.4042 22.0407 22.4042C21.6302 22.4042 21.293 22.067 21.293 21.6565C21.293 21.2459 21.6302 20.9087 22.0407 20.9087C22.4513 20.9087 22.7885 21.2459 22.7885 21.6565Z" fill="black"/>
    <path d="M27.7885 21.6565C27.7885 22.067 27.4513 22.4042 27.0407 22.4042C26.6302 22.4042 26.293 22.067 26.293 21.6565C26.293 21.2459 26.6302 20.9087 27.0407 20.9087C27.4513 20.9087 27.7885 21.2459 27.7885 21.6565Z" fill="black"/>
    <path d="M32.7748 21.6565C32.7748 22.067 32.4376 22.4042 32.0271 22.4042C31.6165 22.4042 31.2793 22.067 31.2793 21.6565C31.2793 21.2459 31.6165 20.9087 32.0271 20.9087C32.4376 20.9087 32.7748 21.2459 32.7748 21.6565Z" fill="black"/>
    <path d="M35.2826 21.6565C35.2826 22.067 34.9454 22.4042 34.5349 22.4042C34.1243 22.4042 33.7871 22.067 33.7871 21.6565C33.7871 21.2459 34.1243 20.9087 34.5349 20.9087C34.9454 20.9087 35.2826 21.2459 35.2826 21.6565Z" fill="black"/>
    <path d="M37.7748 21.6565C37.7748 22.067 37.4376 22.4042 37.0271 22.4042C36.6165 22.4042 36.2793 22.067 36.2793 21.6565C36.2793 21.2459 36.6165 20.9087 37.0271 20.9087C37.4376 20.9087 37.7748 21.2459 37.7748 21.6565Z" fill="black"/>
    <path d="M40.2651 21.6565C40.2651 22.067 39.9278 22.4042 39.5173 22.4042C39.1068 22.4042 38.7695 22.067 38.7695 21.6565C38.7695 21.2459 39.1068 20.9087 39.5173 20.9087C39.9425 20.9087 40.2651 21.2459 40.2651 21.6565Z" fill="black"/>
    <path d="M42.7729 21.6565C42.7729 22.067 42.4356 22.4042 42.0251 22.4042C41.6146 22.4042 41.2773 22.067 41.2773 21.6565C41.2773 21.2459 41.6146 20.9087 42.0251 20.9087C42.4356 20.9087 42.7729 21.2459 42.7729 21.6565Z" fill="black"/>
    <path d="M45.2651 21.6565C45.2651 22.067 44.9278 22.4042 44.5173 22.4042C44.1068 22.4042 43.7695 22.067 43.7695 21.6565C43.7695 21.2459 44.1068 20.9087 44.5173 20.9087C44.9278 20.9087 45.2651 21.2459 45.2651 21.6565Z" fill="black"/>
    <path d="M50.2651 21.6565C50.2651 22.067 49.9278 22.4042 49.5173 22.4042C49.1068 22.4042 48.7695 22.067 48.7695 21.6565C48.7695 21.2459 49.1068 20.9087 49.5173 20.9087C49.9278 20.9087 50.2651 21.2459 50.2651 21.6565Z" fill="black"/>
    <path d="M55.2651 21.6565C55.2651 22.067 54.9278 22.4042 54.5173 22.4042C54.1068 22.4042 53.7695 22.067 53.7695 21.6565C53.7695 21.2459 54.1068 20.9087 54.5173 20.9087C54.9278 20.9087 55.2651 21.2459 55.2651 21.6565Z" fill="black"/>
    <path d="M62.7572 21.6565C62.7572 22.067 62.42 22.4042 62.0095 22.4042C61.5989 22.4042 61.2617 22.067 61.2617 21.6565C61.2617 21.2459 61.5989 20.9087 62.0095 20.9087C62.42 20.9087 62.7572 21.2459 62.7572 21.6565Z" fill="black"/>
    <path d="M67.7416 21.6565C67.7416 22.067 67.4044 22.4042 66.9939 22.4042C66.5833 22.4042 66.2461 22.067 66.2461 21.6565C66.2461 21.2459 66.5833 20.9087 66.9939 20.9087C67.4044 20.9087 67.7416 21.2459 67.7416 21.6565Z" fill="black"/>
    <path d="M70.2514 21.6565C70.2514 22.067 69.9142 22.4042 69.5036 22.4042C69.0931 22.4042 68.7559 22.067 68.7559 21.6565C68.7559 21.2459 69.0931 20.9087 69.5036 20.9087C69.9142 20.9087 70.2514 21.2459 70.2514 21.6565Z" fill="black"/>
    <path d="M72.7416 21.6565C72.7416 22.067 72.4044 22.4042 71.9939 22.4042C71.5833 22.4042 71.2461 22.067 71.2461 21.6565C71.2461 21.2459 71.5833 20.9087 71.9939 20.9087C72.4044 20.9087 72.7416 21.2459 72.7416 21.6565Z" fill="black"/>
    <path d="M5.29826 24.1491C5.29826 24.5597 4.96103 24.8969 4.5505 24.8969C4.13996 24.8969 3.80273 24.5597 3.80273 24.1491C3.80273 23.7386 4.13996 23.4014 4.5505 23.4014C4.96103 23.4014 5.29826 23.7386 5.29826 24.1491Z" fill="black"/>
    <path d="M7.80412 24.1491C7.80412 24.5597 7.46689 24.8969 7.05636 24.8969C6.64582 24.8969 6.30859 24.5597 6.30859 24.1491C6.30859 23.7386 6.64582 23.4014 7.05636 23.4014C7.46689 23.4014 7.80412 23.7386 7.80412 24.1491Z" fill="black"/>
    <path d="M10.2963 24.1491C10.2963 24.5597 9.95908 24.8969 9.54854 24.8969C9.13801 24.8969 8.80078 24.5597 8.80078 24.1491C8.80078 23.7386 9.13801 23.4014 9.54854 23.4014C9.95908 23.4014 10.2963 23.7386 10.2963 24.1491Z" fill="black"/>
    <path d="M20.2963 24.1491C20.2963 24.5597 19.9591 24.8969 19.5485 24.8969C19.138 24.8969 18.8008 24.5597 18.8008 24.1491C18.8008 23.7386 19.138 23.4014 19.5485 23.4014C19.9591 23.4014 20.2963 23.7386 20.2963 24.1491Z" fill="black"/>
    <path d="M27.7885 24.1491C27.7885 24.5597 27.4513 24.8969 27.0407 24.8969C26.6302 24.8969 26.293 24.5597 26.293 24.1491C26.293 23.7386 26.6302 23.4014 27.0407 23.4014C27.4513 23.4014 27.7885 23.7386 27.7885 24.1491Z" fill="black"/>
    <path d="M30.2807 24.1491C30.2807 24.5597 29.9435 24.8969 29.5329 24.8969C29.1224 24.8969 28.7852 24.5597 28.7852 24.1491C28.7852 23.7386 29.1224 23.4014 29.5329 23.4014C29.9435 23.4014 30.2807 23.7386 30.2807 24.1491Z" fill="black"/>
    <path d="M37.7748 24.1491C37.7748 24.5597 37.4376 24.8969 37.0271 24.8969C36.6165 24.8969 36.2793 24.5597 36.2793 24.1491C36.2793 23.7386 36.6165 23.4014 37.0271 23.4014C37.4376 23.4014 37.7748 23.7386 37.7748 24.1491Z" fill="black"/>
    <path d="M50.2651 24.1491C50.2651 24.5597 49.9278 24.8969 49.5173 24.8969C49.1068 24.8969 48.7695 24.5597 48.7695 24.1491C48.7695 23.7386 49.1068 23.4014 49.5173 23.4014C49.9278 23.4014 50.2651 23.7386 50.2651 24.1491Z" fill="black"/>
    <path d="M55.2651 24.1491C55.2651 24.5597 54.9278 24.8969 54.5173 24.8969C54.1068 24.8969 53.7695 24.5597 53.7695 24.1491C53.7695 23.7386 54.1068 23.4014 54.5173 23.4014C54.9278 23.4014 55.2651 23.7386 55.2651 24.1491Z" fill="black"/>
    <path d="M60.2494 24.1491C60.2494 24.5597 59.9122 24.8969 59.5017 24.8969C59.0911 24.8969 58.7539 24.5597 58.7539 24.1491C58.7539 23.7386 59.0911 23.4014 59.5017 23.4014C59.9122 23.4014 60.2494 23.7386 60.2494 24.1491Z" fill="black"/>
    <path d="M62.7572 24.1491C62.7572 24.5597 62.42 24.8969 62.0095 24.8969C61.5989 24.8969 61.2617 24.5597 61.2617 24.1491C61.2617 23.7386 61.5989 23.4014 62.0095 23.4014C62.42 23.4014 62.7572 23.7386 62.7572 24.1491Z" fill="black"/>
    <path d="M67.7416 24.1491C67.7416 24.5597 67.4044 24.8969 66.9939 24.8969C66.5833 24.8969 66.2461 24.5597 66.2461 24.1491C66.2461 23.7386 66.5833 23.4014 66.9939 23.4014C67.4044 23.4014 67.7416 23.7386 67.7416 24.1491Z" fill="black"/>
    <path d="M70.2514 24.1491C70.2514 24.5597 69.9142 24.8969 69.5036 24.8969C69.0931 24.8969 68.7559 24.5597 68.7559 24.1491C68.7559 23.7386 69.0931 23.4014 69.5036 23.4014C69.9142 23.4014 70.2514 23.7386 70.2514 24.1491Z" fill="black"/>
    <path d="M2.80607 26.6564C2.80607 27.067 2.46885 27.4042 2.05831 27.4042C1.64777 27.4042 1.31055 27.067 1.31055 26.6564C1.31055 26.2459 1.64777 25.9087 2.05831 25.9087C2.46885 25.894 2.80607 26.2312 2.80607 26.6564Z" fill="black"/>
    <path d="M7.80412 26.6564C7.80412 27.067 7.46689 27.4042 7.05636 27.4042C6.64582 27.4042 6.30859 27.067 6.30859 26.6564C6.30859 26.2459 6.64582 25.9087 7.05636 25.9087C7.46689 25.894 7.80412 26.2312 7.80412 26.6564Z" fill="black"/>
    <path d="M17.7904 26.6564C17.7904 27.067 17.4532 27.4042 17.0427 27.4042C16.6321 27.4042 16.2949 27.067 16.2949 26.6564C16.2949 26.2459 16.6321 25.9087 17.0427 25.9087C17.4532 25.894 17.7904 26.2312 17.7904 26.6564Z" fill="black"/>
    <path d="M20.2963 26.6564C20.2963 27.067 19.9591 27.4042 19.5485 27.4042C19.138 27.4042 18.8008 27.067 18.8008 26.6564C18.8008 26.2459 19.138 25.9087 19.5485 25.9087C19.9591 25.894 20.2963 26.2312 20.2963 26.6564Z" fill="black"/>
    <path d="M30.2807 26.6564C30.2807 27.067 29.9435 27.4042 29.5329 27.4042C29.1224 27.4042 28.7852 27.067 28.7852 26.6564C28.7852 26.2459 29.1224 25.9087 29.5329 25.9087C29.9435 25.894 30.2807 26.2312 30.2807 26.6564Z" fill="black"/>
    <path d="M37.7748 26.6564C37.7748 27.067 37.4376 27.4042 37.0271 27.4042C36.6165 27.4042 36.2793 27.067 36.2793 26.6564C36.2793 26.2459 36.6165 25.9087 37.0271 25.9087C37.4376 25.894 37.7748 26.2312 37.7748 26.6564Z" fill="black"/>
    <path d="M45.2651 26.6564C45.2651 27.067 44.9278 27.4042 44.5173 27.4042C44.1068 27.4042 43.7695 27.067 43.7695 26.6564C43.7695 26.2459 44.1068 25.9087 44.5173 25.9087C44.9278 25.894 45.2651 26.2312 45.2651 26.6564Z" fill="black"/>
    <path d="M52.7592 26.6564C52.7592 27.067 52.422 27.4042 52.0114 27.4042C51.6009 27.4042 51.2637 27.067 51.2637 26.6564C51.2637 26.2459 51.6009 25.9087 52.0114 25.9087C52.422 25.894 52.7592 26.2312 52.7592 26.6564Z" fill="black"/>
    <path d="M60.2494 26.656C60.2494 27.0665 59.9122 27.4037 59.5017 27.4037C59.0911 27.4037 58.7539 27.0665 58.7539 26.656C58.7539 26.2454 59.0911 25.9082 59.5017 25.9082C59.9122 25.9082 60.2494 26.2308 60.2494 26.656Z" fill="black"/>
    <path d="M67.7416 26.656C67.7416 27.0665 67.4044 27.4037 66.9939 27.4037C66.5833 27.4037 66.2461 27.0665 66.2461 26.656C66.2461 26.2454 66.5833 25.9082 66.9939 25.9082C67.4044 25.9082 67.7416 26.2308 67.7416 26.656Z" fill="black"/>
    <path d="M5.29826 29.1486C5.29826 29.5592 4.96103 29.8964 4.5505 29.8964C4.13996 29.8964 3.80273 29.5592 3.80273 29.1486C3.80273 28.7381 4.13996 28.4009 4.5505 28.4009C4.96103 28.4009 5.29826 28.7381 5.29826 29.1486Z" fill="black"/>
    <path d="M20.2963 29.1486C20.2963 29.5592 19.9591 29.8964 19.5485 29.8964C19.138 29.8964 18.8008 29.5592 18.8008 29.1486C18.8008 28.7381 19.138 28.4009 19.5485 28.4009C19.9591 28.4009 20.2963 28.7381 20.2963 29.1486Z" fill="black"/>
    <path d="M22.7885 29.1486C22.7885 29.5592 22.4513 29.8964 22.0407 29.8964C21.6302 29.8964 21.293 29.5592 21.293 29.1486C21.293 28.7381 21.6302 28.4009 22.0407 28.4009C22.4513 28.4009 22.7885 28.7381 22.7885 29.1486Z" fill="black"/>
    <path d="M27.7885 29.1486C27.7885 29.5592 27.4513 29.8964 27.0407 29.8964C26.6302 29.8964 26.293 29.5592 26.293 29.1486C26.293 28.7381 26.6302 28.4009 27.0407 28.4009C27.4513 28.4009 27.7885 28.7381 27.7885 29.1486Z" fill="black"/>
    <path d="M37.7748 29.1486C37.7748 29.5592 37.4376 29.8964 37.0271 29.8964C36.6165 29.8964 36.2793 29.5592 36.2793 29.1486C36.2793 28.7381 36.6165 28.4009 37.0271 28.4009C37.4376 28.4009 37.7748 28.7381 37.7748 29.1486Z" fill="black"/>
    <path d="M40.2651 29.1486C40.2651 29.5592 39.9278 29.8964 39.5173 29.8964C39.1068 29.8964 38.7695 29.5592 38.7695 29.1486C38.7695 28.7381 39.1068 28.4009 39.5173 28.4009C39.9425 28.4009 40.2651 28.7381 40.2651 29.1486Z" fill="black"/>
    <path d="M45.2651 29.1486C45.2651 29.5592 44.9278 29.8964 44.5173 29.8964C44.1068 29.8964 43.7695 29.5592 43.7695 29.1486C43.7695 28.7381 44.1068 28.4009 44.5173 28.4009C44.9278 28.4009 45.2651 28.7381 45.2651 29.1486Z" fill="black"/>
    <path d="M50.2651 29.1486C50.2651 29.5592 49.9278 29.8964 49.5173 29.8964C49.1068 29.8964 48.7695 29.5592 48.7695 29.1486C48.7695 28.7381 49.1068 28.4009 49.5173 28.4009C49.9278 28.4009 50.2651 28.7381 50.2651 29.1486Z" fill="black"/>
    <path d="M52.7592 29.1486C52.7592 29.5592 52.422 29.8964 52.0114 29.8964C51.6009 29.8964 51.2637 29.5592 51.2637 29.1486C51.2637 28.7381 51.6009 28.4009 52.0114 28.4009C52.422 28.4009 52.7592 28.7381 52.7592 29.1486Z" fill="black"/>
    <path d="M57.7572 29.1486C57.7572 29.5592 57.42 29.8964 57.0095 29.8964C56.5989 29.8964 56.2617 29.5592 56.2617 29.1486C56.2617 28.7381 56.5989 28.4009 57.0095 28.4009C57.42 28.4009 57.7572 28.7381 57.7572 29.1486Z" fill="black"/>
    <path d="M60.2494 29.1486C60.2494 29.5592 59.9122 29.8964 59.5017 29.8964C59.0911 29.8964 58.7539 29.5592 58.7539 29.1486C58.7539 28.7381 59.0911 28.4009 59.5017 28.4009C59.9122 28.4009 60.2494 28.7381 60.2494 29.1486Z" fill="black"/>
    <path d="M62.7572 29.1486C62.7572 29.5592 62.42 29.8964 62.0095 29.8964C61.5989 29.8964 61.2617 29.5592 61.2617 29.1486C61.2617 28.7381 61.5989 28.4009 62.0095 28.4009C62.42 28.4009 62.7572 28.7381 62.7572 29.1486Z" fill="black"/>
    <path d="M65.2514 29.1486C65.2514 29.5592 64.9142 29.8964 64.5036 29.8964C64.0931 29.8964 63.7559 29.5592 63.7559 29.1486C63.7559 28.7381 64.0931 28.4009 64.5036 28.4009C64.9142 28.4009 65.2514 28.7381 65.2514 29.1486Z" fill="black"/>
    <path d="M72.7416 29.1486C72.7416 29.5592 72.4044 29.8964 71.9939 29.8964C71.5833 29.8964 71.2461 29.5592 71.2461 29.1486C71.2461 28.7381 71.5833 28.4009 71.9939 28.4009C72.4044 28.4009 72.7416 28.7381 72.7416 29.1486Z" fill="black"/>
    <path d="M10.2963 31.6408C10.2963 32.0514 9.95908 32.3886 9.54854 32.3886C9.13801 32.3886 8.80078 32.0514 8.80078 31.6408C8.80078 31.2303 9.13801 30.8931 9.54854 30.8931C9.95908 30.8931 10.2963 31.2303 10.2963 31.6408Z" fill="black"/>
    <path d="M12.7885 31.6408C12.7885 32.0514 12.4513 32.3886 12.0407 32.3886C11.6302 32.3886 11.293 32.0514 11.293 31.6408C11.293 31.2303 11.6302 30.8931 12.0407 30.8931C12.4659 30.8931 12.7885 31.2303 12.7885 31.6408Z" fill="black"/>
    <path d="M17.7904 31.6408C17.7904 32.0514 17.4532 32.3886 17.0427 32.3886C16.6321 32.3886 16.2949 32.0514 16.2949 31.6408C16.2949 31.2303 16.6321 30.8931 17.0427 30.8931C17.4532 30.8931 17.7904 31.2303 17.7904 31.6408Z" fill="black"/>
    <path d="M25.2807 31.6408C25.2807 32.0514 24.9435 32.3886 24.5329 32.3886C24.1224 32.3886 23.7852 32.0514 23.7852 31.6408C23.7852 31.2303 24.1224 30.8931 24.5329 30.8931C24.9435 30.8931 25.2807 31.2303 25.2807 31.6408Z" fill="black"/>
    <path d="M30.2807 31.6408C30.2807 32.0514 29.9435 32.3886 29.5329 32.3886C29.1224 32.3886 28.7852 32.0514 28.7852 31.6408C28.7852 31.2303 29.1224 30.8931 29.5329 30.8931C29.9435 30.8931 30.2807 31.2303 30.2807 31.6408Z" fill="black"/>
    <path d="M35.2826 31.6408C35.2826 32.0514 34.9454 32.3886 34.5349 32.3886C34.1243 32.3886 33.7871 32.0514 33.7871 31.6408C33.7871 31.2303 34.1243 30.8931 34.5349 30.8931C34.9454 30.8931 35.2826 31.2303 35.2826 31.6408Z" fill="black"/>
    <path d="M37.7748 31.6408C37.7748 32.0514 37.4376 32.3886 37.0271 32.3886C36.6165 32.3886 36.2793 32.0514 36.2793 31.6408C36.2793 31.2303 36.6165 30.8931 37.0271 30.8931C37.4376 30.8931 37.7748 31.2303 37.7748 31.6408Z" fill="black"/>
    <path d="M52.7592 31.6408C52.7592 32.0514 52.422 32.3886 52.0114 32.3886C51.6009 32.3886 51.2637 32.0514 51.2637 31.6408C51.2637 31.2303 51.6009 30.8931 52.0114 30.8931C52.422 30.8931 52.7592 31.2303 52.7592 31.6408Z" fill="black"/>
    <path d="M57.7572 31.6408C57.7572 32.0514 57.42 32.3886 57.0095 32.3886C56.5989 32.3886 56.2617 32.0514 56.2617 31.6408C56.2617 31.2303 56.5989 30.8931 57.0095 30.8931C57.42 30.8931 57.7572 31.2303 57.7572 31.6408Z" fill="black"/>
    <path d="M72.7416 31.6408C72.7416 32.0514 72.4044 32.3886 71.9939 32.3886C71.5833 32.3886 71.2461 32.0514 71.2461 31.6408C71.2461 31.2303 71.5833 30.8931 71.9939 30.8931C72.4044 30.8931 72.7416 31.2303 72.7416 31.6408Z" fill="black"/>
    <path d="M2.80607 34.1486C2.80607 34.5592 2.46885 34.8964 2.05831 34.8964C1.64777 34.8964 1.31055 34.5592 1.31055 34.1486C1.31055 33.7381 1.64777 33.4009 2.05831 33.4009C2.46885 33.3862 2.80607 33.7234 2.80607 34.1486Z" fill="black"/>
    <path d="M5.29826 34.1486C5.29826 34.5592 4.96103 34.8964 4.5505 34.8964C4.13996 34.8964 3.80273 34.5592 3.80273 34.1486C3.80273 33.7381 4.13996 33.4009 4.5505 33.4009C4.96103 33.3862 5.29826 33.7234 5.29826 34.1486Z" fill="black"/>
    <path d="M7.80412 34.1486C7.80412 34.5592 7.46689 34.8964 7.05636 34.8964C6.64582 34.8964 6.30859 34.5592 6.30859 34.1486C6.30859 33.7381 6.64582 33.4009 7.05636 33.4009C7.46689 33.3862 7.80412 33.7234 7.80412 34.1486Z" fill="black"/>
    <path d="M10.2963 34.1486C10.2963 34.5592 9.95908 34.8964 9.54854 34.8964C9.13801 34.8964 8.80078 34.5592 8.80078 34.1486C8.80078 33.7381 9.13801 33.4009 9.54854 33.4009C9.95908 33.3862 10.2963 33.7234 10.2963 34.1486Z" fill="black"/>
    <path d="M20.2963 34.1486C20.2963 34.5592 19.9591 34.8964 19.5485 34.8964C19.138 34.8964 18.8008 34.5592 18.8008 34.1486C18.8008 33.7381 19.138 33.4009 19.5485 33.4009C19.9591 33.3862 20.2963 33.7234 20.2963 34.1486Z" fill="black"/>
    <path d="M22.7885 34.1486C22.7885 34.5592 22.4513 34.8964 22.0407 34.8964C21.6302 34.8964 21.293 34.5592 21.293 34.1486C21.293 33.7381 21.6302 33.4009 22.0407 33.4009C22.4513 33.3862 22.7885 33.7234 22.7885 34.1486Z" fill="black"/>
    <path d="M27.7885 34.1486C27.7885 34.5592 27.4513 34.8964 27.0407 34.8964C26.6302 34.8964 26.293 34.5592 26.293 34.1486C26.293 33.7381 26.6302 33.4009 27.0407 33.4009C27.4513 33.3862 27.7885 33.7234 27.7885 34.1486Z" fill="black"/>
    <path d="M30.2807 34.1486C30.2807 34.5592 29.9435 34.8964 29.5329 34.8964C29.1224 34.8964 28.7852 34.5592 28.7852 34.1486C28.7852 33.7381 29.1224 33.4009 29.5329 33.4009C29.9435 33.3862 30.2807 33.7234 30.2807 34.1486Z" fill="black"/>
    <path d="M32.7748 34.1482C32.7748 34.5587 32.4376 34.8959 32.0271 34.8959C31.6165 34.8959 31.2793 34.5587 31.2793 34.1482C31.2793 33.7376 31.6165 33.4004 32.0271 33.4004C32.4376 33.4004 32.7748 33.723 32.7748 34.1482Z" fill="black"/>
    <path d="M47.7592 34.1486C47.7592 34.5592 47.422 34.8964 47.0114 34.8964C46.6009 34.8964 46.2637 34.5592 46.2637 34.1486C46.2637 33.7381 46.6009 33.4009 47.0114 33.4009C47.4366 33.3862 47.7592 33.7234 47.7592 34.1486Z" fill="black"/>
    <path d="M52.7592 34.1486C52.7592 34.5592 52.422 34.8964 52.0114 34.8964C51.6009 34.8964 51.2637 34.5592 51.2637 34.1486C51.2637 33.7381 51.6009 33.4009 52.0114 33.4009C52.422 33.3862 52.7592 33.7234 52.7592 34.1486Z" fill="black"/>
    <path d="M55.2651 34.1482C55.2651 34.5587 54.9278 34.8959 54.5173 34.8959C54.1068 34.8959 53.7695 34.5587 53.7695 34.1482C53.7695 33.7376 54.1068 33.4004 54.5173 33.4004C54.9278 33.4004 55.2651 33.723 55.2651 34.1482Z" fill="black"/>
    <path d="M57.7572 34.1482C57.7572 34.5587 57.42 34.8959 57.0095 34.8959C56.5989 34.8959 56.2617 34.5587 56.2617 34.1482C56.2617 33.7376 56.5989 33.4004 57.0095 33.4004C57.42 33.4004 57.7572 33.723 57.7572 34.1482Z" fill="black"/>
    <path d="M60.2494 34.1482C60.2494 34.5587 59.9122 34.8959 59.5017 34.8959C59.0911 34.8959 58.7539 34.5587 58.7539 34.1482C58.7539 33.7376 59.0911 33.4004 59.5017 33.4004C59.9122 33.4004 60.2494 33.723 60.2494 34.1482Z" fill="black"/>
    <path d="M62.7572 34.1482C62.7572 34.5587 62.42 34.8959 62.0095 34.8959C61.5989 34.8959 61.2617 34.5587 61.2617 34.1482C61.2617 33.7376 61.5989 33.4004 62.0095 33.4004C62.42 33.4004 62.7572 33.723 62.7572 34.1482Z" fill="black"/>
    <path d="M65.2514 34.1486C65.2514 34.5592 64.9142 34.8964 64.5036 34.8964C64.0931 34.8964 63.7559 34.5592 63.7559 34.1486C63.7559 33.7381 64.0931 33.4009 64.5036 33.4009C64.9142 33.3862 65.2514 33.7234 65.2514 34.1486Z" fill="black"/>
    <path d="M67.7416 34.1482C67.7416 34.5587 67.4044 34.8959 66.9939 34.8959C66.5833 34.8959 66.2461 34.5587 66.2461 34.1482C66.2461 33.7376 66.5833 33.4004 66.9939 33.4004C67.4044 33.4004 67.7416 33.723 67.7416 34.1482Z" fill="black"/>
    <path d="M70.2514 34.1482C70.2514 34.5587 69.9142 34.8959 69.5036 34.8959C69.0931 34.8959 68.7559 34.5587 68.7559 34.1482C68.7559 33.7376 69.0931 33.4004 69.5036 33.4004C69.9142 33.4004 70.2514 33.723 70.2514 34.1482Z" fill="black"/>
    <path d="M72.7416 34.1482C72.7416 34.5587 72.4044 34.8959 71.9939 34.8959C71.5833 34.8959 71.2461 34.5587 71.2461 34.1482C71.2461 33.7376 71.5833 33.4004 71.9939 33.4004C72.4044 33.4004 72.7416 33.723 72.7416 34.1482Z" fill="black"/>
    <path d="M2.80607 36.6408C2.80607 37.0514 2.46885 37.3886 2.05831 37.3886C1.64777 37.3886 1.31055 37.0514 1.31055 36.6408C1.31055 36.2303 1.64777 35.8931 2.05831 35.8931C2.46885 35.8931 2.80607 36.2303 2.80607 36.6408Z" fill="black"/>
    <path d="M5.29826 36.6408C5.29826 37.0514 4.96103 37.3886 4.5505 37.3886C4.13996 37.3886 3.80273 37.0514 3.80273 36.6408C3.80273 36.2303 4.13996 35.8931 4.5505 35.8931C4.96103 35.8931 5.29826 36.2303 5.29826 36.6408Z" fill="black"/>
    <path d="M15.2963 36.6408C15.2963 37.0514 14.9591 37.3886 14.5485 37.3886C14.138 37.3886 13.8008 37.0514 13.8008 36.6408C13.8008 36.2303 14.138 35.8931 14.5485 35.8931C14.9591 35.8931 15.2963 36.2303 15.2963 36.6408Z" fill="black"/>
    <path d="M17.7904 36.6408C17.7904 37.0514 17.4532 37.3886 17.0427 37.3886C16.6321 37.3886 16.2949 37.0514 16.2949 36.6408C16.2949 36.2303 16.6321 35.8931 17.0427 35.8931C17.4532 35.8931 17.7904 36.2303 17.7904 36.6408Z" fill="black"/>
    <path d="M25.2807 36.6408C25.2807 37.0514 24.9435 37.3886 24.5329 37.3886C24.1224 37.3886 23.7852 37.0514 23.7852 36.6408C23.7852 36.2303 24.1224 35.8931 24.5329 35.8931C24.9435 35.8931 25.2807 36.2303 25.2807 36.6408Z" fill="black"/>
    <path d="M27.7885 36.6408C27.7885 37.0514 27.4513 37.3886 27.0407 37.3886C26.6302 37.3886 26.293 37.0514 26.293 36.6408C26.293 36.2303 26.6302 35.8931 27.0407 35.8931C27.4513 35.8931 27.7885 36.2303 27.7885 36.6408Z" fill="black"/>
    <path d="M37.7748 36.6408C37.7748 37.0514 37.4376 37.3886 37.0271 37.3886C36.6165 37.3886 36.2793 37.0514 36.2793 36.6408C36.2793 36.2303 36.6165 35.8931 37.0271 35.8931C37.4376 35.8931 37.7748 36.2303 37.7748 36.6408Z" fill="black"/>
    <path d="M40.2651 36.6408C40.2651 37.0514 39.9278 37.3886 39.5173 37.3886C39.1068 37.3886 38.7695 37.0514 38.7695 36.6408C38.7695 36.2303 39.1068 35.8931 39.5173 35.8931C39.9425 35.8931 40.2651 36.2303 40.2651 36.6408Z" fill="black"/>
    <path d="M47.7592 36.6408C47.7592 37.0514 47.422 37.3886 47.0114 37.3886C46.6009 37.3886 46.2637 37.0514 46.2637 36.6408C46.2637 36.2303 46.6009 35.8931 47.0114 35.8931C47.4366 35.8931 47.7592 36.2303 47.7592 36.6408Z" fill="black"/>
    <path d="M50.2651 36.6408C50.2651 37.0514 49.9278 37.3886 49.5173 37.3886C49.1068 37.3886 48.7695 37.0514 48.7695 36.6408C48.7695 36.2303 49.1068 35.8931 49.5173 35.8931C49.9278 35.8931 50.2651 36.2303 50.2651 36.6408Z" fill="black"/>
    <path d="M57.7572 36.6408C57.7572 37.0514 57.42 37.3886 57.0095 37.3886C56.5989 37.3886 56.2617 37.0514 56.2617 36.6408C56.2617 36.2303 56.5989 35.8931 57.0095 35.8931C57.42 35.8931 57.7572 36.2303 57.7572 36.6408Z" fill="black"/>
    <path d="M60.2494 36.6408C60.2494 37.0514 59.9122 37.3886 59.5017 37.3886C59.0911 37.3886 58.7539 37.0514 58.7539 36.6408C58.7539 36.2303 59.0911 35.8931 59.5017 35.8931C59.9122 35.8931 60.2494 36.2303 60.2494 36.6408Z" fill="black"/>
    <path d="M62.7572 36.6408C62.7572 37.0514 62.42 37.3886 62.0095 37.3886C61.5989 37.3886 61.2617 37.0514 61.2617 36.6408C61.2617 36.2303 61.5989 35.8931 62.0095 35.8931C62.42 35.8931 62.7572 36.2303 62.7572 36.6408Z" fill="black"/>
    <path d="M67.7416 36.6408C67.7416 37.0514 67.4044 37.3886 66.9939 37.3886C66.5833 37.3886 66.2461 37.0514 66.2461 36.6408C66.2461 36.2303 66.5833 35.8931 66.9939 35.8931C67.4044 35.8931 67.7416 36.2303 67.7416 36.6408Z" fill="black"/>
    <path d="M72.7416 36.6408C72.7416 37.0514 72.4044 37.3886 71.9939 37.3886C71.5833 37.3886 71.2461 37.0514 71.2461 36.6408C71.2461 36.2303 71.5833 35.8931 71.9939 35.8931C72.4044 35.8931 72.7416 36.2303 72.7416 36.6408Z" fill="black"/>
    <path d="M15.2963 39.1335C15.2963 39.544 14.9591 39.8813 14.5485 39.8813C14.138 39.8813 13.8008 39.544 13.8008 39.1335C13.8008 38.723 14.138 38.3857 14.5485 38.3857C14.9591 38.3857 15.2963 38.723 15.2963 39.1335Z" fill="black"/>
    <path d="M20.2963 39.1335C20.2963 39.544 19.9591 39.8813 19.5485 39.8813C19.138 39.8813 18.8008 39.544 18.8008 39.1335C18.8008 38.723 19.138 38.3857 19.5485 38.3857C19.9591 38.3857 20.2963 38.723 20.2963 39.1335Z" fill="black"/>
    <path d="M22.7885 39.1335C22.7885 39.544 22.4513 39.8813 22.0407 39.8813C21.6302 39.8813 21.293 39.544 21.293 39.1335C21.293 38.723 21.6302 38.3857 22.0407 38.3857C22.4513 38.3857 22.7885 38.723 22.7885 39.1335Z" fill="black"/>
    <path d="M32.7748 39.1335C32.7748 39.544 32.4376 39.8813 32.0271 39.8813C31.6165 39.8813 31.2793 39.544 31.2793 39.1335C31.2793 38.723 31.6165 38.3857 32.0271 38.3857C32.4376 38.3857 32.7748 38.723 32.7748 39.1335Z" fill="black"/>
    <path d="M35.2826 39.1335C35.2826 39.544 34.9454 39.8813 34.5349 39.8813C34.1243 39.8813 33.7871 39.544 33.7871 39.1335C33.7871 38.723 34.1243 38.3857 34.5349 38.3857C34.9454 38.3857 35.2826 38.723 35.2826 39.1335Z" fill="black"/>
    <path d="M37.7748 39.1335C37.7748 39.544 37.4376 39.8813 37.0271 39.8813C36.6165 39.8813 36.2793 39.544 36.2793 39.1335C36.2793 38.723 36.6165 38.3857 37.0271 38.3857C37.4376 38.3857 37.7748 38.723 37.7748 39.1335Z" fill="black"/>
    <path d="M42.7729 39.1335C42.7729 39.544 42.4356 39.8813 42.0251 39.8813C41.6146 39.8813 41.2773 39.544 41.2773 39.1335C41.2773 38.723 41.6146 38.3857 42.0251 38.3857C42.4356 38.3857 42.7729 38.723 42.7729 39.1335Z" fill="black"/>
    <path d="M57.7572 39.1335C57.7572 39.544 57.42 39.8813 57.0095 39.8813C56.5989 39.8813 56.2617 39.544 56.2617 39.1335C56.2617 38.723 56.5989 38.3857 57.0095 38.3857C57.42 38.3857 57.7572 38.723 57.7572 39.1335Z" fill="black"/>
    <path d="M62.7572 39.1335C62.7572 39.544 62.42 39.8813 62.0095 39.8813C61.5989 39.8813 61.2617 39.544 61.2617 39.1335C61.2617 38.723 61.5989 38.3857 62.0095 38.3857C62.42 38.3857 62.7572 38.723 62.7572 39.1335Z" fill="black"/>
    <path d="M67.7416 39.1335C67.7416 39.544 67.4044 39.8813 66.9939 39.8813C66.5833 39.8813 66.2461 39.544 66.2461 39.1335C66.2461 38.723 66.5833 38.3857 66.9939 38.3857C67.4044 38.3857 67.7416 38.723 67.7416 39.1335Z" fill="black"/>
    <path d="M72.7416 39.1335C72.7416 39.544 72.4044 39.8813 71.9939 39.8813C71.5833 39.8813 71.2461 39.544 71.2461 39.1335C71.2461 38.723 71.5833 38.3857 71.9939 38.3857C72.4044 38.3857 72.7416 38.723 72.7416 39.1335Z" fill="black"/>
    <path d="M2.80607 41.6403C2.80607 42.0509 2.46885 42.3881 2.05831 42.3881C1.64777 42.3881 1.31055 42.0509 1.31055 41.6403C1.31055 41.2298 1.64777 40.8926 2.05831 40.8926C2.46885 40.8926 2.80607 41.2151 2.80607 41.6403Z" fill="black"/>
    <path d="M5.29826 41.6403C5.29826 42.0509 4.96103 42.3881 4.5505 42.3881C4.13996 42.3881 3.80273 42.0509 3.80273 41.6403C3.80273 41.2298 4.13996 40.8926 4.5505 40.8926C4.96103 40.8926 5.29826 41.2151 5.29826 41.6403Z" fill="black"/>
    <path d="M7.80412 41.6403C7.80412 42.0509 7.46689 42.3881 7.05636 42.3881C6.64582 42.3881 6.30859 42.0509 6.30859 41.6403C6.30859 41.2298 6.64582 40.8926 7.05636 40.8926C7.46689 40.8926 7.80412 41.2151 7.80412 41.6403Z" fill="black"/>
    <path d="M10.2963 41.6403C10.2963 42.0509 9.95908 42.3881 9.54854 42.3881C9.13801 42.3881 8.80078 42.0509 8.80078 41.6403C8.80078 41.2298 9.13801 40.8926 9.54854 40.8926C9.95908 40.8926 10.2963 41.2151 10.2963 41.6403Z" fill="black"/>
    <path d="M12.7885 41.6403C12.7885 42.0509 12.4513 42.3881 12.0407 42.3881C11.6302 42.3881 11.293 42.0509 11.293 41.6403C11.293 41.2298 11.6302 40.8926 12.0407 40.8926C12.4659 40.8926 12.7885 41.2151 12.7885 41.6403Z" fill="black"/>
    <path d="M15.2963 41.6403C15.2963 42.0509 14.9591 42.3881 14.5485 42.3881C14.138 42.3881 13.8008 42.0509 13.8008 41.6403C13.8008 41.2298 14.138 40.8926 14.5485 40.8926C14.9591 40.8926 15.2963 41.2151 15.2963 41.6403Z" fill="black"/>
    <path d="M17.7904 41.6403C17.7904 42.0509 17.4532 42.3881 17.0427 42.3881C16.6321 42.3881 16.2949 42.0509 16.2949 41.6403C16.2949 41.2298 16.6321 40.8926 17.0427 40.8926C17.4532 40.8926 17.7904 41.2151 17.7904 41.6403Z" fill="black"/>
    <path d="M30.2807 41.6403C30.2807 42.0509 29.9435 42.3881 29.5329 42.3881C29.1224 42.3881 28.7852 42.0509 28.7852 41.6403C28.7852 41.2298 29.1224 40.8926 29.5329 40.8926C29.9435 40.8926 30.2807 41.2151 30.2807 41.6403Z" fill="black"/>
    <path d="M40.2651 41.6403C40.2651 42.0509 39.9278 42.3881 39.5173 42.3881C39.1068 42.3881 38.7695 42.0509 38.7695 41.6403C38.7695 41.2298 39.1068 40.8926 39.5173 40.8926C39.9425 40.8926 40.2651 41.2151 40.2651 41.6403Z" fill="black"/>
    <path d="M47.7592 41.6403C47.7592 42.0509 47.422 42.3881 47.0114 42.3881C46.6009 42.3881 46.2637 42.0509 46.2637 41.6403C46.2637 41.2298 46.6009 40.8926 47.0114 40.8926C47.4366 40.8926 47.7592 41.2151 47.7592 41.6403Z" fill="black"/>
    <path d="M60.2494 41.6403C60.2494 42.0509 59.9122 42.3881 59.5017 42.3881C59.0911 42.3881 58.7539 42.0509 58.7539 41.6403C58.7539 41.2298 59.0911 40.8926 59.5017 40.8926C59.9122 40.8926 60.2494 41.2151 60.2494 41.6403Z" fill="black"/>
    <path d="M65.2514 41.6403C65.2514 42.0509 64.9142 42.3881 64.5036 42.3881C64.0931 42.3881 63.7559 42.0509 63.7559 41.6403C63.7559 41.2298 64.0931 40.8926 64.5036 40.8926C64.9142 40.8926 65.2514 41.2151 65.2514 41.6403Z" fill="black"/>
    <path d="M2.80607 44.1335C2.80607 44.544 2.46885 44.8813 2.05831 44.8813C1.64777 44.8813 1.31055 44.544 1.31055 44.1335C1.31055 43.723 1.64777 43.3857 2.05831 43.3857C2.46885 43.3857 2.80607 43.723 2.80607 44.1335Z" fill="black"/>
    <path d="M5.29826 44.1335C5.29826 44.544 4.96103 44.8813 4.5505 44.8813C4.13996 44.8813 3.80273 44.544 3.80273 44.1335C3.80273 43.723 4.13996 43.3857 4.5505 43.3857C4.96103 43.3857 5.29826 43.723 5.29826 44.1335Z" fill="black"/>
    <path d="M7.80412 44.1335C7.80412 44.544 7.46689 44.8813 7.05636 44.8813C6.64582 44.8813 6.30859 44.544 6.30859 44.1335C6.30859 43.723 6.64582 43.3857 7.05636 43.3857C7.46689 43.3857 7.80412 43.723 7.80412 44.1335Z" fill="black"/>
    <path d="M10.2963 44.1335C10.2963 44.544 9.95908 44.8813 9.54854 44.8813C9.13801 44.8813 8.80078 44.544 8.80078 44.1335C8.80078 43.723 9.13801 43.3857 9.54854 43.3857C9.95908 43.3857 10.2963 43.723 10.2963 44.1335Z" fill="black"/>
    <path d="M12.7885 44.1335C12.7885 44.544 12.4513 44.8813 12.0407 44.8813C11.6302 44.8813 11.293 44.544 11.293 44.1335C11.293 43.723 11.6302 43.3857 12.0407 43.3857C12.4659 43.3857 12.7885 43.723 12.7885 44.1335Z" fill="black"/>
    <path d="M15.2963 44.1335C15.2963 44.544 14.9591 44.8813 14.5485 44.8813C14.138 44.8813 13.8008 44.544 13.8008 44.1335C13.8008 43.723 14.138 43.3857 14.5485 43.3857C14.9591 43.3857 15.2963 43.723 15.2963 44.1335Z" fill="black"/>
    <path d="M20.2963 44.1335C20.2963 44.544 19.9591 44.8813 19.5485 44.8813C19.138 44.8813 18.8008 44.544 18.8008 44.1335C18.8008 43.723 19.138 43.3857 19.5485 43.3857C19.9591 43.3857 20.2963 43.723 20.2963 44.1335Z" fill="black"/>
    <path d="M22.7885 44.1335C22.7885 44.544 22.4513 44.8813 22.0407 44.8813C21.6302 44.8813 21.293 44.544 21.293 44.1335C21.293 43.723 21.6302 43.3857 22.0407 43.3857C22.4513 43.3857 22.7885 43.723 22.7885 44.1335Z" fill="black"/>
    <path d="M30.2807 44.1335C30.2807 44.544 29.9435 44.8813 29.5329 44.8813C29.1224 44.8813 28.7852 44.544 28.7852 44.1335C28.7852 43.723 29.1224 43.3857 29.5329 43.3857C29.9435 43.3857 30.2807 43.723 30.2807 44.1335Z" fill="black"/>
    <path d="M32.7748 44.1335C32.7748 44.544 32.4376 44.8813 32.0271 44.8813C31.6165 44.8813 31.2793 44.544 31.2793 44.1335C31.2793 43.723 31.6165 43.3857 32.0271 43.3857C32.4376 43.3857 32.7748 43.723 32.7748 44.1335Z" fill="black"/>
    <path d="M47.7592 44.1335C47.7592 44.544 47.422 44.8813 47.0114 44.8813C46.6009 44.8813 46.2637 44.544 46.2637 44.1335C46.2637 43.723 46.6009 43.3857 47.0114 43.3857C47.4366 43.3857 47.7592 43.723 47.7592 44.1335Z" fill="black"/>
    <path d="M50.2651 44.1335C50.2651 44.544 49.9278 44.8813 49.5173 44.8813C49.1068 44.8813 48.7695 44.544 48.7695 44.1335C48.7695 43.723 49.1068 43.3857 49.5173 43.3857C49.9278 43.3857 50.2651 43.723 50.2651 44.1335Z" fill="black"/>
    <path d="M52.7592 44.1335C52.7592 44.544 52.422 44.8813 52.0114 44.8813C51.6009 44.8813 51.2637 44.544 51.2637 44.1335C51.2637 43.723 51.6009 43.3857 52.0114 43.3857C52.422 43.3857 52.7592 43.723 52.7592 44.1335Z" fill="black"/>
    <path d="M62.7572 44.1335C62.7572 44.544 62.42 44.8813 62.0095 44.8813C61.5989 44.8813 61.2617 44.544 61.2617 44.1335C61.2617 43.723 61.5989 43.3857 62.0095 43.3857C62.42 43.3857 62.7572 43.723 62.7572 44.1335Z" fill="black"/>
    <path d="M67.7416 44.1335C67.7416 44.544 67.4044 44.8813 66.9939 44.8813C66.5833 44.8813 66.2461 44.544 66.2461 44.1335C66.2461 43.723 66.5833 43.3857 66.9939 43.3857C67.4044 43.3857 67.7416 43.723 67.7416 44.1335Z" fill="black"/>
    <path d="M70.2514 44.1335C70.2514 44.544 69.9142 44.8813 69.5036 44.8813C69.0931 44.8813 68.7559 44.544 68.7559 44.1335C68.7559 43.723 69.0931 43.3857 69.5036 43.3857C69.9142 43.3857 70.2514 43.723 70.2514 44.1335Z" fill="black"/>
    <path d="M2.80607 46.6257C2.80607 47.0362 2.46885 47.3735 2.05831 47.3735C1.64777 47.3735 1.31055 47.0362 1.31055 46.6257C1.31055 46.2152 1.64777 45.8779 2.05831 45.8779C2.46885 45.8779 2.80607 46.2152 2.80607 46.6257Z" fill="black"/>
    <path d="M5.29826 46.6257C5.29826 47.0362 4.96103 47.3735 4.5505 47.3735C4.13996 47.3735 3.80273 47.0362 3.80273 46.6257C3.80273 46.2152 4.13996 45.8779 4.5505 45.8779C4.96103 45.8779 5.29826 46.2152 5.29826 46.6257Z" fill="black"/>
    <path d="M7.80412 46.6257C7.80412 47.0362 7.46689 47.3735 7.05636 47.3735C6.64582 47.3735 6.30859 47.0362 6.30859 46.6257C6.30859 46.2152 6.64582 45.8779 7.05636 45.8779C7.46689 45.8779 7.80412 46.2152 7.80412 46.6257Z" fill="black"/>
    <path d="M17.7904 46.6257C17.7904 47.0362 17.4532 47.3735 17.0427 47.3735C16.6321 47.3735 16.2949 47.0362 16.2949 46.6257C16.2949 46.2152 16.6321 45.8779 17.0427 45.8779C17.4532 45.8779 17.7904 46.2152 17.7904 46.6257Z" fill="black"/>
    <path d="M27.7885 46.6257C27.7885 47.0362 27.4513 47.3735 27.0407 47.3735C26.6302 47.3735 26.293 47.0362 26.293 46.6257C26.293 46.2152 26.6302 45.8779 27.0407 45.8779C27.4513 45.8779 27.7885 46.2152 27.7885 46.6257Z" fill="black"/>
    <path d="M35.2826 46.6257C35.2826 47.0362 34.9454 47.3735 34.5349 47.3735C34.1243 47.3735 33.7871 47.0362 33.7871 46.6257C33.7871 46.2152 34.1243 45.8779 34.5349 45.8779C34.9454 45.8779 35.2826 46.2152 35.2826 46.6257Z" fill="black"/>
    <path d="M37.7748 46.6257C37.7748 47.0362 37.4376 47.3735 37.0271 47.3735C36.6165 47.3735 36.2793 47.0362 36.2793 46.6257C36.2793 46.2152 36.6165 45.8779 37.0271 45.8779C37.4376 45.8779 37.7748 46.2152 37.7748 46.6257Z" fill="black"/>
    <path d="M42.7729 46.6257C42.7729 47.0362 42.4356 47.3735 42.0251 47.3735C41.6146 47.3735 41.2773 47.0362 41.2773 46.6257C41.2773 46.2152 41.6146 45.8779 42.0251 45.8779C42.4356 45.8779 42.7729 46.2152 42.7729 46.6257Z" fill="black"/>
    <path d="M50.2651 46.6257C50.2651 47.0362 49.9278 47.3735 49.5173 47.3735C49.1068 47.3735 48.7695 47.0362 48.7695 46.6257C48.7695 46.2152 49.1068 45.8779 49.5173 45.8779C49.9278 45.8779 50.2651 46.2152 50.2651 46.6257Z" fill="black"/>
    <path d="M55.2651 46.6257C55.2651 47.0362 54.9278 47.3735 54.5173 47.3735C54.1068 47.3735 53.7695 47.0362 53.7695 46.6257C53.7695 46.2152 54.1068 45.8779 54.5173 45.8779C54.9278 45.8779 55.2651 46.2152 55.2651 46.6257Z" fill="black"/>
    <path d="M62.7572 46.6257C62.7572 47.0362 62.42 47.3735 62.0095 47.3735C61.5989 47.3735 61.2617 47.0362 61.2617 46.6257C61.2617 46.2152 61.5989 45.8779 62.0095 45.8779C62.42 45.8779 62.7572 46.2152 62.7572 46.6257Z" fill="black"/>
    <path d="M65.2514 46.6257C65.2514 47.0362 64.9142 47.3735 64.5036 47.3735C64.0931 47.3735 63.7559 47.0362 63.7559 46.6257C63.7559 46.2152 64.0931 45.8779 64.5036 45.8779C64.9142 45.8779 65.2514 46.2152 65.2514 46.6257Z" fill="black"/>
    <path d="M72.7416 46.6257C72.7416 47.0362 72.4044 47.3735 71.9939 47.3735C71.5833 47.3735 71.2461 47.0362 71.2461 46.6257C71.2461 46.2152 71.5833 45.8779 71.9939 45.8779C72.4044 45.8779 72.7416 46.2152 72.7416 46.6257Z" fill="black"/>
    <path d="M2.80607 49.133C2.80607 49.5435 2.46885 49.8808 2.05831 49.8808C1.64777 49.8808 1.31055 49.5435 1.31055 49.133C1.31055 48.7225 1.64777 48.3853 2.05831 48.3853C2.46885 48.3853 2.80607 48.7225 2.80607 49.133Z" fill="black"/>
    <path d="M5.29826 49.133C5.29826 49.5435 4.96103 49.8808 4.5505 49.8808C4.13996 49.8808 3.80273 49.5435 3.80273 49.133C3.80273 48.7225 4.13996 48.3853 4.5505 48.3853C4.96103 48.3853 5.29826 48.7225 5.29826 49.133Z" fill="black"/>
    <path d="M7.80412 49.133C7.80412 49.5435 7.46689 49.8808 7.05636 49.8808C6.64582 49.8808 6.30859 49.5435 6.30859 49.133C6.30859 48.7225 6.64582 48.3853 7.05636 48.3853C7.46689 48.3853 7.80412 48.7225 7.80412 49.133Z" fill="black"/>
    <path d="M12.7885 49.133C12.7885 49.5435 12.4513 49.8808 12.0407 49.8808C11.6302 49.8808 11.293 49.5435 11.293 49.133C11.293 48.7225 11.6302 48.3853 12.0407 48.3853C12.4659 48.3853 12.7885 48.7225 12.7885 49.133Z" fill="black"/>
    <path d="M30.2807 49.133C30.2807 49.5435 29.9435 49.8808 29.5329 49.8808C29.1224 49.8808 28.7852 49.5435 28.7852 49.133C28.7852 48.7225 29.1224 48.3853 29.5329 48.3853C29.9435 48.3853 30.2807 48.7225 30.2807 49.133Z" fill="black"/>
    <path d="M35.2826 49.133C35.2826 49.5435 34.9454 49.8808 34.5349 49.8808C34.1243 49.8808 33.7871 49.5435 33.7871 49.133C33.7871 48.7225 34.1243 48.3853 34.5349 48.3853C34.9454 48.3853 35.2826 48.7225 35.2826 49.133Z" fill="black"/>
    <path d="M40.2651 49.133C40.2651 49.5435 39.9278 49.8808 39.5173 49.8808C39.1068 49.8808 38.7695 49.5435 38.7695 49.133C38.7695 48.7225 39.1068 48.3853 39.5173 48.3853C39.9425 48.3853 40.2651 48.7225 40.2651 49.133Z" fill="black"/>
    <path d="M42.7729 49.133C42.7729 49.5435 42.4356 49.8808 42.0251 49.8808C41.6146 49.8808 41.2773 49.5435 41.2773 49.133C41.2773 48.7225 41.6146 48.3853 42.0251 48.3853C42.4356 48.3853 42.7729 48.7225 42.7729 49.133Z" fill="black"/>
    <path d="M50.2651 49.133C50.2651 49.5435 49.9278 49.8808 49.5173 49.8808C49.1068 49.8808 48.7695 49.5435 48.7695 49.133C48.7695 48.7225 49.1068 48.3853 49.5173 48.3853C49.9278 48.3853 50.2651 48.7225 50.2651 49.133Z" fill="black"/>
    <path d="M55.2651 49.133C55.2651 49.5435 54.9278 49.8808 54.5173 49.8808C54.1068 49.8808 53.7695 49.5435 53.7695 49.133C53.7695 48.7225 54.1068 48.3853 54.5173 48.3853C54.9278 48.3853 55.2651 48.7225 55.2651 49.133Z" fill="black"/>
    <path d="M60.2494 49.133C60.2494 49.5435 59.9122 49.8808 59.5017 49.8808C59.0911 49.8808 58.7539 49.5435 58.7539 49.133C58.7539 48.7225 59.0911 48.3853 59.5017 48.3853C59.9122 48.3853 60.2494 48.7225 60.2494 49.133Z" fill="black"/>
    <path d="M65.2514 49.133C65.2514 49.5435 64.9142 49.8808 64.5036 49.8808C64.0931 49.8808 63.7559 49.5435 63.7559 49.133C63.7559 48.7225 64.0931 48.3853 64.5036 48.3853C64.9142 48.3853 65.2514 48.7225 65.2514 49.133Z" fill="black"/>
    <path d="M67.7416 49.133C67.7416 49.5435 67.4044 49.8808 66.9939 49.8808C66.5833 49.8808 66.2461 49.5435 66.2461 49.133C66.2461 48.7225 66.5833 48.3853 66.9939 48.3853C67.4044 48.3853 67.7416 48.7225 67.7416 49.133Z" fill="black"/>
    <path d="M2.80607 51.6257C2.80607 52.0362 2.46885 52.3735 2.05831 52.3735C1.64777 52.3735 1.31055 52.0362 1.31055 51.6257C1.31055 51.2152 1.64777 50.8779 2.05831 50.8779C2.46885 50.8779 2.80607 51.2152 2.80607 51.6257Z" fill="black"/>
    <path d="M5.29826 51.6257C5.29826 52.0362 4.96103 52.3735 4.5505 52.3735C4.13996 52.3735 3.80273 52.0362 3.80273 51.6257C3.80273 51.2152 4.13996 50.8779 4.5505 50.8779C4.96103 50.8779 5.29826 51.2152 5.29826 51.6257Z" fill="black"/>
    <path d="M17.7904 51.6257C17.7904 52.0362 17.4532 52.3735 17.0427 52.3735C16.6321 52.3735 16.2949 52.0362 16.2949 51.6257C16.2949 51.2152 16.6321 50.8779 17.0427 50.8779C17.4532 50.8779 17.7904 51.2152 17.7904 51.6257Z" fill="black"/>
    <path d="M22.7885 51.6257C22.7885 52.0362 22.4513 52.3735 22.0407 52.3735C21.6302 52.3735 21.293 52.0362 21.293 51.6257C21.293 51.2152 21.6302 50.8779 22.0407 50.8779C22.4513 50.8779 22.7885 51.2152 22.7885 51.6257Z" fill="black"/>
    <path d="M25.2807 51.6257C25.2807 52.0362 24.9435 52.3735 24.5329 52.3735C24.1224 52.3735 23.7852 52.0362 23.7852 51.6257C23.7852 51.2152 24.1224 50.8779 24.5329 50.8779C24.9435 50.8779 25.2807 51.2152 25.2807 51.6257Z" fill="black"/>
    <path d="M30.2807 51.6257C30.2807 52.0362 29.9435 52.3735 29.5329 52.3735C29.1224 52.3735 28.7852 52.0362 28.7852 51.6257C28.7852 51.2152 29.1224 50.8779 29.5329 50.8779C29.9435 50.8779 30.2807 51.2152 30.2807 51.6257Z" fill="black"/>
    <path d="M32.7748 51.6257C32.7748 52.0362 32.4376 52.3735 32.0271 52.3735C31.6165 52.3735 31.2793 52.0362 31.2793 51.6257C31.2793 51.2152 31.6165 50.8779 32.0271 50.8779C32.4376 50.8779 32.7748 51.2152 32.7748 51.6257Z" fill="black"/>
    <path d="M35.2826 51.6257C35.2826 52.0362 34.9454 52.3735 34.5349 52.3735C34.1243 52.3735 33.7871 52.0362 33.7871 51.6257C33.7871 51.2152 34.1243 50.8779 34.5349 50.8779C34.9454 50.8779 35.2826 51.2152 35.2826 51.6257Z" fill="black"/>
    <path d="M47.7592 51.6257C47.7592 52.0362 47.422 52.3735 47.0114 52.3735C46.6009 52.3735 46.2637 52.0362 46.2637 51.6257C46.2637 51.2152 46.6009 50.8779 47.0114 50.8779C47.4366 50.8779 47.7592 51.2152 47.7592 51.6257Z" fill="black"/>
    <path d="M50.2651 51.6257C50.2651 52.0362 49.9278 52.3735 49.5173 52.3735C49.1068 52.3735 48.7695 52.0362 48.7695 51.6257C48.7695 51.2152 49.1068 50.8779 49.5173 50.8779C49.9278 50.8779 50.2651 51.2152 50.2651 51.6257Z" fill="black"/>
    <path d="M52.7592 51.6257C52.7592 52.0362 52.422 52.3735 52.0114 52.3735C51.6009 52.3735 51.2637 52.0362 51.2637 51.6257C51.2637 51.2152 51.6009 50.8779 52.0114 50.8779C52.422 50.8779 52.7592 51.2152 52.7592 51.6257Z" fill="black"/>
    <path d="M55.2651 51.6257C55.2651 52.0362 54.9278 52.3735 54.5173 52.3735C54.1068 52.3735 53.7695 52.0362 53.7695 51.6257C53.7695 51.2152 54.1068 50.8779 54.5173 50.8779C54.9278 50.8779 55.2651 51.2152 55.2651 51.6257Z" fill="black"/>
    <path d="M57.7572 51.6257C57.7572 52.0362 57.42 52.3735 57.0095 52.3735C56.5989 52.3735 56.2617 52.0362 56.2617 51.6257C56.2617 51.2152 56.5989 50.8779 57.0095 50.8779C57.42 50.8779 57.7572 51.2152 57.7572 51.6257Z" fill="black"/>
    <path d="M60.2494 51.6257C60.2494 52.0362 59.9122 52.3735 59.5017 52.3735C59.0911 52.3735 58.7539 52.0362 58.7539 51.6257C58.7539 51.2152 59.0911 50.8779 59.5017 50.8779C59.9122 50.8779 60.2494 51.2152 60.2494 51.6257Z" fill="black"/>
    <path d="M62.7572 51.6257C62.7572 52.0362 62.42 52.3735 62.0095 52.3735C61.5989 52.3735 61.2617 52.0362 61.2617 51.6257C61.2617 51.2152 61.5989 50.8779 62.0095 50.8779C62.42 50.8779 62.7572 51.2152 62.7572 51.6257Z" fill="black"/>
    <path d="M65.2514 51.6257C65.2514 52.0362 64.9142 52.3735 64.5036 52.3735C64.0931 52.3735 63.7559 52.0362 63.7559 51.6257C63.7559 51.2152 64.0931 50.8779 64.5036 50.8779C64.9142 50.8779 65.2514 51.2152 65.2514 51.6257Z" fill="black"/>
    <path d="M67.7416 51.6257C67.7416 52.0362 67.4044 52.3735 66.9939 52.3735C66.5833 52.3735 66.2461 52.0362 66.2461 51.6257C66.2461 51.2152 66.5833 50.8779 66.9939 50.8779C67.4044 50.8779 67.7416 51.2152 67.7416 51.6257Z" fill="black"/>
    <path d="M70.2514 51.6257C70.2514 52.0362 69.9142 52.3735 69.5036 52.3735C69.0931 52.3735 68.7559 52.0362 68.7559 51.6257C68.7559 51.2152 69.0931 50.8779 69.5036 50.8779C69.9142 50.8779 70.2514 51.2152 70.2514 51.6257Z" fill="black"/>
    <path d="M22.7885 54.1184C22.7885 54.5289 22.4513 54.8661 22.0407 54.8661C21.6302 54.8661 21.293 54.5289 21.293 54.1184C21.293 53.7078 21.6302 53.3706 22.0407 53.3706C22.4513 53.3706 22.7885 53.7078 22.7885 54.1184Z" fill="black"/>
    <path d="M30.2807 54.1184C30.2807 54.5289 29.9435 54.8661 29.5329 54.8661C29.1224 54.8661 28.7852 54.5289 28.7852 54.1184C28.7852 53.7078 29.1224 53.3706 29.5329 53.3706C29.9435 53.3706 30.2807 53.7078 30.2807 54.1184Z" fill="black"/>
    <path d="M32.7748 54.1184C32.7748 54.5289 32.4376 54.8661 32.0271 54.8661C31.6165 54.8661 31.2793 54.5289 31.2793 54.1184C31.2793 53.7078 31.6165 53.3706 32.0271 53.3706C32.4376 53.3706 32.7748 53.7078 32.7748 54.1184Z" fill="black"/>
    <path d="M35.2826 54.1184C35.2826 54.5289 34.9454 54.8661 34.5349 54.8661C34.1243 54.8661 33.7871 54.5289 33.7871 54.1184C33.7871 53.7078 34.1243 53.3706 34.5349 53.3706C34.9454 53.3706 35.2826 53.7078 35.2826 54.1184Z" fill="black"/>
    <path d="M42.7729 54.1184C42.7729 54.5289 42.4356 54.8661 42.0251 54.8661C41.6146 54.8661 41.2773 54.5289 41.2773 54.1184C41.2773 53.7078 41.6146 53.3706 42.0251 53.3706C42.4356 53.3706 42.7729 53.7078 42.7729 54.1184Z" fill="black"/>
    <path d="M45.2651 54.1184C45.2651 54.5289 44.9278 54.8661 44.5173 54.8661C44.1068 54.8661 43.7695 54.5289 43.7695 54.1184C43.7695 53.7078 44.1068 53.3706 44.5173 53.3706C44.9278 53.3706 45.2651 53.7078 45.2651 54.1184Z" fill="black"/>
    <path d="M47.7592 54.1184C47.7592 54.5289 47.422 54.8661 47.0114 54.8661C46.6009 54.8661 46.2637 54.5289 46.2637 54.1184C46.2637 53.7078 46.6009 53.3706 47.0114 53.3706C47.4366 53.3706 47.7592 53.7078 47.7592 54.1184Z" fill="black"/>
    <path d="M52.7592 54.1184C52.7592 54.5289 52.422 54.8661 52.0114 54.8661C51.6009 54.8661 51.2637 54.5289 51.2637 54.1184C51.2637 53.7078 51.6009 53.3706 52.0114 53.3706C52.422 53.3706 52.7592 53.7078 52.7592 54.1184Z" fill="black"/>
    <path d="M62.7572 54.1184C62.7572 54.5289 62.42 54.8661 62.0095 54.8661C61.5989 54.8661 61.2617 54.5289 61.2617 54.1184C61.2617 53.7078 61.5989 53.3706 62.0095 53.3706C62.42 53.3706 62.7572 53.7078 62.7572 54.1184Z" fill="black"/>
    <path d="M65.2514 54.1184C65.2514 54.5289 64.9142 54.8661 64.5036 54.8661C64.0931 54.8661 63.7559 54.5289 63.7559 54.1184C63.7559 53.7078 64.0931 53.3706 64.5036 53.3706C64.9142 53.3706 65.2514 53.7078 65.2514 54.1184Z" fill="black"/>
    <path d="M22.7885 56.6252C22.7885 57.0357 22.4513 57.373 22.0407 57.373C21.6302 57.373 21.293 57.0357 21.293 56.6252C21.293 56.2147 21.6302 55.8774 22.0407 55.8774C22.4513 55.8774 22.7885 56.2147 22.7885 56.6252Z" fill="black"/>
    <path d="M25.2807 56.6252C25.2807 57.0357 24.9435 57.373 24.5329 57.373C24.1224 57.373 23.7852 57.0357 23.7852 56.6252C23.7852 56.2147 24.1224 55.8774 24.5329 55.8774C24.9435 55.8774 25.2807 56.2147 25.2807 56.6252Z" fill="black"/>
    <path d="M27.7885 56.6252C27.7885 57.0357 27.4513 57.373 27.0407 57.373C26.6302 57.373 26.293 57.0357 26.293 56.6252C26.293 56.2147 26.6302 55.8774 27.0407 55.8774C27.4513 55.8774 27.7885 56.2147 27.7885 56.6252Z" fill="black"/>
    <path d="M30.2807 56.6252C30.2807 57.0357 29.9435 57.373 29.5329 57.373C29.1224 57.373 28.7852 57.0357 28.7852 56.6252C28.7852 56.2147 29.1224 55.8774 29.5329 55.8774C29.9435 55.8774 30.2807 56.2147 30.2807 56.6252Z" fill="black"/>
    <path d="M35.2826 56.6252C35.2826 57.0357 34.9454 57.373 34.5349 57.373C34.1243 57.373 33.7871 57.0357 33.7871 56.6252C33.7871 56.2147 34.1243 55.8774 34.5349 55.8774C34.9454 55.8774 35.2826 56.2147 35.2826 56.6252Z" fill="black"/>
    <path d="M40.2651 56.6252C40.2651 57.0357 39.9278 57.373 39.5173 57.373C39.1068 57.373 38.7695 57.0357 38.7695 56.6252C38.7695 56.2147 39.1068 55.8774 39.5173 55.8774C39.9425 55.8774 40.2651 56.2147 40.2651 56.6252Z" fill="black"/>
    <path d="M42.7729 56.6252C42.7729 57.0357 42.4356 57.373 42.0251 57.373C41.6146 57.373 41.2773 57.0357 41.2773 56.6252C41.2773 56.2147 41.6146 55.8774 42.0251 55.8774C42.4356 55.8774 42.7729 56.2147 42.7729 56.6252Z" fill="black"/>
    <path d="M50.2651 56.6252C50.2651 57.0357 49.9278 57.373 49.5173 57.373C49.1068 57.373 48.7695 57.0357 48.7695 56.6252C48.7695 56.2147 49.1068 55.8774 49.5173 55.8774C49.9278 55.8774 50.2651 56.2147 50.2651 56.6252Z" fill="black"/>
    <path d="M52.7592 56.6252C52.7592 57.0357 52.422 57.373 52.0114 57.373C51.6009 57.373 51.2637 57.0357 51.2637 56.6252C51.2637 56.2147 51.6009 55.8774 52.0114 55.8774C52.422 55.8774 52.7592 56.2147 52.7592 56.6252Z" fill="black"/>
    <path d="M57.7572 56.6252C57.7572 57.0357 57.42 57.373 57.0095 57.373C56.5989 57.373 56.2617 57.0357 56.2617 56.6252C56.2617 56.2147 56.5989 55.8774 57.0095 55.8774C57.42 55.8774 57.7572 56.2147 57.7572 56.6252Z" fill="black"/>
    <path d="M62.7572 56.6252C62.7572 57.0357 62.42 57.373 62.0095 57.373C61.5989 57.373 61.2617 57.0357 61.2617 56.6252C61.2617 56.2147 61.5989 55.8774 62.0095 55.8774C62.42 55.8774 62.7572 56.2147 62.7572 56.6252Z" fill="black"/>
    <path d="M65.2514 56.6252C65.2514 57.0357 64.9142 57.373 64.5036 57.373C64.0931 57.373 63.7559 57.0357 63.7559 56.6252C63.7559 56.2147 64.0931 55.8774 64.5036 55.8774C64.9142 55.8774 65.2514 56.2147 65.2514 56.6252Z" fill="black"/>
    <path d="M22.7885 59.1179C22.7885 59.5284 22.4513 59.8656 22.0407 59.8656C21.6302 59.8656 21.293 59.5284 21.293 59.1179C21.293 58.7073 21.6302 58.3701 22.0407 58.3701C22.4513 58.3701 22.7885 58.7073 22.7885 59.1179Z" fill="black"/>
    <path d="M32.7748 59.1179C32.7748 59.5284 32.4376 59.8656 32.0271 59.8656C31.6165 59.8656 31.2793 59.5284 31.2793 59.1179C31.2793 58.7073 31.6165 58.3701 32.0271 58.3701C32.4376 58.3701 32.7748 58.7073 32.7748 59.1179Z" fill="black"/>
    <path d="M35.2826 59.1179C35.2826 59.5284 34.9454 59.8656 34.5349 59.8656C34.1243 59.8656 33.7871 59.5284 33.7871 59.1179C33.7871 58.7073 34.1243 58.3701 34.5349 58.3701C34.9454 58.3701 35.2826 58.7073 35.2826 59.1179Z" fill="black"/>
    <path d="M42.7729 59.1179C42.7729 59.5284 42.4356 59.8656 42.0251 59.8656C41.6146 59.8656 41.2773 59.5284 41.2773 59.1179C41.2773 58.7073 41.6146 58.3701 42.0251 58.3701C42.4356 58.3701 42.7729 58.7073 42.7729 59.1179Z" fill="black"/>
    <path d="M47.7592 59.1179C47.7592 59.5284 47.422 59.8656 47.0114 59.8656C46.6009 59.8656 46.2637 59.5284 46.2637 59.1179C46.2637 58.7073 46.6009 58.3701 47.0114 58.3701C47.4366 58.3701 47.7592 58.7073 47.7592 59.1179Z" fill="black"/>
    <path d="M50.2651 59.1179C50.2651 59.5284 49.9278 59.8656 49.5173 59.8656C49.1068 59.8656 48.7695 59.5284 48.7695 59.1179C48.7695 58.7073 49.1068 58.3701 49.5173 58.3701C49.9278 58.3701 50.2651 58.7073 50.2651 59.1179Z" fill="black"/>
    <path d="M52.7592 59.1179C52.7592 59.5284 52.422 59.8656 52.0114 59.8656C51.6009 59.8656 51.2637 59.5284 51.2637 59.1179C51.2637 58.7073 51.6009 58.3701 52.0114 58.3701C52.422 58.3701 52.7592 58.7073 52.7592 59.1179Z" fill="black"/>
    <path d="M62.7572 59.1179C62.7572 59.5284 62.42 59.8656 62.0095 59.8656C61.5989 59.8656 61.2617 59.5284 61.2617 59.1179C61.2617 58.7073 61.5989 58.3701 62.0095 58.3701C62.42 58.3701 62.7572 58.7073 62.7572 59.1179Z" fill="black"/>
    <path d="M70.2514 59.1179C70.2514 59.5284 69.9142 59.8656 69.5036 59.8656C69.0931 59.8656 68.7559 59.5284 68.7559 59.1179C68.7559 58.7073 69.0931 58.3701 69.5036 58.3701C69.9142 58.3701 70.2514 58.7073 70.2514 59.1179Z" fill="black"/>
    <path d="M22.7885 61.6252C22.7885 62.0357 22.4513 62.3729 22.0407 62.3729C21.6302 62.3729 21.293 62.0357 21.293 61.6252C21.293 61.2146 21.6302 60.8774 22.0407 60.8774C22.4513 60.8628 22.7885 61.2 22.7885 61.6252Z" fill="black"/>
    <path d="M25.2807 61.6252C25.2807 62.0357 24.9435 62.3729 24.5329 62.3729C24.1224 62.3729 23.7852 62.0357 23.7852 61.6252C23.7852 61.2146 24.1224 60.8774 24.5329 60.8774C24.9435 60.8628 25.2807 61.2 25.2807 61.6252Z" fill="black"/>
    <path d="M27.7885 61.6252C27.7885 62.0357 27.4513 62.3729 27.0407 62.3729C26.6302 62.3729 26.293 62.0357 26.293 61.6252C26.293 61.2146 26.6302 60.8774 27.0407 60.8774C27.4513 60.8628 27.7885 61.2 27.7885 61.6252Z" fill="black"/>
    <path d="M30.2807 61.6252C30.2807 62.0357 29.9435 62.3729 29.5329 62.3729C29.1224 62.3729 28.7852 62.0357 28.7852 61.6252C28.7852 61.2146 29.1224 60.8774 29.5329 60.8774C29.9435 60.8628 30.2807 61.2 30.2807 61.6252Z" fill="black"/>
    <path d="M35.2826 61.6252C35.2826 62.0357 34.9454 62.3729 34.5349 62.3729C34.1243 62.3729 33.7871 62.0357 33.7871 61.6252C33.7871 61.2146 34.1243 60.8774 34.5349 60.8774C34.9454 60.8628 35.2826 61.2 35.2826 61.6252Z" fill="black"/>
    <path d="M40.2651 61.6252C40.2651 62.0357 39.9278 62.3729 39.5173 62.3729C39.1068 62.3729 38.7695 62.0357 38.7695 61.6252C38.7695 61.2146 39.1068 60.8774 39.5173 60.8774C39.9425 60.8628 40.2651 61.2 40.2651 61.6252Z" fill="black"/>
    <path d="M42.7729 61.6252C42.7729 62.0357 42.4356 62.373 42.0251 62.373C41.6146 62.373 41.2773 62.0357 41.2773 61.6252C41.2773 61.2147 41.6146 60.8774 42.0251 60.8774C42.4356 60.8774 42.7729 61.2 42.7729 61.6252Z" fill="black"/>
    <path d="M45.2651 61.6252C45.2651 62.0357 44.9278 62.3729 44.5173 62.3729C44.1068 62.3729 43.7695 62.0357 43.7695 61.6252C43.7695 61.2146 44.1068 60.8774 44.5173 60.8774C44.9278 60.8628 45.2651 61.2 45.2651 61.6252Z" fill="black"/>
    <path d="M50.2651 61.6252C50.2651 62.0357 49.9278 62.3729 49.5173 62.3729C49.1068 62.3729 48.7695 62.0357 48.7695 61.6252C48.7695 61.2146 49.1068 60.8774 49.5173 60.8774C49.9278 60.8628 50.2651 61.2 50.2651 61.6252Z" fill="black"/>
    <path d="M52.7592 61.6252C52.7592 62.0357 52.422 62.3729 52.0114 62.3729C51.6009 62.3729 51.2637 62.0357 51.2637 61.6252C51.2637 61.2146 51.6009 60.8774 52.0114 60.8774C52.422 60.8628 52.7592 61.2 52.7592 61.6252Z" fill="black"/>
    <path d="M55.2651 61.6252C55.2651 62.0357 54.9278 62.373 54.5173 62.373C54.1068 62.373 53.7695 62.0357 53.7695 61.6252C53.7695 61.2147 54.1068 60.8774 54.5173 60.8774C54.9278 60.8774 55.2651 61.2 55.2651 61.6252Z" fill="black"/>
    <path d="M57.7572 61.6252C57.7572 62.0357 57.42 62.373 57.0095 62.373C56.5989 62.373 56.2617 62.0357 56.2617 61.6252C56.2617 61.2147 56.5989 60.8774 57.0095 60.8774C57.42 60.8774 57.7572 61.2 57.7572 61.6252Z" fill="black"/>
    <path d="M60.2494 61.6252C60.2494 62.0357 59.9122 62.373 59.5017 62.373C59.0911 62.373 58.7539 62.0357 58.7539 61.6252C58.7539 61.2147 59.0911 60.8774 59.5017 60.8774C59.9122 60.8774 60.2494 61.2 60.2494 61.6252Z" fill="black"/>
    <path d="M62.7572 61.6252C62.7572 62.0357 62.42 62.373 62.0095 62.373C61.5989 62.373 61.2617 62.0357 61.2617 61.6252C61.2617 61.2147 61.5989 60.8774 62.0095 60.8774C62.42 60.8774 62.7572 61.2 62.7572 61.6252Z" fill="black"/>
    <path d="M65.2514 61.6252C65.2514 62.0357 64.9142 62.3729 64.5036 62.3729C64.0931 62.3729 63.7559 62.0357 63.7559 61.6252C63.7559 61.2146 64.0931 60.8774 64.5036 60.8774C64.9142 60.8628 65.2514 61.2 65.2514 61.6252Z" fill="black"/>
    <path d="M70.2514 61.6252C70.2514 62.0357 69.9142 62.373 69.5036 62.373C69.0931 62.373 68.7559 62.0357 68.7559 61.6252C68.7559 61.2147 69.0931 60.8774 69.5036 60.8774C69.9142 60.8774 70.2514 61.2 70.2514 61.6252Z" fill="black"/>
    <path d="M22.7885 64.1174C22.7885 64.5279 22.4513 64.8652 22.0407 64.8652C21.6302 64.8652 21.293 64.5279 21.293 64.1174C21.293 63.7069 21.6302 63.3696 22.0407 63.3696C22.4513 63.3696 22.7885 63.7069 22.7885 64.1174Z" fill="black"/>
    <path d="M35.2826 64.1174C35.2826 64.5279 34.9454 64.8652 34.5349 64.8652C34.1243 64.8652 33.7871 64.5279 33.7871 64.1174C33.7871 63.7069 34.1243 63.3696 34.5349 63.3696C34.9454 63.3696 35.2826 63.7069 35.2826 64.1174Z" fill="black"/>
    <path d="M37.7748 64.1174C37.7748 64.5279 37.4376 64.8652 37.0271 64.8652C36.6165 64.8652 36.2793 64.5279 36.2793 64.1174C36.2793 63.7069 36.6165 63.3696 37.0271 63.3696C37.4376 63.3696 37.7748 63.7069 37.7748 64.1174Z" fill="black"/>
    <path d="M42.7729 64.1174C42.7729 64.5279 42.4356 64.8652 42.0251 64.8652C41.6146 64.8652 41.2773 64.5279 41.2773 64.1174C41.2773 63.7069 41.6146 63.3696 42.0251 63.3696C42.4356 63.3696 42.7729 63.7069 42.7729 64.1174Z" fill="black"/>
    <path d="M47.7592 64.1174C47.7592 64.5279 47.422 64.8652 47.0114 64.8652C46.6009 64.8652 46.2637 64.5279 46.2637 64.1174C46.2637 63.7069 46.6009 63.3696 47.0114 63.3696C47.4366 63.3696 47.7592 63.7069 47.7592 64.1174Z" fill="black"/>
    <path d="M55.2651 64.1174C55.2651 64.5279 54.9278 64.8652 54.5173 64.8652C54.1068 64.8652 53.7695 64.5279 53.7695 64.1174C53.7695 63.7069 54.1068 63.3696 54.5173 63.3696C54.9278 63.3696 55.2651 63.7069 55.2651 64.1174Z" fill="black"/>
    <path d="M70.2514 64.1174C70.2514 64.5279 69.9142 64.8652 69.5036 64.8652C69.0931 64.8652 68.7559 64.5279 68.7559 64.1174C68.7559 63.7069 69.0931 63.3696 69.5036 63.3696C69.9142 63.3696 70.2514 63.7069 70.2514 64.1174Z" fill="black"/>
    <path d="M27.7885 66.6101C27.7885 67.0206 27.4513 67.3578 27.0407 67.3578C26.6302 67.3578 26.293 67.0206 26.293 66.6101C26.293 66.1995 26.6302 65.8623 27.0407 65.8623C27.4513 65.8623 27.7885 66.1995 27.7885 66.6101Z" fill="black"/>
    <path d="M32.7748 66.6101C32.7748 67.0206 32.4376 67.3578 32.0271 67.3578C31.6165 67.3578 31.2793 67.0206 31.2793 66.6101C31.2793 66.1995 31.6165 65.8623 32.0271 65.8623C32.4376 65.8623 32.7748 66.1995 32.7748 66.6101Z" fill="black"/>
    <path d="M37.7748 66.6101C37.7748 67.0206 37.4376 67.3578 37.0271 67.3578C36.6165 67.3578 36.2793 67.0206 36.2793 66.6101C36.2793 66.1995 36.6165 65.8623 37.0271 65.8623C37.4376 65.8623 37.7748 66.1995 37.7748 66.6101Z" fill="black"/>
    <path d="M42.7729 66.6101C42.7729 67.0206 42.4356 67.3578 42.0251 67.3578C41.6146 67.3578 41.2773 67.0206 41.2773 66.6101C41.2773 66.1995 41.6146 65.8623 42.0251 65.8623C42.4356 65.8623 42.7729 66.1995 42.7729 66.6101Z" fill="black"/>
    <path d="M47.7592 66.6101C47.7592 67.0206 47.422 67.3578 47.0114 67.3578C46.6009 67.3578 46.2637 67.0206 46.2637 66.6101C46.2637 66.1995 46.6009 65.8623 47.0114 65.8623C47.4366 65.8623 47.7592 66.1995 47.7592 66.6101Z" fill="black"/>
    <path d="M50.2651 66.6101C50.2651 67.0206 49.9278 67.3578 49.5173 67.3578C49.1068 67.3578 48.7695 67.0206 48.7695 66.6101C48.7695 66.1995 49.1068 65.8623 49.5173 65.8623C49.9278 65.8623 50.2651 66.1995 50.2651 66.6101Z" fill="black"/>
    <path d="M52.7592 66.6101C52.7592 67.0206 52.422 67.3578 52.0114 67.3578C51.6009 67.3578 51.2637 67.0206 51.2637 66.6101C51.2637 66.1995 51.6009 65.8623 52.0114 65.8623C52.422 65.8623 52.7592 66.1995 52.7592 66.6101Z" fill="black"/>
    <path d="M55.2651 66.6101C55.2651 67.0206 54.9278 67.3578 54.5173 67.3578C54.1068 67.3578 53.7695 67.0206 53.7695 66.6101C53.7695 66.1995 54.1068 65.8623 54.5173 65.8623C54.9278 65.8623 55.2651 66.1995 55.2651 66.6101Z" fill="black"/>
    <path d="M60.2494 66.6101C60.2494 67.0206 59.9122 67.3578 59.5017 67.3578C59.0911 67.3578 58.7539 67.0206 58.7539 66.6101C58.7539 66.1995 59.0911 65.8623 59.5017 65.8623C59.9122 65.8623 60.2494 66.1995 60.2494 66.6101Z" fill="black"/>
    <path d="M62.7572 66.6101C62.7572 67.0206 62.42 67.3578 62.0095 67.3578C61.5989 67.3578 61.2617 67.0206 61.2617 66.6101C61.2617 66.1995 61.5989 65.8623 62.0095 65.8623C62.42 65.8623 62.7572 66.1995 62.7572 66.6101Z" fill="black"/>
    <path d="M67.7416 66.6101C67.7416 67.0206 67.4044 67.3578 66.9939 67.3578C66.5833 67.3578 66.2461 67.0206 66.2461 66.6101C66.2461 66.1995 66.5833 65.8623 66.9939 65.8623C67.4044 65.8623 67.7416 66.1995 67.7416 66.6101Z" fill="black"/>
    <path d="M70.2514 66.6101C70.2514 67.0206 69.9142 67.3578 69.5036 67.3578C69.0931 67.3578 68.7559 67.0206 68.7559 66.6101C68.7559 66.1995 69.0931 65.8623 69.5036 65.8623C69.9142 65.8623 70.2514 66.1995 70.2514 66.6101Z" fill="black"/>
    <path d="M72.7416 66.6101C72.7416 67.0206 72.4044 67.3578 71.9939 67.3578C71.5833 67.3578 71.2461 67.0206 71.2461 66.6101C71.2461 66.1995 71.5833 65.8623 71.9939 65.8623C72.4044 65.8623 72.7416 66.1995 72.7416 66.6101Z" fill="black"/>
    <path d="M37.7748 69.1174C37.7748 69.5279 37.4376 69.8652 37.0271 69.8652C36.6165 69.8652 36.2793 69.5279 36.2793 69.1174C36.2793 68.7069 36.6165 68.3696 37.0271 68.3696C37.4376 68.3696 37.7748 68.6922 37.7748 69.1174Z" fill="black"/>
    <path d="M40.2651 69.1174C40.2651 69.5279 39.9278 69.8652 39.5173 69.8652C39.1068 69.8652 38.7695 69.5279 38.7695 69.1174C38.7695 68.7069 39.1068 68.3696 39.5173 68.3696C39.9425 68.3696 40.2651 68.6922 40.2651 69.1174Z" fill="black"/>
    <path d="M57.7572 69.1174C57.7572 69.5279 57.42 69.8652 57.0095 69.8652C56.5989 69.8652 56.2617 69.5279 56.2617 69.1174C56.2617 68.7069 56.5989 68.3696 57.0095 68.3696C57.42 68.3696 57.7572 68.6922 57.7572 69.1174Z" fill="black"/>
    <path d="M60.2494 69.1174C60.2494 69.5279 59.9122 69.8652 59.5017 69.8652C59.0911 69.8652 58.7539 69.5279 58.7539 69.1174C58.7539 68.7069 59.0911 68.3696 59.5017 68.3696C59.9122 68.3696 60.2494 68.6922 60.2494 69.1174Z" fill="black"/>
    <path d="M65.2514 69.1174C65.2514 69.5279 64.9142 69.8652 64.5036 69.8652C64.0931 69.8652 63.7559 69.5279 63.7559 69.1174C63.7559 68.7069 64.0931 68.3696 64.5036 68.3696C64.9142 68.3696 65.2514 68.6922 65.2514 69.1174Z" fill="black"/>
    <path d="M67.7416 69.1174C67.7416 69.5279 67.4044 69.8652 66.9939 69.8652C66.5833 69.8652 66.2461 69.5279 66.2461 69.1174C66.2461 68.7069 66.5833 68.3696 66.9939 68.3696C67.4044 68.3696 67.7416 68.6922 67.7416 69.1174Z" fill="black"/>
    <path d="M72.7416 69.1174C72.7416 69.5279 72.4044 69.8652 71.9939 69.8652C71.5833 69.8652 71.2461 69.5279 71.2461 69.1174C71.2461 68.7069 71.5833 68.3696 71.9939 68.3696C72.4044 68.3696 72.7416 68.6922 72.7416 69.1174Z" fill="black"/>
    <path d="M22.7885 71.6096C22.7885 72.0201 22.4513 72.3573 22.0407 72.3573C21.6302 72.3573 21.293 72.0201 21.293 71.6096C21.293 71.199 21.6302 70.8618 22.0407 70.8618C22.4513 70.8618 22.7885 71.199 22.7885 71.6096Z" fill="black"/>
    <path d="M25.2807 71.6096C25.2807 72.0201 24.9435 72.3573 24.5329 72.3573C24.1224 72.3573 23.7852 72.0201 23.7852 71.6096C23.7852 71.199 24.1224 70.8618 24.5329 70.8618C24.9435 70.8618 25.2807 71.199 25.2807 71.6096Z" fill="black"/>
    <path d="M30.2807 71.6096C30.2807 72.0201 29.9435 72.3573 29.5329 72.3573C29.1224 72.3573 28.7852 72.0201 28.7852 71.6096C28.7852 71.199 29.1224 70.8618 29.5329 70.8618C29.9435 70.8618 30.2807 71.199 30.2807 71.6096Z" fill="black"/>
    <path d="M32.7748 71.6096C32.7748 72.0201 32.4376 72.3573 32.0271 72.3573C31.6165 72.3573 31.2793 72.0201 31.2793 71.6096C31.2793 71.199 31.6165 70.8618 32.0271 70.8618C32.4376 70.8618 32.7748 71.199 32.7748 71.6096Z" fill="black"/>
    <path d="M35.2826 71.6096C35.2826 72.0201 34.9454 72.3573 34.5349 72.3573C34.1243 72.3573 33.7871 72.0201 33.7871 71.6096C33.7871 71.199 34.1243 70.8618 34.5349 70.8618C34.9454 70.8618 35.2826 71.199 35.2826 71.6096Z" fill="black"/>
    <path d="M42.7729 71.6096C42.7729 72.0201 42.4356 72.3573 42.0251 72.3573C41.6146 72.3573 41.2773 72.0201 41.2773 71.6096C41.2773 71.199 41.6146 70.8618 42.0251 70.8618C42.4356 70.8618 42.7729 71.199 42.7729 71.6096Z" fill="black"/>
    <path d="M45.2651 71.6096C45.2651 72.0201 44.9278 72.3573 44.5173 72.3573C44.1068 72.3573 43.7695 72.0201 43.7695 71.6096C43.7695 71.199 44.1068 70.8618 44.5173 70.8618C44.9278 70.8618 45.2651 71.199 45.2651 71.6096Z" fill="black"/>
    <path d="M47.7592 71.6096C47.7592 72.0201 47.422 72.3573 47.0114 72.3573C46.6009 72.3573 46.2637 72.0201 46.2637 71.6096C46.2637 71.199 46.6009 70.8618 47.0114 70.8618C47.4366 70.8618 47.7592 71.199 47.7592 71.6096Z" fill="black"/>
    <path d="M50.2651 71.6096C50.2651 72.0201 49.9278 72.3573 49.5173 72.3573C49.1068 72.3573 48.7695 72.0201 48.7695 71.6096C48.7695 71.199 49.1068 70.8618 49.5173 70.8618C49.9278 70.8618 50.2651 71.199 50.2651 71.6096Z" fill="black"/>
    <path d="M52.7592 71.6096C52.7592 72.0201 52.422 72.3573 52.0114 72.3573C51.6009 72.3573 51.2637 72.0201 51.2637 71.6096C51.2637 71.199 51.6009 70.8618 52.0114 70.8618C52.422 70.8618 52.7592 71.199 52.7592 71.6096Z" fill="black"/>
    <path d="M57.7572 71.6096C57.7572 72.0201 57.42 72.3573 57.0095 72.3573C56.5989 72.3573 56.2617 72.0201 56.2617 71.6096C56.2617 71.199 56.5989 70.8618 57.0095 70.8618C57.42 70.8618 57.7572 71.199 57.7572 71.6096Z" fill="black"/>
    <path d="M60.2494 71.6096C60.2494 72.0201 59.9122 72.3573 59.5017 72.3573C59.0911 72.3573 58.7539 72.0201 58.7539 71.6096C58.7539 71.199 59.0911 70.8618 59.5017 70.8618C59.9122 70.8618 60.2494 71.199 60.2494 71.6096Z" fill="black"/>
    <path d="M62.7572 71.6096C62.7572 72.0201 62.42 72.3573 62.0095 72.3573C61.5989 72.3573 61.2617 72.0201 61.2617 71.6096C61.2617 71.199 61.5989 70.8618 62.0095 70.8618C62.42 70.8618 62.7572 71.199 62.7572 71.6096Z" fill="black"/>
    <path d="M65.2514 71.6096C65.2514 72.0201 64.9142 72.3573 64.5036 72.3573C64.0931 72.3573 63.7559 72.0201 63.7559 71.6096C63.7559 71.199 64.0931 70.8618 64.5036 70.8618C64.9142 70.8618 65.2514 71.199 65.2514 71.6096Z" fill="black"/>
    <path d="M15.6632 0.425781H0.810547V17.9176H18.3023V0.425781H15.6632ZM15.6632 15.2784H3.43505V3.05028H15.6778V15.2784H15.6632Z" fill="#0054E4"/>
    <path d="M70.6183 0.425781H55.7656V17.9176H73.2574V0.425781H70.6183ZM70.6183 15.2784H58.3755V3.05028H70.6183V15.2784Z" fill="#0054E4"/>
    <path d="M15.6632 55.3794H0.810547V72.8712H18.3023V55.3794H15.6632ZM15.6632 70.232H3.43505V57.9892H15.6778V70.232H15.6632Z" fill="#0054E4"/>
    <path d="M13.2872 5.41064H5.79492V12.9029H13.2872V5.41064Z" fill="#0054E4"/>
    <path d="M68.2403 5.41064H60.748V12.9029H68.2403V5.41064Z" fill="#0054E4"/>
    <path d="M13.2872 60.3643H5.79492V67.8566H13.2872V60.3643Z" fill="#0054E4"/>
</svg>
