<svg width="108" height="52" viewBox="0 0 108 52" fill="none" xmlns="http://www.w3.org/2000/svg">
<g clip-path="url(#clip0)">
<path d="M3.99626 6.88505C5.72959 5.15172 7.94441 4.23691 11.0259 3.80357C14.1074 3.37024 18.0074 3.37024 23.1111 3.37024C28.2148 3.37024 32.0666 3.37024 35.1963 3.80357C38.2777 4.23691 40.4926 5.15172 42.2259 6.88505C43.9592 8.61839 44.874 10.8332 45.3074 13.9147C45.7407 16.9962 45.7407 20.8962 45.7407 25.9999C45.7407 31.1036 45.7407 34.9554 45.3074 38.0851C44.874 41.1665 43.9592 43.3813 42.2259 45.1147C40.4926 46.848 38.2777 47.7628 35.1963 48.1962C32.0666 48.6295 28.1666 48.6295 23.1111 48.6295C18.0555 48.6295 14.1555 48.6295 11.0259 48.1962C7.94441 47.7628 5.72959 46.848 3.99626 45.1147C2.26293 43.3332 1.39626 41.1184 0.914779 38.0369C0.481445 34.9554 0.481445 31.0554 0.481445 25.9999C0.481445 20.9443 0.481445 17.0443 0.914779 13.9147C1.39626 10.8813 2.26293 8.66654 3.99626 6.88505Z" stroke="black" stroke-width="2"/>
<path d="M22.1 40.8295C20.4629 39.5777 19.2111 37.6517 18.8259 35.4851H13.4814V12.374C16.3703 13.8184 18.4407 16.9962 18.6814 20.2703L19.5 26.7703L19.1148 26.7221C18.2481 26.7221 17.4777 27.5406 17.4777 28.3591C17.4777 29.1295 18.0555 29.7554 18.8259 29.8999L19.7889 30.1406C21.4259 27.1073 22.3407 24.1221 22.3407 21.1369C22.3407 18.4888 22.0037 15.8406 21.9555 13.1443C21.9555 11.9406 22.3889 10.8332 23.1592 9.96655C23.9296 10.8332 24.3629 11.9406 24.3629 13.1443C24.3629 15.8406 23.9777 18.4888 23.9777 21.1369C23.9777 24.074 24.8926 27.0591 26.5296 30.1406L27.4926 29.8999C28.2629 29.7554 28.8407 29.0814 28.8407 28.3591C28.8407 27.5406 28.0703 26.7221 27.2037 26.7221L26.8185 26.7703L27.5407 20.2221C27.9259 16.948 29.8518 13.7703 32.7407 12.374V35.5332H27.3963C27.0111 37.6999 25.8555 39.674 24.1222 40.8777C23.737 41.1666 23.3518 41.5036 23.1592 41.9851C22.8703 41.4554 22.5333 41.1666 22.1 40.8295ZM16.0333 27.4925C16.274 26.6258 16.9 25.8554 17.6703 25.4221L17.0444 20.0777C16.8037 18.4406 16.1296 16.8999 15.0703 15.6962V27.4925H16.0333ZM18.7296 33.8962C18.7296 33.0777 18.874 32.3554 19.0185 31.5851L18.2963 31.3925C17.1889 31.0554 16.3222 30.1888 16.0333 29.0814H15.1185V33.848H18.7296V33.8962ZM22.2926 33.8962C22.2926 32.9332 21.5222 32.0666 20.5592 31.9221C20.4148 32.548 20.2703 33.174 20.2703 33.8962H22.2926ZM22.2926 35.4851H20.5111C20.8 36.7369 21.4259 37.8925 22.2926 38.9036V35.4851ZM24.7963 30.4777C24.1222 29.2258 23.4481 27.8777 23.0629 26.5295C22.6777 27.9258 22.0037 29.2258 21.3296 30.4777C22.0037 30.6221 22.5814 31.1036 23.0629 31.6332C23.5444 31.1036 24.1222 30.6703 24.7963 30.4777ZM25.9037 33.8962C25.9037 33.2221 25.7592 32.548 25.6148 31.9221C24.6518 32.0666 23.8814 32.8851 23.8814 33.8962H25.9037ZM25.6629 35.4851H23.8814V38.9036C24.7481 37.8925 25.374 36.7851 25.6629 35.4851ZM31.1037 33.8962V29.1295H30.1889C29.9 30.2369 29.0333 31.1036 27.9259 31.4406L27.1555 31.5851C27.3 32.3554 27.4444 33.0777 27.4444 33.8962H31.1037ZM31.1037 27.4925V15.6962C30.0444 16.8999 29.3222 18.3925 29.1296 20.0777L28.5037 25.4221C29.3222 25.8554 29.9481 26.6258 30.1407 27.4925H31.1037Z" fill="black"/>
</g>
<g clip-path="url(#clip1)">
<path d="M60.5358 2.651H55.5068V49.349H60.5358V2.651Z" fill="#009EE0"/>
<path d="M69.8757 2.651H64.8467V49.349H69.8757V2.651Z" fill="#22BBEA"/>
<path d="M88.5544 2.651H83.5254V49.349H88.5544V2.651Z" fill="#FFDD00"/>
<path d="M97.8942 2.651H92.8652V26H97.8942V2.651Z" fill="#FFCC00"/>
<path d="M107.234 2.651H102.205V49.349H107.234V2.651Z" fill="#FFBB00"/>
<path d="M79.0632 2.651H74.0342V49.349H79.0632V2.651Z" fill="#A2DAF3"/>
</g>
<defs>
<clipPath id="clip0">
<rect y="2.88879" width="46.2222" height="46.2222" fill="white"/>
</clipPath>
<clipPath id="clip1">
<rect x="55.3701" width="52" height="52" fill="white"/>
</clipPath>
</defs>
</svg>
