<!-- Generated by IcoMoon.io -->
<svg version="1.1" xmlns="http://www.w3.org/2000/svg" width="32" height="32" viewBox="0 0 32 32">
<title>message-white</title>
<path fill="none" stroke="#fff" stroke-linejoin="miter" stroke-linecap="butt" stroke-miterlimit="4" stroke-width="1.7778" d="M3.175 3.176l0.001-0.001c1.088-1.090 2.489-1.675 4.547-1.977 2.089-0.307 4.74-0.309 8.273-0.309s6.185 0.002 8.274 0.308c2.059 0.302 3.462 0.885 4.553 1.973 1.091 1.091 1.675 2.494 1.978 4.553 0.307 2.090 0.309 4.741 0.309 8.274s-0.002 6.185-0.309 8.274c-0.302 2.059-0.887 3.462-1.978 4.553s-2.495 1.675-4.555 1.978c-2.090 0.307-4.742 0.309-8.272 0.309s-6.182-0.002-8.271-0.309c-2.060-0.302-3.462-0.887-4.549-1.977l-0.001-0.001c-1.091-1.091-1.675-2.495-1.978-4.555-0.307-2.090-0.309-4.742-0.309-8.272s0.002-6.182 0.309-8.271c0.302-2.060 0.887-3.462 1.977-4.549z"></path>
<path fill="#fff" d="M8.89 14.222c0-2.514 0-3.771 0.781-4.552s2.038-0.781 4.552-0.781h3.556c2.514 0 3.771 0 4.552 0.781s0.781 2.038 0.781 4.552v3.556c0 2.514 0 3.771-0.781 4.552s-2.038 0.781-4.552 0.781h-3.556l-2.667 2.667v-2.734c-0.867-0.085-1.45-0.278-1.886-0.713-0.781-0.781-0.781-2.038-0.781-4.552v-3.556zM12.446 16.889c0.491 0 0.889-0.398 0.889-0.889s-0.398-0.889-0.889-0.889c-0.491 0-0.889 0.398-0.889 0.889s0.398 0.889 0.889 0.889zM16.89 16c0-0.491-0.398-0.889-0.889-0.889s-0.889 0.398-0.889 0.889c0 0.491 0.398 0.889 0.889 0.889s0.889-0.398 0.889-0.889zM19.556 16.889c0.491 0 0.889-0.398 0.889-0.889s-0.398-0.889-0.889-0.889-0.889 0.398-0.889 0.889c0 0.491 0.398 0.889 0.889 0.889z"></path>
</svg>
