<svg width="32" height="43" viewBox="0 0 32 43" fill="#000" xmlns="http://www.w3.org/2000/svg">
    <path d="M12.7715 1.65625C12.7715 1.25014 12.6102 0.86066 12.323 0.573493C12.0358 0.286327 11.6463 0.125003 11.2402 0.125003L3.58398 0.125004C2.77176 0.125004 1.9928 0.447658 1.41847 1.02199C0.844138 1.59632 0.521483 2.37528 0.521483 3.1875L0.521484 39.9375C0.521484 40.7497 0.84414 41.5287 1.41847 42.103C1.9928 42.6773 2.77176 43 3.58398 43L11.2402 43C11.6463 43 12.0358 42.8387 12.323 42.5515C12.6102 42.2643 12.7715 41.8749 12.7715 41.4687C12.7715 40.6565 13.0941 39.8776 13.6685 39.3032C14.2428 38.7289 15.0218 38.4062 15.834 38.4062C16.6462 38.4062 17.4252 38.7289 17.9995 39.3032C18.5738 39.8776 18.8965 40.6565 18.8965 41.4687C18.8965 41.8749 19.0578 42.2643 19.345 42.5515C19.6321 42.8387 20.0216 43 20.4277 43L28.084 43C28.8962 43 29.6752 42.6773 30.2495 42.103C30.8238 41.5287 31.1465 40.7497 31.1465 39.9375L31.1465 3.1875C31.1465 2.37528 30.8238 1.59632 30.2495 1.02199C29.6752 0.447657 28.8962 0.125003 28.084 0.125003L20.4277 0.125003C20.0216 0.125003 19.6321 0.286327 19.345 0.573493C19.0578 0.86066 18.8965 1.25014 18.8965 1.65625C18.8965 2.46848 18.5738 3.24744 17.9995 3.82177C17.4252 4.39609 16.6462 4.71875 15.834 4.71875C15.0218 4.71875 14.2428 4.39609 13.6685 3.82177C13.0941 3.24744 12.7715 2.46848 12.7715 1.65625ZM21.7599 3.1875L28.084 3.1875L28.084 13.9063L23.4902 13.9063L23.4902 16.9688L28.084 16.9688L28.084 39.9375L21.7599 39.9375C21.4173 38.6268 20.6499 37.4666 19.5776 36.6385C18.5053 35.8105 17.1888 35.3613 15.834 35.3613C14.4792 35.3613 13.1627 35.8105 12.0904 36.6385C11.0181 37.4666 10.2506 38.6268 9.90805 39.9375L3.58398 39.9375L3.58398 16.9688L8.17773 16.9688L8.17773 13.9063L3.58398 13.9063L3.58398 3.1875L9.90805 3.1875C10.2506 4.49825 11.0181 5.65842 12.0904 6.48646C13.1627 7.3145 14.4792 7.76367 15.834 7.76367C17.1888 7.76367 18.5053 7.3145 19.5776 6.48646C20.6499 5.65842 21.4173 4.49825 21.7599 3.1875Z"/>
</svg>
