<!-- Generated by IcoMoon.io -->
<svg version="1.1" xmlns="http://www.w3.org/2000/svg" width="15" height="32" viewBox="0 0 15 32">
<title>passanger</title>
<path fill="#3398ff" d="M8.852 13.072c0 0.486 0 0.985 0 1.471 0 5.019 0 10.051 0 15.069 0 0.92-0.449 1.577-1.229 1.813-0.885 0.263-1.784-0.145-2.154-0.999-0.040-0.079-0.066-0.158-0.132-0.289-0.066 0.158-0.106 0.263-0.159 0.355-0.33 0.696-1.123 1.117-1.85 0.985-0.859-0.158-1.467-0.762-1.493-1.59-0.040-1.458-0.013-2.917-0.013-4.362 0-2.404 0-4.822 0-7.226 0-0.21-0.040-0.329-0.264-0.421-0.608-0.223-1.004-0.709-1.163-1.301-0.185-0.683-0.37-1.393-0.383-2.089-0.026-1.918 0-3.836 0.066-5.741 0.026-0.631 0.185-1.274 0.37-1.892 0.238-0.762 0.78-1.222 1.612-1.222 1.427-0.026 2.867-0.013 4.294-0.026 0.476 0 0.951 0.026 1.414 0.026 0.885 0 1.427 0.368 1.771 1.196 0.37 0.907 0.727 1.826 1.083 2.746 0.885 2.247 1.771 4.493 2.643 6.753 0.106 0.289 0.185 0.617 0.172 0.92-0.026 0.749-0.78 1.209-1.44 0.867-0.304-0.158-0.608-0.46-0.78-0.762-0.74-1.327-1.427-2.693-2.141-4.033-0.053-0.092-0.106-0.184-0.159-0.276-0.013 0-0.040 0.013-0.066 0.026z"></path>
<path fill="#3398ff" d="M12.42 21.087c0-0.158 0-0.342 0-0.526 0-0.171-0.026-0.368 0.026-0.525 0.053-0.131 0.185-0.315 0.304-0.342 0.238-0.039 0.291 0.197 0.291 0.381 0.013 0.342 0 0.67 0 1.064 0.357 0 0.674 0 0.991 0 0.423 0 0.595 0.171 0.595 0.591 0 3.048 0 6.109 0 9.157 0 0.42-0.172 0.604-0.595 0.604-0.859 0-1.718 0-2.577 0-0.462 0-0.634-0.197-0.634-0.683 0-2.562 0-5.124 0-7.673 0-0.46 0-0.92 0-1.379 0.013-0.434 0.185-0.604 0.634-0.617 0.291 0 0.568 0 0.859-0.013 0.026 0.013 0.053 0 0.106-0.039z"></path>
<path fill="#3398ff" d="M2.695 2.601c0-1.419 1.189-2.601 2.603-2.601 1.453 0 2.669 1.182 2.656 2.614-0.013 1.458-1.189 2.614-2.656 2.614-1.44 0-2.603-1.169-2.603-2.628z"></path>
</svg>
