<svg width="68" height="63" viewBox="0 0 68 63" fill="none" xmlns="http://www.w3.org/2000/svg">
<path d="M44.603 37.9861C45.0016 38.7171 45.4135 39.4614 45.8121 40.1924C47.0477 42.4652 48.2834 44.738 49.5057 47.024C49.612 47.2234 49.6784 47.4626 49.6917 47.6886C49.8512 49.3633 49.9973 51.038 50.1435 52.7127C50.3029 54.5468 50.4756 56.3677 50.6483 58.2019C50.7281 59.0924 50.7945 59.9829 50.9141 60.8734C51.0602 61.9367 52.1497 62.8937 53.2259 62.9867C54.9531 63.1462 56.3349 61.7639 56.2021 60.1158C56.1091 58.9196 55.9895 57.7101 55.8832 56.5139C55.7238 54.7329 55.5643 52.9652 55.3916 51.1842C55.2322 49.4696 55.086 47.7418 54.8734 46.0272C54.807 45.5354 54.5413 45.057 54.3021 44.5918C52.8672 41.7873 51.419 38.9829 49.984 36.1785C49.8777 35.9791 49.8246 35.7133 49.8379 35.4873C49.984 33.9057 50.1567 32.3108 50.3162 30.7291C50.4623 29.2139 50.6085 27.6854 50.7546 26.1702C50.9008 24.6816 51.0469 23.193 51.1931 21.7044C51.2064 21.5981 51.2595 21.4918 51.3127 21.2924C51.4322 21.4652 51.4987 21.5582 51.5518 21.6645C52.3091 23.007 53.1063 24.3228 53.7972 25.6918C54.3021 26.6753 55.0594 27.2468 56.0825 27.6057C58.8328 28.5627 61.5698 29.5861 64.3068 30.5829C65.8347 31.1411 67.3893 30.3437 67.9074 28.8019C68.3193 27.5924 67.4158 25.9842 66.0739 25.5057C63.5893 24.6285 61.1048 23.7114 58.6335 22.8076C58.4608 22.7411 58.2748 22.5816 58.1685 22.4221C56.4279 19.4848 54.7007 16.5342 52.9602 13.5968C52.3756 12.6133 51.512 12.0816 50.3826 11.9354C49.3861 11.8158 48.3896 11.6297 47.3932 11.4702C46.1044 11.2709 44.8156 11.0715 43.5268 10.8721C43.1548 10.819 42.7828 10.7791 42.4107 10.6994C41.5206 10.4867 40.6835 10.5664 39.8066 10.8854C37.6143 11.7095 35.3955 12.4671 33.19 13.2513C32.5788 13.4772 32.0872 13.8494 31.755 14.4209C30.1341 17.0924 28.5131 19.7506 26.9055 22.4221C26.3474 23.3525 26.3342 24.3361 26.8656 25.293C26.9719 25.4924 26.9719 25.6386 26.8523 25.838C24.2615 29.9582 21.6706 34.0785 19.093 38.1987C18.9336 38.4513 18.7875 38.4645 18.5483 38.3183C17.3658 37.6405 16.1833 36.9627 15.0008 36.2981C14.6022 36.0721 14.6022 36.0721 14.3764 36.4709C11.1743 42.0664 7.98558 47.662 4.78355 53.2709C4.54439 53.6829 4.31852 54.1082 4.07936 54.507C3.97308 54.693 3.98636 54.7994 4.17237 54.9057C5.16885 55.4772 6.16534 56.0487 7.17511 56.607C7.26811 56.6601 7.46741 56.6335 7.54713 56.5671C8.59676 55.6367 9.81911 55.331 11.1876 55.5171C11.4799 55.557 11.6261 55.4905 11.7722 55.238C14.1638 51.0513 16.5819 46.8778 18.9602 42.6778C21.0727 38.9297 23.4244 35.3544 25.6831 31.6994C26.6796 30.0911 27.6894 28.4962 28.6991 26.888C28.832 26.6886 28.9649 26.569 29.2306 26.569C30.2404 26.5291 30.9844 26.0506 31.5026 25.1867C32.8711 22.9139 34.2662 20.6544 35.6347 18.3816C35.8207 18.0759 36.0465 17.943 36.392 17.8766C37.5479 17.6639 38.6905 17.3981 39.8332 17.1589C40.0325 17.119 40.2451 17.0791 40.4444 17.0259C40.6968 16.9595 40.7632 17.0791 40.7499 17.3051C40.6702 18.3418 40.5905 19.3785 40.5108 20.4152C40.3513 22.4354 40.1786 24.4557 40.0192 26.4759C39.8597 28.3633 39.7003 30.2506 39.5542 32.138C39.4346 33.6664 39.3549 35.2082 39.2087 36.7367C39.1556 37.2551 38.943 37.7601 38.7835 38.2652C38.0927 40.5247 37.3885 42.7842 36.6976 45.0437C36.4717 45.7614 36.2591 46.4791 36.02 47.1968C35.9668 47.3563 35.8207 47.4892 35.7011 47.5956C33.1102 49.7221 30.5061 51.8354 27.902 53.9487C27.2111 54.507 26.7062 55.1316 26.56 56.0354C26.3474 57.431 27.4502 58.8532 28.8586 58.9728C29.6425 59.0392 30.3467 58.8664 30.9578 58.3614C33.8144 56.0487 36.6444 53.7095 39.5276 51.4234C40.3381 50.7854 40.8031 50.0013 41.0821 49.031C41.6003 47.2101 42.1849 45.4158 42.7562 43.6082C43.3009 41.8405 43.859 40.0595 44.4037 38.2918C44.4436 38.1721 44.4967 38.0525 44.5499 37.9462C44.5366 37.9728 44.5631 37.9861 44.603 37.9861Z" fill="#7b7b7b" />
<path d="M53.5454 4.81141C53.5985 2.21963 51.3664 -0.0132779 48.7357 1.32569e-05C46.0385 0.0133044 43.8729 2.17976 43.8861 4.85128C43.8994 7.49622 46.0784 9.67596 48.7224 9.67596C51.4461 9.67596 53.6118 7.40318 53.5454 4.81141Z" fill="#7b7b7b"/>
<path d="M2.17858 53.8025C2.59046 53.0848 2.97577 52.407 3.36107 51.7424C6.4701 46.3063 9.57912 40.8836 12.6881 35.4475C12.821 35.2215 12.8077 35.0886 12.5553 34.9557C12.2497 34.8095 11.9574 34.6234 11.6651 34.4506C10.6819 33.8924 9.72527 34.1582 9.15396 35.1551C8.11762 36.9627 7.08127 38.7835 6.04493 40.5911C4.13169 43.9272 2.21844 47.2766 0.305196 50.6127C-0.279407 51.6361 -0.0269661 52.5399 1.00937 53.138C1.39468 53.3506 1.7667 53.5633 2.17858 53.8025Z" fill="#7b7b7b"/>
<path d="M7.82526 59.85C7.83855 61.3519 8.98118 62.4684 10.5091 62.4551C11.9308 62.4418 13.1133 61.2456 13.1133 59.8101C13.1133 58.3747 11.8909 57.1652 10.456 57.1652C8.98118 57.1785 7.81198 58.3614 7.82526 59.85Z" fill="#7b7b7b"/>
</svg>
