<svg width="48" height="72" viewBox="0 0 48 72" fill="none" xmlns="http://www.w3.org/2000/svg">
    <g clip-path="url(#clip0)">
        <path d="M26.6667 0.839844C24.8333 0.839844 23.2639 1.50831 21.9583 2.84525C20.6528 4.18219 20 5.78936 20 7.66677C20 9.54417 20.6528 11.1513 21.9583 12.4883C23.2639 13.8252 24.8333 14.4937 26.6667 14.4937C28.5 14.4937 30.0694 13.8252 31.375 12.4883C32.6806 11.1513 33.3333 9.54417 33.3333 7.66677C33.3333 5.78936 32.6806 4.18219 31.375 2.84525C30.0694 1.50831 28.5 0.839844 26.6667 0.839844ZM11.4583 69.7918L18.5 57.9727C19.2778 56.6642 19.8611 55.3557 20.25 54.0472L22.6667 45.8549L29.9583 53.6632L36.3333 69.3224C36.6389 70.0904 37.1181 70.702 37.7708 71.1572C38.4236 71.6123 39.1667 71.8398 40 71.8398C41.1111 71.8398 42.0556 71.4416 42.8333 70.6451C43.6111 69.8487 44 68.8815 44 67.7437C44 67.2601 43.9028 66.7481 43.7083 66.2076L37.875 51.4871C37.5139 50.5484 37.2292 49.9155 37.0208 49.5883C36.8125 49.2612 36.3472 48.6994 35.625 47.9029L27.4167 38.8573L29.9167 26.8248L32.25 31.4757C32.6944 32.4428 33.3056 33.1397 34.0833 33.5664C34.25 33.6517 37.125 35.1451 42.7083 38.0466C44.0417 38.7293 44.9167 39.0706 45.3333 39.0706C46.1111 39.0706 46.75 38.8146 47.25 38.3026C47.75 37.7906 48 37.1363 48 36.3398C48 35.1736 47.4722 34.306 46.4167 33.7371L36.875 28.5315L33.125 19.7419C32.4306 18.1774 31.5139 17.324 30.375 17.1818L20.8333 16.0724C19.9444 15.9871 18.75 16.2573 17.25 16.8831L7.16667 20.9793C6.61111 21.2068 6.06944 21.5908 5.54167 22.1313C5.01389 22.6718 4.66667 23.2265 4.5 23.7954C2.30556 29.5983 0.861111 33.4668 0.166667 35.4011C0.0555556 35.6572 0 35.9701 0 36.3398C0 37.0794 0.263889 37.7195 0.791667 38.2599C1.31944 38.8004 1.94444 39.0706 2.66667 39.0706C3.22222 39.0706 3.78472 38.9355 4.35417 38.6653C4.92361 38.395 5.29167 38.0466 5.45833 37.6199L9.70833 26.1848L18.4583 22.814L12.3333 52.1271L4.5 65.7809C4.16667 66.4352 4 67.0894 4 67.7437C4 68.8815 4.38889 69.8487 5.16667 70.6451C5.94444 71.4416 6.88889 71.8398 8 71.8398C9.5 71.8398 10.6528 71.1572 11.4583 69.7918Z" fill="#6E6E6E"/>
    </g>
    <defs>
        <clipPath id="clip0">
            <rect width="48" height="71" fill="white" transform="translate(0 0.839844)"/>
        </clipPath>
    </defs>
</svg>
