<svg width="39" height="38" viewBox="0 0 39 38" fill="none" xmlns="http://www.w3.org/2000/svg">
    <path d="M37.7097 34.3789L30.5343 27.2246C32.8494 24.2751 34.1055 20.633 34.1009 16.8835C34.1009 13.5442 33.1107 10.28 31.2555 7.50351C29.4003 4.72704 26.7635 2.56305 23.6785 1.28518C20.5934 0.00731528 17.1987 -0.327033 13.9236 0.324418C10.6486 0.97587 7.64023 2.58386 5.27904 4.94506C2.91785 7.30625 1.30985 10.3146 0.658403 13.5897C0.00695118 16.8647 0.3413 20.2594 1.61917 23.3445C2.89704 26.4295 5.06103 29.0663 7.8375 30.9215C10.614 32.7767 13.8782 33.7669 17.2174 33.7669C20.9669 33.7716 24.6091 32.5154 27.5585 30.2003L34.7129 37.3757C34.9091 37.5735 35.1425 37.7305 35.3997 37.8377C35.6569 37.9448 35.9327 38 36.2113 38C36.4899 38 36.7658 37.9448 37.0229 37.8377C37.2801 37.7305 37.5135 37.5735 37.7097 37.3757C37.9075 37.1795 38.0645 36.9461 38.1717 36.689C38.2788 36.4318 38.334 36.1559 38.334 35.8773C38.334 35.5987 38.2788 35.3229 38.1717 35.0657C38.0645 34.8085 37.9075 34.5751 37.7097 34.3789ZM4.55485 16.8835C4.55485 14.379 5.2975 11.9309 6.68888 9.8485C8.08027 7.76615 10.0579 6.14315 12.3717 5.18475C14.6855 4.22635 17.2315 3.97559 19.6878 4.46418C22.1441 4.95277 24.4003 6.15876 26.1712 7.92966C27.9421 9.70055 29.1481 11.9568 29.6367 14.4131C30.1253 16.8694 29.8745 19.4154 28.9161 21.7292C27.9577 24.043 26.3347 26.0206 24.2524 27.412C22.17 28.8034 19.7219 29.546 17.2174 29.546C13.8591 29.546 10.6383 28.2119 8.26364 25.8373C5.88894 23.4626 4.55485 20.2418 4.55485 16.8835Z" fill="black"/>
</svg>
