<svg width="44" height="44" viewBox="0 0 44 44" xmlns="http://www.w3.org/2000/svg" style="display:flex;align-item:center" fill="#000" stroke="#000">
    <path d="M42.0667 17.9333L38.3333 16.7333L37.5333 14.7333L39.4 11.2667C39.8 10.4667 39.6667 9.4 39 8.73333L35.8 5.53333C35.1333 4.86667 34.0667 4.73333 33.2667 5.13333L29.8 7L27.8 6.2L26.6 2.46667C26.3333 1.66667 25.5333 1 24.6 1H20.0667C19.1333 1 18.3333 1.66667 18.2 2.6L17 6.33333C16.2 6.46667 15.5333 6.73333 14.8667 7.13333L11.4 5.26667C10.6 4.86667 9.53333 5 8.86667 5.66667L5.66667 8.86667C5 9.53333 4.86667 10.6 5.26667 11.4L7 14.7333C6.73333 15.4 6.46667 16.2 6.2 16.8667L2.46667 18.0667C1.66667 18.3333 1 19.1333 1 20.0667V24.6C1 25.5333 1.66667 26.3333 2.6 26.6L6.33333 27.8L7.13333 29.8L5.26667 33.2667C4.86667 34.0667 5 35.1333 5.66667 35.8L8.86667 39C9.53333 39.6667 10.6 39.8 11.4 39.4L14.8667 37.5333L16.8667 38.3333L18.0667 42.2C18.3333 43 19.1333 43.6667 20.0667 43.6667H24.6C25.5333 43.6667 26.3333 43 26.6 42.2L27.8 38.3333L29.8 37.5333L33.2667 39.4C34.0667 39.8 35.1333 39.6667 35.8 39L39 35.8C39.6667 35.1333 39.8 34.0667 39.4 33.2667L37.5333 29.8L38.3333 27.8L42.2 26.6C43 26.3333 43.6667 25.5333 43.6667 24.6V20.0667C43.6667 19.1333 43 18.2 42.0667 17.9333ZM41 24.2L36.2 25.6667L36.0667 26.3333L34.8667 29.1333L34.4667 29.8L36.8667 34.2L34.2 36.8667L29.8 34.4667L29.1333 34.8667C28.2 35.4 27.2667 35.8 26.3333 36.0667L25.6667 36.2L24.2 41H20.4667L19 36.2L18.3333 36.0667L15.5333 34.8667L14.8667 34.4667L10.4667 36.8667L7.8 34.2L10.2 29.8L9.8 29.1333C9.26667 28.2 8.86667 27.2667 8.6 26.3333L8.46667 25.6667L3.66667 24.2V20.4667L8.2 19.1333L8.46667 18.4667C8.73333 17.4 9.13333 16.4667 9.66667 15.5333L10.0667 14.8667L7.8 10.4667L10.4667 7.8L14.7333 10.2L15.4 9.8C16.3333 9.26667 17.2667 8.86667 18.3333 8.6L19 8.33333L20.4667 3.66667H24.2L25.6667 8.33333L26.3333 8.6C27.2667 8.86667 28.2 9.26667 29.1333 9.8L29.8 10.2L34.2 7.8L36.8667 10.4667L34.4667 14.8667L34.8667 15.5333C35.4 16.4667 35.8 17.4 36.0667 18.3333L36.2 19L41 20.4667V24.2Z" stroke-width="0.5"/>
    <path d="M10.4661 1C5.26615 1 1.13281 5.13333 1.13281 10.3333C1.13281 15.5333 5.26615 19.6667 10.4661 19.6667C15.6661 19.6667 19.7995 15.5333 19.7995 10.3333C19.7995 5.13333 15.6661 1 10.4661 1ZM10.4661 17C6.73281 17 3.79948 14.0667 3.79948 10.3333C3.79948 6.6 6.73281 3.66667 10.4661 3.66667C14.1995 3.66667 17.1328 6.6 17.1328 10.3333C17.1328 14.0667 14.1995 17 10.4661 17Z" transform="translate(12, 12)" stroke-width="0.5"/>
</svg>
