<!-- Generated by IcoMoon.io -->
<svg version="1.1" xmlns="http://www.w3.org/2000/svg" width="32" height="32" viewBox="0 0 32 32">
<title>skype</title>
<path fill="#00aff0" d="M30.867 18.626c-0.010 0.056-0.017 0.113-0.028 0.169l-0.055-0.322c0.030 0.050 0.055 0.103 0.083 0.153 0.167-0.904 0.251-1.82 0.252-2.739 0-2.040-0.399-4.019-1.188-5.882-0.761-1.8-1.85-3.416-3.239-4.803-1.387-1.388-3.004-2.477-4.802-3.238-1.862-0.788-3.841-1.187-5.881-1.187-0.961 0-1.924 0.090-2.861 0.27-0.002 0-0.005 0-0.007 0.001 0.053 0.028 0.106 0.053 0.158 0.082l-0.318-0.050c0.053-0.010 0.107-0.021 0.16-0.032-1.286-0.683-2.732-1.048-4.195-1.048-2.389 0-4.636 0.93-6.325 2.62s-2.62 3.936-2.62 6.325c0.001 1.518 0.388 3.010 1.125 4.337 0.010-0.055 0.016-0.11 0.027-0.165l0.055 0.317c-0.028-0.050-0.053-0.101-0.082-0.152-0.15 0.86-0.227 1.731-0.228 2.604 0 2.040 0.399 4.019 1.188 5.882 0.76 1.8 1.85 3.415 3.237 4.802 1.389 1.388 3.004 2.478 4.804 3.237 1.863 0.79 3.842 1.189 5.882 1.189 0.888 0 1.778-0.081 2.646-0.235-0.051-0.028-0.102-0.054-0.154-0.084l0.323 0.057c-0.056 0.011-0.112 0.017-0.169 0.027 1.342 0.76 2.858 1.159 4.401 1.159 2.389 0 4.634-0.929 6.324-2.62 1.69-1.689 2.62-3.936 2.62-6.325-0.001-1.524-0.391-3.022-1.133-4.352v-0zM16.069 25.141c-5.368 0-7.77-2.639-7.77-4.617 0-1.015 0.749-1.726 1.781-1.726 2.297 0 1.702 3.299 5.989 3.299 2.194 0 3.406-1.191 3.406-2.411 0-0.733-0.362-1.546-1.807-1.902l-4.775-1.192c-3.845-0.964-4.543-3.043-4.543-4.997 0-4.057 3.82-5.58 7.407-5.58 3.305 0 7.2 1.826 7.2 4.26 0 1.043-0.903 1.649-1.935 1.649-1.961 0-1.6-2.714-5.549-2.714-1.96 0-3.045 0.887-3.045 2.157 0 1.268 1.548 1.672 2.892 1.978l3.534 0.784c3.871 0.863 4.853 3.123 4.853 5.252 0 3.297-2.531 5.759-7.639 5.759zM18.501 30.679c0.052 0.030 0.103 0.056 0.154 0.084 0.057-0.010 0.113-0.017 0.169-0.028l-0.323-0.057zM30.84 18.796c0.011-0.056 0.018-0.113 0.028-0.169-0.028-0.051-0.053-0.103-0.083-0.153l0.055 0.322zM1.152 13.118c-0.011 0.055-0.017 0.11-0.027 0.165 0.028 0.051 0.053 0.102 0.082 0.152l-0.055-0.317zM13.298 1.13c-0.052-0.029-0.105-0.054-0.158-0.082-0.053 0.011-0.107 0.022-0.16 0.032l0.318 0.050z"></path>
</svg>
