<svg width="28" height="21" viewBox="0 0 28 21" fill="none" xmlns="http://www.w3.org/2000/svg">
<path fill-rule="evenodd" clip-rule="evenodd" d="M0 21L2.50422e-07 -7.62939e-06L25.6744 -7.32323e-06C26.9588 -7.30791e-06 28 1.04119 28 2.32558L28 5.74852C25.7586 6.08197 24.0391 8.01459 24.0391 10.3488C24.0391 12.6831 25.7586 14.6157 28 14.9491L28 18.6744C28 19.9588 26.9588 21 25.6744 21L0 21ZM19.3186 20C19.0618 20 18.8535 19.7918 18.8535 19.5349L18.8535 18.1395C18.8535 17.8827 19.0618 17.6744 19.3186 17.6744C19.5755 17.6744 19.7837 17.8827 19.7837 18.1395L19.7837 19.5349C19.7837 19.7918 19.5755 20 19.3186 20ZM18.8535 16.2789C18.8535 16.5358 19.0618 16.744 19.3186 16.744C19.5755 16.744 19.7837 16.5358 19.7837 16.2789L19.7837 14.8835C19.7837 14.6267 19.5755 14.4184 19.3186 14.4184C19.0618 14.4184 18.8535 14.6267 18.8535 14.8835L18.8535 16.2789ZM19.3186 13.4886C19.0618 13.4886 18.8535 13.2804 18.8535 13.0235L18.8535 11.6282C18.8535 11.3713 19.0618 11.1631 19.3186 11.1631C19.5755 11.1631 19.7837 11.3713 19.7837 11.6282L19.7837 13.0235C19.7837 13.2804 19.5755 13.4886 19.3186 13.4886ZM18.8535 9.76753C18.8535 10.0244 19.0618 10.2327 19.3186 10.2327C19.5755 10.2327 19.7837 10.0244 19.7837 9.76753L19.7837 8.37219C19.7837 8.11531 19.5755 7.90707 19.3186 7.90707C19.0618 7.90707 18.8535 8.11531 18.8535 8.37218L18.8535 9.76753ZM19.3186 6.97667C19.0618 6.97667 18.8535 6.76843 18.8535 6.51155L18.8535 5.1162C18.8535 4.85933 19.0618 4.65109 19.3186 4.65109C19.5755 4.65109 19.7837 4.85933 19.7837 5.1162L19.7837 6.51155C19.7837 6.76843 19.5755 6.97667 19.3186 6.97667ZM18.8535 3.25556C18.8535 3.51244 19.0618 3.72068 19.3186 3.72068C19.5755 3.72068 19.7837 3.51244 19.7837 3.25556L19.7837 1.86021C19.7837 1.60334 19.5755 1.3951 19.3186 1.3951C19.0618 1.3951 18.8535 1.60334 18.8535 1.86021L18.8535 3.25556Z" fill="#3398FF"/>
<path d="M5.60156 14.0977C4.97656 14.0977 4.38411 14.0065 3.82422 13.8242C3.26432 13.6289 2.78906 13.3555 2.39844 13.0039L3.31641 11.7539C3.61589 12.0534 3.96745 12.2813 4.37109 12.4375C4.77474 12.5938 5.19792 12.6719 5.64063 12.6719C6.05729 12.6719 6.38281 12.6068 6.61719 12.4766C6.85156 12.3464 6.96875 12.1641 6.96875 11.9297C6.96875 11.7214 6.87109 11.5716 6.67578 11.4805C6.48047 11.3893 6.09635 11.2591 5.52344 11.0898C4.95052 10.9336 4.46875 10.7773 4.07813 10.6211C3.70052 10.4518 3.375 10.2109 3.10156 9.89844C2.82813 9.58594 2.69141 9.18229 2.69141 8.6875C2.69141 8.01042 2.95833 7.47656 3.49219 7.08594C4.02604 6.68229 4.7487 6.48047 5.66016 6.48047C6.71484 6.48047 7.65885 6.77995 8.49219 7.37891L7.59375 8.62891C7.32031 8.40755 7.00781 8.23828 6.65625 8.12109C6.31771 7.99089 5.96615 7.92578 5.60156 7.92578C5.22396 7.92578 4.91797 7.99089 4.68359 8.12109C4.46224 8.23828 4.35156 8.40104 4.35156 8.60938C4.35156 8.80469 4.46875 8.96745 4.70313 9.09766C4.95052 9.22786 5.35417 9.37109 5.91406 9.52734C6.47396 9.68359 6.9362 9.83984 7.30078 9.99609C7.67839 10.1393 7.9974 10.3607 8.25781 10.6602C8.53125 10.9596 8.66797 11.3438 8.66797 11.8125C8.66797 12.5286 8.39453 13.0885 7.84766 13.4922C7.3138 13.8958 6.5651 14.0977 5.60156 14.0977ZM15.6406 6.57813L15.6406 8.10156L13.1406 8.10156L13.1406 14L11.4609 14L11.4609 8.10156L8.96094 8.10156L8.96094 6.57813L15.6406 6.57813Z" fill="white"/>
</svg>
