<svg width="39" height="46" viewBox="0 0 39 46" fill="none" xmlns="http://www.w3.org/2000/svg">
    <path d="M25.3915 5.96943C25.4076 6.68284 25.2811 7.39228 25.0193 8.0561C24.7574 8.71992 24.3656 9.32475 23.8669 9.83507C23.3681 10.3454 22.7724 10.7509 22.1147 11.0278C21.457 11.3048 20.7507 11.4475 20.0371 11.4477C19.3235 11.4479 18.617 11.3055 17.9592 11.0289C17.3014 10.7523 16.7055 10.3471 16.2065 9.83699C15.7074 9.32692 15.3153 8.72228 15.0532 8.05859C14.791 7.3949 14.6641 6.68552 14.6799 5.97211C14.7109 4.57239 15.2885 3.24041 16.2893 2.26129C17.29 1.28218 18.6343 0.733749 20.0344 0.733399C21.4345 0.733049 22.779 1.28081 23.7803 2.25942C24.7815 3.23803 25.3599 4.56973 25.3915 5.96943Z" fill="#3398FF"/>
    <path d="M37.256 24.7714L27.7058 15.0655C26.9146 14.2578 25.9712 13.6166 24.9306 13.1793C23.8899 12.7421 22.773 12.5176 21.6451 12.519H17.7148H17.7111C15.3309 12.519 13.1748 13.4933 11.6174 15.0655L2.06716 24.7714C1.71555 24.9802 1.41605 25.2669 1.19152 25.6097C0.966996 25.9525 0.823375 26.3423 0.771618 26.7493C0.71986 27.1564 0.761335 27.5699 0.892878 27.9584C1.02442 28.3469 1.24255 28.7001 1.53063 28.9909C1.81871 29.2818 2.16912 29.5027 2.55512 29.6369C2.94113 29.771 3.35252 29.8147 3.7579 29.7647C4.16329 29.7148 4.55196 29.5724 4.89425 29.3485C5.23655 29.1247 5.52342 28.8252 5.73297 28.473L12.3153 21.856V42.9785C12.3153 44.4999 13.5487 45.7333 15.0701 45.7333C16.5916 45.7333 17.825 44.4999 17.825 42.9785V32.808C17.825 31.7937 18.6473 30.9714 19.6616 30.9714C20.6759 30.9714 21.4982 31.7937 21.4982 32.808V42.9785C21.4982 44.4999 22.7316 45.7333 24.253 45.7333C25.7745 45.7333 27.0079 44.4999 27.0079 42.9785V21.856L33.4359 28.4988C33.6656 28.8016 33.9565 29.052 34.2895 29.2336C34.6226 29.4152 34.9901 29.5238 35.3679 29.5523C35.7458 29.5808 36.1253 29.5285 36.4816 29.3989C36.8379 29.2693 37.1627 29.0653 37.4348 28.8003C37.7069 28.5354 37.92 28.2155 38.0601 27.8618C38.2001 27.508 38.264 27.1285 38.2474 26.7482C38.2309 26.3679 38.1343 25.9954 37.9641 25.6553C37.7938 25.3152 37.5537 25.0152 37.2597 24.7751L37.256 24.7714Z" fill="#3398FF"/>
</svg>
