<!-- Generated by IcoMoon.io -->
<svg version="1.1" xmlns="http://www.w3.org/2000/svg" width="32" height="32" viewBox="0 0 32 32">
<title>telegram-white</title>
<path fill="none" stroke="#fff" stroke-linejoin="miter" stroke-linecap="butt" stroke-miterlimit="4" stroke-width="1.7778" d="M3.175 3.176l0.001-0.001c1.088-1.090 2.489-1.675 4.547-1.977 2.089-0.307 4.74-0.309 8.273-0.309s6.185 0.002 8.274 0.308c2.059 0.302 3.462 0.885 4.553 1.973 1.091 1.091 1.675 2.494 1.978 4.553 0.307 2.090 0.309 4.741 0.309 8.274s-0.002 6.185-0.309 8.274c-0.302 2.059-0.887 3.462-1.978 4.553s-2.495 1.675-4.555 1.978c-2.090 0.307-4.742 0.309-8.272 0.309s-6.182-0.002-8.271-0.309c-2.060-0.302-3.462-0.887-4.549-1.977l-0.001-0.001c-1.091-1.091-1.675-2.495-1.978-4.555-0.307-2.090-0.309-4.742-0.309-8.272s0.002-6.182 0.309-8.271c0.302-2.060 0.887-3.462 1.977-4.549z"></path>
<path fill="#fff" d="M23.949 9.376l-2.683 12.823c-0.202 0.905-0.73 1.13-1.48 0.704l-4.088-3.053-1.972 1.923c-0.218 0.221-0.401 0.406-0.822 0.406l0.294-4.219 7.576-6.939c0.329-0.298-0.071-0.463-0.512-0.165l-9.366 5.977-4.032-1.279c-0.877-0.278-0.893-0.889 0.183-1.315l15.771-6.158c0.73-0.278 1.369 0.165 1.131 1.295z"></path>
</svg>
