<!-- Generated by IcoMoon.io -->
<svg version="1.1" xmlns="http://www.w3.org/2000/svg" width="33" height="32" viewBox="0 0 33 32">
<title>telegram</title>
<path fill="none" stroke="#000" stroke-linejoin="miter" stroke-linecap="butt" stroke-miterlimit="4" stroke-width="2.1333" d="M4.030 3.302l0.002-0.002c1.051-1.053 2.41-1.628 4.447-1.927 2.073-0.304 4.71-0.307 8.248-0.307s6.175 0.003 8.249 0.306c2.038 0.298 3.399 0.872 4.453 1.923 1.054 1.054 1.628 2.415 1.927 4.453 0.304 2.074 0.307 4.71 0.307 8.248s-0.003 6.174-0.307 8.248c-0.299 2.038-0.874 3.399-1.928 4.453s-2.417 1.628-4.455 1.928c-2.075 0.305-4.711 0.307-8.246 0.307s-6.172-0.003-8.245-0.307c-2.038-0.299-3.399-0.874-4.449-1.927l-0.001-0.001c-1.054-1.054-1.628-2.417-1.928-4.455-0.304-2.075-0.307-4.711-0.307-8.246s0.003-6.172 0.307-8.245c0.299-2.038 0.874-3.399 1.927-4.449z"></path>
<path d="M24.678 9.376l-2.683 12.823c-0.202 0.905-0.73 1.13-1.48 0.704l-4.088-3.053-1.972 1.923c-0.218 0.221-0.401 0.406-0.822 0.406l0.294-4.219 7.576-6.939c0.329-0.298-0.071-0.463-0.512-0.165l-9.366 5.977-4.032-1.279c-0.877-0.278-0.893-0.889 0.183-1.315l15.771-6.158c0.73-0.278 1.369 0.165 1.131 1.295z"></path>
</svg>
