<!-- Generated by IcoMoon.io -->
<svg version="1.1" xmlns="http://www.w3.org/2000/svg" width="32" height="32" viewBox="0 0 32 32">
<title>trident</title>
<path fill="none" stroke="#fff" stroke-linejoin="miter" stroke-linecap="butt" stroke-miterlimit="4" stroke-width="1.0667" d="M2.924 2.925l0.001-0.001c1.161-1.164 2.645-1.769 4.747-2.078 2.12-0.311 4.802-0.313 8.325-0.313s6.205 0.001 8.326 0.312c2.103 0.308 3.589 0.912 4.753 2.073 1.164 1.164 1.77 2.65 2.078 4.753 0.311 2.121 0.313 4.803 0.313 8.326s-0.001 6.205-0.313 8.326c-0.309 2.103-0.914 3.589-2.078 4.753s-2.651 1.77-4.755 2.078c-2.122 0.311-4.804 0.313-8.324 0.313s-6.202-0.001-8.323-0.313c-2.103-0.309-3.589-0.914-4.749-2.078l-0-0c-1.164-1.164-1.769-2.651-2.078-4.755-0.311-2.122-0.313-4.804-0.313-8.324s0.001-6.202 0.313-8.323c0.309-2.103 0.914-3.589 2.078-4.749z"></path>
<path fill="#fff" d="M15.31 26.283c-1.149-0.876-1.997-2.184-2.27-3.707h-3.707v-16.020c1.997 0.991 3.42 3.19 3.592 5.46l0.56 4.497-0.273-0.043c-0.603 0-1.121 0.56-1.121 1.121 0 0.517 0.402 0.963 0.92 1.078l0.675 0.158c1.121-2.112 1.753-4.181 1.753-6.221 0-1.839-0.244-3.664-0.273-5.532 0-0.833 0.316-1.595 0.833-2.184 0.517 0.603 0.833 1.351 0.833 2.184 0 1.868-0.273 3.707-0.273 5.532 0 2.026 0.632 4.109 1.753 6.221l0.675-0.158c0.517-0.115 0.92-0.56 0.92-1.078 0-0.56-0.517-1.121-1.121-1.121l-0.273 0.043 0.56-4.497c0.273-2.27 1.595-4.468 3.592-5.46v16.020h-3.707c-0.273 1.509-1.078 2.874-2.27 3.707-0.273 0.201-0.517 0.445-0.675 0.762-0.187-0.33-0.431-0.56-0.704-0.762zM11.086 17.044c0.158-0.603 0.603-1.121 1.149-1.437l-0.445-3.707c-0.158-1.149-0.632-2.184-1.351-3.032v8.161h0.646v0.014zM12.968 21.455c0-0.56 0.086-1.078 0.201-1.595l-0.517-0.115c-0.761-0.244-1.351-0.833-1.552-1.595h-0.632v3.305h2.5zM15.425 21.455c0-0.675-0.517-1.279-1.193-1.351-0.115 0.431-0.201 0.876-0.201 1.351h1.394zM15.425 22.576h-1.236c0.201 0.876 0.632 1.667 1.236 2.356v-2.356zM17.178 19.113c-0.474-0.876-0.92-1.796-1.193-2.744-0.273 0.963-0.718 1.868-1.193 2.744 0.474 0.115 0.876 0.431 1.193 0.79 0.316-0.359 0.718-0.675 1.193-0.79zM17.94 21.455c0-0.474-0.086-0.92-0.201-1.351-0.675 0.086-1.193 0.675-1.193 1.351h1.394zM17.782 22.576h-1.236v2.356c0.603-0.69 1.035-1.48 1.236-2.356zM21.532 21.455v-3.305h-0.632c-0.201 0.762-0.79 1.351-1.552 1.595l-0.517 0.115c0.115 0.517 0.201 1.034 0.201 1.595h2.5zM21.532 17.044v-8.161c-0.718 0.833-1.236 1.868-1.351 3.032l-0.445 3.707c0.56 0.316 0.991 0.833 1.149 1.437h0.647v-0.014z"></path>
</svg>
