<!-- Generated by IcoMoon.io -->
<svg version="1.1" xmlns="http://www.w3.org/2000/svg" width="32" height="32" viewBox="0 0 32 32">
<title>twitter-white</title>
<path fill="none" stroke="#fff" stroke-linejoin="miter" stroke-linecap="butt" stroke-miterlimit="4" stroke-width="1.7778" d="M3.175 3.176l0.001-0.001c1.088-1.090 2.489-1.675 4.547-1.977 2.089-0.307 4.74-0.309 8.273-0.309s6.185 0.002 8.274 0.308c2.059 0.302 3.462 0.885 4.553 1.973 1.091 1.091 1.675 2.494 1.978 4.553 0.307 2.090 0.309 4.741 0.309 8.274s-0.002 6.185-0.309 8.274c-0.302 2.059-0.887 3.462-1.978 4.553s-2.495 1.675-4.555 1.978c-2.090 0.307-4.742 0.309-8.272 0.309s-6.182-0.002-8.271-0.309c-2.060-0.302-3.462-0.887-4.549-1.977l-0.001-0.001c-1.091-1.091-1.675-2.495-1.978-4.555-0.307-2.090-0.309-4.742-0.309-8.272s0.002-6.182 0.309-8.271c0.302-2.060 0.887-3.462 1.977-4.549z"></path>
<path fill="#fff" d="M22.355 12.212c0.010 0.146 0.010 0.292 0.010 0.438 0 4.448-3.299 9.573-9.33 9.573-1.858 0-3.584-0.552-5.036-1.51 0.264 0.031 0.518 0.042 0.792 0.042 1.533 0 2.944-0.531 4.071-1.438-1.442-0.031-2.65-1-3.066-2.333 0.203 0.031 0.406 0.052 0.619 0.052 0.294 0 0.589-0.042 0.863-0.114-1.503-0.313-2.629-1.667-2.629-3.302v-0.042c0.437 0.25 0.944 0.406 1.482 0.427-0.883-0.604-1.462-1.635-1.462-2.802 0-0.625 0.162-1.198 0.447-1.698 1.614 2.042 4.041 3.375 6.761 3.521-0.051-0.25-0.081-0.51-0.081-0.771 0-1.854 1.462-3.365 3.279-3.365 0.944 0 1.797 0.406 2.396 1.063 0.741-0.146 1.452-0.427 2.081-0.812-0.244 0.781-0.761 1.438-1.442 1.854 0.66-0.073 1.3-0.26 1.888-0.521-0.447 0.667-1.005 1.26-1.645 1.74z"></path>
</svg>
