<svg width="206" height="83" viewBox="0 0 206 83" fill="none" xmlns="http://www.w3.org/2000/svg">
	<mask id="path-1-inside-1" fill="white">
		<path fill-rule="evenodd" clip-rule="evenodd" d="M30 0C13.4315 0 0 13.4315 0 30V75C0 76.1046 0.895436 77 2.00001 77H204C205.105 77 206 76.1046 206 75V2C206 0.895431 205.105 0 204 0H30ZM129 17H108V38H129V17ZM138 17H159V38H138V17ZM189 17H168V38H189V17Z" />
	</mask>
	<path fill-rule="evenodd" clip-rule="evenodd" d="M30 0C13.4315 0 0 13.4315 0 30V75C0 76.1046 0.895436 77 2.00001 77H204C205.105 77 206 76.1046 206 75V2C206 0.895431 205.105 0 204 0H30ZM129 17H108V38H129V17ZM138 17H159V38H138V17ZM189 17H168V38H189V17Z" fill="white" />
	<path d="M108 17V15H106V17H108ZM129 17H131V15H129V17ZM108 38H106V40H108V38ZM129 38V40H131V38H129ZM159 17H161V15H159V17ZM138 17V15H136V17H138ZM159 38V40H161V38H159ZM138 38H136V40H138V38ZM168 17V15H166V17H168ZM189 17H191V15H189V17ZM168 38H166V40H168V38ZM189 38V40H191V38H189ZM2 30C2 14.536 14.536 2 30 2V-2C12.3269 -2 -2 12.3269 -2 30H2ZM2 75V30H-2V75H2ZM2.00001 75H2H-2C-2 77.2091 -0.209128 79 2.00001 79V75ZM204 75H2.00001V79H204V75ZM204 75V79C206.209 79 208 77.2091 208 75H204ZM204 2V75H208V2H204ZM204 2H208C208 -0.20914 206.209 -2 204 -2V2ZM30 2H204V-2H30V2ZM108 19H129V15H108V19ZM110 38V17H106V38H110ZM129 36H108V40H129V36ZM127 17V38H131V17H127ZM159 15H138V19H159V15ZM161 38V17H157V38H161ZM138 40H159V36H138V40ZM136 17V38H140V17H136ZM168 19H189V15H168V19ZM170 38V17H166V38H170ZM189 36H168V40H189V36ZM187 17V38H191V17H187Z" fill="#E1E1E1" mask="url(#path-1-inside-1)" />
	<path fill-rule="evenodd" clip-rule="evenodd" d="M29.2988 75C30.4204 79.592 34.5619 83 39.4994 83C44.4369 83 48.5784 79.592 49.6999 75H29.2988Z" fill="#E1E1E1" />
	<path fill-rule="evenodd" clip-rule="evenodd" d="M49.2988 75C50.4204 79.592 54.5619 83 59.4994 83C64.4369 83 68.5784 79.592 69.6999 75H49.2988Z" fill="#E1E1E1" />
	<path fill-rule="evenodd" clip-rule="evenodd" d="M139.299 75C140.42 79.592 144.562 83 149.499 83C154.437 83 158.578 79.592 159.7 75H139.299Z" fill="#E1E1E1" />
	<path fill-rule="evenodd" clip-rule="evenodd" d="M159.299 75C160.42 79.592 164.562 83 169.499 83C174.437 83 178.578 79.592 179.7 75H159.299Z" fill="#E1E1E1" />
</svg>
