<!-- Generated by IcoMoon.io -->
<svg version="1.1" xmlns="http://www.w3.org/2000/svg" width="32" height="32" viewBox="0 0 32 32">
<title>youtube-white</title>
<path fill="none" stroke="#fff" stroke-linejoin="miter" stroke-linecap="butt" stroke-miterlimit="4" stroke-width="1.7778" d="M3.175 3.176l0.001-0.001c1.088-1.090 2.489-1.675 4.547-1.977 2.089-0.307 4.74-0.309 8.273-0.309s6.185 0.002 8.274 0.308c2.059 0.302 3.462 0.885 4.553 1.973 1.091 1.091 1.675 2.494 1.978 4.553 0.307 2.090 0.309 4.741 0.309 8.274s-0.002 6.185-0.309 8.274c-0.302 2.059-0.887 3.462-1.978 4.553s-2.495 1.675-4.555 1.978c-2.090 0.307-4.742 0.309-8.272 0.309s-6.182-0.002-8.271-0.309c-2.060-0.302-3.462-0.887-4.549-1.977l-0.001-0.001c-1.091-1.091-1.675-2.495-1.978-4.555-0.307-2.090-0.309-4.742-0.309-8.272s0.002-6.182 0.309-8.271c0.302-2.060 0.887-3.462 1.977-4.549z"></path>
<path fill="#fff" d="M23.651 9.583c-1.53-0.419-7.652-0.419-7.652-0.419s-6.121 0-7.651 0.403c-0.821 0.225-1.498 0.902-1.724 1.74-0.403 1.53-0.403 4.704-0.403 4.704s0 3.189 0.403 4.704c0.226 0.838 0.886 1.498 1.724 1.724 1.546 0.419 7.651 0.419 7.651 0.419s6.121 0 7.651-0.403c0.838-0.226 1.498-0.886 1.724-1.724 0.403-1.53 0.403-4.704 0.403-4.704s0.016-3.189-0.403-4.72c-0.226-0.838-0.886-1.498-1.724-1.724zM19.141 16.010l-5.090 2.932v-5.863l5.090 2.932z"></path>
</svg>
