<svg width="42" height="61" viewBox="0 0 42 61" fill="none" xmlns="http://www.w3.org/2000/svg">
<path d="M40.8497 59.1308L35.317 52.0159H35.7553C36.6129 52.0117 37.4405 51.6998 38.0876 51.137C38.7474 50.5674 39.1267 49.8342 39.1267 49.1262V14.4491C39.1267 12.2167 37.7083 10.596 35.7553 10.596H28.1624L26.5032 7.27523C26.423 7.11529 26.2999 6.98081 26.1477 6.88683C25.9954 6.79284 25.82 6.74305 25.6411 6.74303H24.3094L26.5032 2.35782C26.5598 2.2446 26.5936 2.12135 26.6026 1.99509C26.6115 1.86883 26.5956 1.74204 26.5555 1.62196C26.5155 1.50188 26.4522 1.39086 26.3693 1.29523C26.2863 1.19961 26.1854 1.12126 26.0722 1.06465C25.959 1.00804 25.8357 0.974289 25.7094 0.965316C25.5832 0.956343 25.4564 0.972327 25.3363 1.01235C25.2162 1.05238 25.1052 1.11567 25.0096 1.1986C24.914 1.28154 24.8356 1.38249 24.779 1.49571L22.1565 6.74303H19.4932L16.8707 1.49571C16.8141 1.38249 16.7357 1.28154 16.6401 1.1986C16.5445 1.11567 16.4335 1.05238 16.3134 1.01235C16.0709 0.931515 15.8062 0.950327 15.5775 1.06465C15.3489 1.17897 15.175 1.37944 15.0942 1.62196C15.0133 1.86448 15.0321 2.12917 15.1465 2.35782L17.3403 6.74303H16.0086C15.8297 6.74305 15.6543 6.79284 15.502 6.88683C15.3498 6.98081 15.2267 7.11529 15.1465 7.27523L13.4873 10.596H5.89442C3.94143 10.596 2.52304 12.2167 2.52304 14.4491V49.1262C2.52304 49.8342 2.90232 50.5674 3.56215 51.137C4.20923 51.6998 5.03682 52.0117 5.89442 52.0159H6.3327L0.800018 59.1308C0.717156 59.23 0.655121 59.3449 0.617609 59.4686C0.580097 59.5924 0.567875 59.7224 0.581673 59.8509C0.595471 59.9795 0.635005 60.1039 0.69792 60.2169C0.760835 60.3298 0.845843 60.4289 0.947878 60.5083C1.04991 60.5877 1.16689 60.6458 1.29183 60.679C1.41677 60.7122 1.54713 60.72 1.67512 60.7018C1.80312 60.6836 1.92614 60.6398 2.03686 60.573C2.14757 60.5062 2.24371 60.4179 2.31955 60.3132L4.2894 57.781C4.34231 57.7901 4.39586 57.7949 4.44954 57.7955H37.2002C37.2538 57.7949 37.3074 57.7901 37.3603 57.781L39.3302 60.3132C39.4902 60.5049 39.7185 60.6269 39.9668 60.6536C40.2151 60.6802 40.464 60.6094 40.6611 60.456C40.8582 60.3027 40.988 60.0787 41.0232 59.8315C41.0584 59.5843 40.9962 59.333 40.8497 59.1308ZM16.6034 8.66954H25.0463L26.0096 10.596H15.6401L16.6034 8.66954ZM4.44954 14.4491C4.44954 13.2787 5.01666 12.5225 5.89442 12.5225H35.7553C36.633 12.5225 37.2002 13.2787 37.2002 14.4491V23.1183H4.44954V14.4491ZM4.44954 25.0448H37.2002V35.6406H4.44954V25.0448ZM5.89442 50.0894C5.03352 50.0894 4.44954 49.3658 4.44954 49.1262V37.5671H37.2002V49.1262C37.2002 49.3658 36.6162 50.0894 35.7553 50.0894H28.3623L26.4659 40.2739C26.4236 40.0543 26.3061 39.8562 26.1336 39.7138C25.9611 39.5715 25.7444 39.4936 25.5207 39.4936H15.8882C15.6625 39.4934 15.444 39.5726 15.2708 39.7172C15.0976 39.8618 14.9807 40.0627 14.9406 40.2847L13.1574 50.0894H5.89442ZM32.8764 52.0159L33.6253 52.9792H8.02442L8.77335 52.0159H32.8764ZM15.1164 50.0894L16.6925 41.4202H24.726L26.4009 50.0894H15.1164ZM5.77643 55.8689L6.52656 54.9057H35.1231L35.8733 55.8689H5.77643Z" fill="#2A2A2A"/>
</svg>
